{
.appVersion = "3228";
.formatVersion = 3;
axes = (
{
name = Weight;
tag = wght;
}
);
customParameters = (
{
name = fsType;
value = (
);
},
{
name = vendorID;
value = ENIG;
},
{
name = "Use Typo Metrics";
value = 1;
},
{
name = "Enforce Compatibility Check";
value = 0;
},
{
name = "Disable Masters";
value = (
Stroke
);
},
{
name = glyphOrder;
value = (
.notdef,
nbspace,
space,
emspace,
emquad,
figurespace,
punctuationspace,
enspace,
enquad,
fourperemspace,
"mediumspace-math",
narrownbspace,
thinspace,
hairspace,
zerowidthspace,
A,
Aacute,
B,
C,
D,
E,
Eacute,
F,
G,
H,
I,
Iacute,
J,
K,
L,
M,
N,
Ntilde,
O,
Oacute,
P,
Q,
R,
S,
T,
U,
Uacute,
Udieresis,
V,
W,
X,
Y,
Z,
A.cv01,
Aacute.001,
P.cv01,
a,
aacute,
b,
c,
d,
e,
eacute,
f,
g,
h,
i,
iacute,
j,
k,
l,
m,
n,
ntilde,
o,
oacute,
p,
q,
r,
s,
t,
u,
uacute,
udieresis,
v,
w,
x,
y,
z,
zero,
one,
two,
three,
four,
five,
six,
seven,
eight,
nine,
period,
acute,
dieresis,
tilde,
acutecomb,
dieresiscomb,
tildecomb
);
}
);
date = "2023-12-13 21:29:05 +0000";
familyName = "Puebla CDD";
featurePrefixes = (
{
automatic = 1;
code = "languagesystem DFLT dflt;
";
name = Languagesystems;
}
);
features = (
{
automatic = 1;
code = "feature cv01;
";
tag = aalt;
},
{
automatic = 1;
code = "sub A by A.cv01;
sub P by P.cv01;
";
tag = cv01;
}
);
fontMaster = (
{
axesValues = (
0
);
id = m01;
metricValues = (
{
over = 20;
pos = 1000;
},
{
over = -20;
}
);
name = Stroke;
userData = {
GSOffsetHorizontal = 2;
GSOffsetKeepCompatible = 1;
GSOffsetMakeStroke = 1;
GSOffsetProportional = 1;
GSOffsetVertical = 4;
};
},
{
axesValues = (
100
);
id = m003;
metricValues = (
{
over = 20;
pos = 1000;
},
{
over = -20;
}
);
name = Thin;
userData = {
GSOffsetCapStyle = 4;
GSOffsetHorizontal = 2;
GSOffsetKeepCompatible = 1;
GSOffsetMakeStroke = 1;
GSOffsetProportional = 1;
GSOffsetVertical = 4;
};
},
{
axesValues = (
900
);
id = m002;
metricValues = (
{
over = 20;
pos = 1000;
},
{
over = -20;
}
);
name = Black;
userData = {
GSOffsetCapStyle = 4;

glyphs = (
{
glyphname = .notdef;
lastChange = "2023-12-13 21:28:13 +0000";
layers = (
{
layerId = m01;
shapes = (
{
closed = 1;
nodes = (
(250,1000,l),
(0,1000,l),
(0,0,l),
(250,0,l)
);
},
{
closed = 1;
nodes = (
(50,50,l),
(50,160,l),
(200,160,l),
(200,125,l),
(84,125,l),
(84,85,l),
(200,85,l),
(200,50,l)
);
},
{
closed = 1;
nodes = (
(50,190,l),
(50,300,l),
(200,300,l),
(200,190,l)
);
},
{
closed = 1;
nodes = (
(165,265,l),
(84,265,l),
(84,225,l),
(165,225,l)
);
},
{
closed = 1;
nodes = (
(50,357,l),
(50,467,l),
(84,467,l),
(84,392,l),
(165,392,l),
(165,432,l),
(124,432,l),
(124,467,l),
(200,467,l),
(200,357,l)
);
},
{
closed = 1;
nodes = (
(50,497,l),
(50,532,l),
(165,532,l),
(165,607,l),
(200,607,l),
(200,497,l)
);
},
{
closed = 1;
nodes = (
(135,637,l),
(135,562,l),
(50,562,l),
(50,597,l),
(99,597,l),
(99,637,l),
(50,637,l),
(50,672,l),
(200,672,l),
(200,637,l)
);
},
{
closed = 1;
nodes = (
(50,702,l),
(50,810,l),
(171,810,l),
(171,737,l),
(200,737,l),
(200,702,l)
);
},
{
closed = 1;
nodes = (
(135,775,l),
(84,775,l),
(84,737,l),
(135,737,l)
);
},
{
closed = 1;
nodes = (
(50,840,l),
(50,875,l),
(107,875,l),
(107,915,l),
(50,915,l),
(50,950,l),
(200,950,l),
(200,915,l),
(143,915,l),
(143,875,l),
(200,875,l),
(200,840,l)
);
}
);
width = 250;
},
{
layerId = m003;
shapes = (
{
closed = 1;
nodes = (
(250,1000,l),
(0,1000,l),
(0,0,l),
(250,0,l)
);
},
{
closed = 1;
nodes = (
(50,50,l),
(50,160,l),
(200,160,l),
(200,125,l),
(84,125,l),
(84,85,l),
(200,85,l),
(200,50,l)
);
},
{
closed = 1;
nodes = (
(50,190,l),
(50,300,l),
(200,300,l),
(200,190,l)
);
},
{
closed = 1;
nodes = (
(165,265,l),
(84,265,l),
(84,225,l),
(165,225,l)
);
},
{
closed = 1;
nodes = (
(50,357,l),
(50,467,l),
(84,467,l),
(84,392,l),
(165,392,l),
(165,432,l),
(124,432,l),
(124,467,l),
(200,467,l),
(200,357,l)
);
},
{
closed = 1;
nodes = (
(50,497,l),
(50,532,l),
(165,532,l),
(165,607,l),
(200,607,l),
(200,497,l)
);
},
{
closed = 1;
nodes = (
(135,637,l),
(135,562,l),
(50,562,l),
(50,597,l),
(99,597,l),
(99,637,l),
(50,637,l),
(50,672,l),
(200,672,l),
(200,637,l)
);
},
{
closed = 1;
nodes = (
(50,702,l),
(50,810,l),
(171,810,l),
(171,737,l),
(200,737,l),
(200,702,l)
);
},
{
closed = 1;
nodes = (
(135,775,l),
(84,775,l),
(84,737,l),
(135,737,l)
);
},
{
closed = 1;
nodes = (
(50,840,l),
(50,875,l),
(107,875,l),
(107,915,l),
(50,915,l),
(50,950,l),
(200,950,l),
(200,915,l),
(143,915,l),
(143,875,l),
(200,875,l),
(200,840,l)
);
}
);
width = 250;
},
{
layerId = m002;
shapes = (
{
closed = 1;
nodes = (
(250,1000,l),
(0,1000,l),
(0,0,l),
(250,0,l)
);
},
{
closed = 1;
nodes = (
(50,50,l),
(50,160,l),
(200,160,l),
(200,125,l),
(84,125,l),
(84,85,l),
(200,85,l),
(200,50,l)
);
},
{
closed = 1;
nodes = (
(50,190,l),
(50,300,l),
(200,300,l),
(200,190,l)
);
},
{
closed = 1;
nodes = (
(165,265,l),
(84,265,l),
(84,225,l),
(165,225,l)
);
},
{
closed = 1;
nodes = (
(50,357,l),
(50,467,l),
(84,467,l),
(84,392,l),
(165,392,l),
(165,432,l),
(124,432,l),
(124,467,l),
(200,467,l),
(200,357,l)
);
},
{
closed = 1;
nodes = (
(50,497,l),
(50,532,l),
(165,532,l),
(165,607,l),
(200,607,l),
(200,497,l)
);
},
{
closed = 1;
nodes = (
(135,637,l),
(135,562,l),
(50,562,l),
(50,597,l),
(99,597,l),
(99,637,l),
(50,637,l),
(50,672,l),
(200,672,l),
(200,637,l)
);
},
{
closed = 1;
nodes = (
(50,702,l),
(50,810,l),
(171,810,l),
(171,737,l),
(200,737,l),
(200,702,l)
);
},
{
closed = 1;
nodes = (
(135,775,l),
(84,775,l),
(84,737,l),
(135,737,l)
);
},
{
closed = 1;
nodes = (
(50,840,l),
(50,875,l),
(107,875,l),
(107,915,l),
(50,915,l),
(50,950,l),
(200,950,l),
(200,915,l),
(143,915,l),
(143,875,l),
(200,875,l),
(200,840,l)
);
}
);
width = 250;
}
);
},
{
glyphname = A;
lastChange = "2023-12-13 21:22:00 +0000";
layers = (
{
anchors = (
{
name = top;
pos = (500,1000);
}
);
layerId = m01;
shapes = (
{
closed = 0;
nodes = (
(0.1,800,l),
(100.1,1000,l)
);
},
{
closed = 0;
nodes = (
(0.1,600,l),
(200.1,1000,l)
);
},
{
closed = 0;
nodes = (
(300.1,1000,l),
(-1.1,395.2,l),
(1000,400,l),
(700.1,1000,l)
);
},
{
closed = 0;
nodes = (
(400.1,1000,l),
(0,200,l),
(1000,200,l),
(600.1,1000,l)
);
},
{
closed = 1;
nodes = (
(500.1,1000,l),
(0,0,l),
(1000,0,l)
);
},
{
closed = 0;
nodes = (
(400.1,0,l),
(500.1,200,l),
(600.1,0,l)
);
},
{
closed = 0;
nodes = (
(300.1,0,l),
(500.1,400,l),
(700.1,0,l)
);
},
{
closed = 0;
nodes = (
(200.1,0,l),
(500.1,600,l),
(800.1,0,l)
);
},
{
closed = 0;
nodes = (
(100.1,0,l),
(500.1,800,l),
(900.1,0,l)
);
},
{
closed = 0;
nodes = (
(1000.1,600,l),
(800.1,1000,l)
);
},
{
closed = 0;
nodes = (
(1000.1,800,l),
(900.1,1000,l)
);
}
);
width = 1000;
},
{
anchors = (
{
name = top;
pos = (500,1000);
}
);
layerId = m003;
shapes = (
{
closed = 1;
nodes = (
(1000,-2,l),
(1000,4.4,l),
(500,1004.5,l),
(0,4.4,l),
(0,-2,l)
);
},
{
closed = 1;
nodes = (
(302.2,0,l),
(500,395.5,l),
(697.8,0,l),
(702.2,0,l),
(502.2,400.1,l),
(497.8,400.1,l),
(297.8,0,l)
);
},
{
closed = 1;
nodes = (
(202.2,0,l),
(500,595.5,l),
(797.8,0,l),
(802.2,0,l),
(500,604.5,l),
(197.8,0,l)
);
},
{
closed = 1;
nodes = (
(202.2,1000,l),
(197.8,1000,l),
(0,604.3,l),
(0,595.5,l)
);
},
{
closed = 1;
nodes = (
(102.2,0,l),
(500,795.5,l),
(897.8,0,l),
(902.2,0,l),
(500,804.5,l),
(97.8,0,l)
);
},
{
closed = 1;
nodes = (
(102.2,1000,l),
(97.8,1000,l),
(0,804.5,l),
(0,795.5,l)
);
},
{
closed = 1;
nodes = (
(402.2,0,l),
(500,195.5,l),
(597.8,0,l),
(602.2,0,l),
(502.2,200,l),
(497.8,200,l),
(397.8,0,l)
);
},
{
closed = 1;
nodes = (
(500,995.5,l),
(996.8,2,l),
(3.2,2,l)
);
},
{
closed = 1;
nodes = (
(1000,198,l),
(1000,204.5,l),
(602.2,1000,l),
(597.8,1000,l),
(996.8,202,l),
(3.2,202,l),
(402.2,1000,l),
(397.8,1000,l),
(0,204.4,l),
(0,198,l)
);
},
{
closed = 1;
nodes = (
(1000,398,l),
(1000,404.6,l),
(702.2,1000,l),
(697.8,1000,l),
(996.8,402,l),
(3.2,402,l),
(302.2,1000,l),
(297.8,1000,l),
(0,404.4,l),
(0,398,l)
);
},
{
closed = 1;
nodes = (
(1000,604.5,l),
(802.236,1000,l),
(797.764,1000,l),
(1000,595.5,l)
);
},
{
closed = 1;
nodes = (
(1000,804.5,l),
(902.236,1000,l),
(897.764,1000,l),
(1000,795.5,l)
);
}
);
width = 1000;
},
{
anchors = (
{
name = top;
pos = (500,1000);
}
);
layerId = m002;
shapes = (
{
closed = 1;
nodes = (
(1016.2,-10,l),
(1006.2,10,l),
(500.1,1022.4,l),
(-6.2,9.9,l),
(-16.2,-10,l)
);
},
{
closed = 1;
nodes = (
(311.18,0,l),
(500,377.639,l),
(688.82,0,l),
(711.18,0,l),
(511.1,400.1,l),
(488.9,400.1,l),
(288.82,0,l)
);
},
{
closed = 1;
nodes = (
(211.18,0,l),
(500,577.639,l),
(788.82,0,l),
(811.18,0,l),
(500,622.361,l),
(188.82,0,l)
);
},
{
closed = 1;
nodes = (
(211.18,1000,l),
(188.82,1000,l),
(0,622.3,l),
(0,577.6,l)
);
},
{
closed = 1;
nodes = (
(111.18,0,l),
(500,777.639,l),
(888.82,0,l),
(911.18,0,l),
(500,822.361,l),
(88.82,0,l)
);
},
{
closed = 1;
nodes = (
(111.18,1000,l),
(88.82,1000,l),
(0,822.4,l),
(-0.1,777.4,l)
);
},
{
closed = 1;
nodes = (
(411.18,0,l),
(500,177.639,l),
(588.82,0,l),
(611.18,0,l),
(511.2,199.9,l),
(488.8,199.9,l),
(388.82,0,l)
);
},
{
closed = 1;
nodes = (
(500.1,977.6,l),
(983.8,10,l),
(16.2,10,l)
);
},
{
closed = 1;
nodes = (
(1016.179,190,l),
(1006.1,210.1,l),
(611.3,999.9,l),
(588.9,1000,l),
(983.821,210,l),
(16.182,210,l),
(411.3,1000,l),
(389,1000,l),
(-6.2,210,l),
(-16.182,190,l)
);
},
{
closed = 1;
nodes = (
(1016.2,390,l),
(1006.2,410,l),
(711.2,1000,l),
(689,1000,l),
(983.8,410,l),
(16.2,410,l),
(311.2,1000,l),
(288.8,999.9,l),
(-6.2,410,l),
(-16.2,390,l)
);
},
{
closed = 1;
nodes = (
(999.9,622.6,l),
(811.18,1000,l),
(788.82,1000,l),
(1000,577.6,l)
);
},
{
closed = 1;
nodes = (
(1000,822.3,l),
(911.18,1000,l),
(888.82,1000,l),
(1000.1,777.4,l)
);
}
);
width = 1000;
}
);
unicode = 65;
},
{
glyphname = B;
lastChange = "2023-12-13 21:22:00 +0000";
layers = (
{
layerId = m01;
shapes = (
{
closed = 0;
nodes = (
(650,0,l),
(0,0,l)
);
},
{
closed = 0;
nodes = (
(650,100,l),
(0,100,l)
);
},
{
closed = 0;
nodes = (
(650,200,l),
(0,200,l)
);
},
{
closed = 0;
nodes = (
(650,300,l),
(0,300,l)
);
},
{
closed = 0;
nodes = (
(650,400,l),
(0,400,l)
);
},
{
closed = 0;
nodes = (
(650,500,l),
(0,500,l)
);
},
{
closed = 0;
nodes = (
(650,600,l),
(0,600,l)
);
},
{
closed = 0;
nodes = (
(650,700,l),
(0,700,l)
);
},
{
closed = 0;
nodes = (
(650,800,l),
(0,800,l)
);
},
{
closed = 0;
nodes = (
(650,900,l),
(0,900,l)
);
},
{
closed = 0;
nodes = (
(650,1000,l),
(0,1000,l)
);
},
{
closed = 1;
nodes = (
(1000,156.7,o),
(843.3,0,o),
(650,0,c),
(456.7,0,o),
(300,156.7,o),
(300,350,c),
(300,543.3,o),
(456.7,700,o),
(650,700,c),
(843.3,700,o),
(1000,543.3,o),
(1000,350,c)
);
},
{
closed = 1;
nodes = (
(900,211.9,o),
(788.1,100,o),
(650,100,c),
(511.9,100,o),
(400,211.9,o),
(400,350,c),
(400,488.1,o),
(511.9,600,o),
(650,600,c),
(788.1,600,o),
(900,488.1,o),
(900,350,c)
);
},
{
closed = 1;
nodes = (
(800,267.2,o),
(732.8,200,o),
(650,200,c),
(567.2,200,o),
(500,267.2,o),
(500,350,c),
(500,432.8,o),
(567.2,500,o),
(650,500,c),
(732.8,500,o),
(800,432.8,o),
(800,350,c)
);
},
{
closed = 1;
nodes = (
(700,322.4,o),
(677.6,300,o),
(650,300,c),
(622.4,300,o),
(600,322.4,o),
(600,350,c),
(600,377.6,o),
(622.4,400,o),
(650,400,c),
(677.6,400,o),
(700,377.6,o),
(700,350,c)
);
},
{
closed = 1;
nodes = (
(1000,456.7,o),
(843.3,300,o),
(650,300,c),
(456.7,300,o),
(300,456.7,o),
(300,650,c),
(300,843.3,o),
(456.7,1000,o),
(650,1000,c),
(843.3,1000,o),
(1000,843.3,o),
(1000,650,c)
);
},
{
closed = 1;
nodes = (
(900,511.9,o),
(788.1,400,o),
(650,400,c),
(511.9,400,o),
(400,511.9,o),
(400,650,c),
(400,788.1,o),
(511.9,900,o),
(650,900,c),
(788.1,900,o),
(900,788.1,o),
(900,650,c)
);
},
{
closed = 1;
nodes = (
(800,567.2,o),
(732.8,500,o),
(650,500,c),
(567.2,500,o),
(500,567.2,o),
(500,650,c),
(500,732.8,o),
(567.2,800,o),
(650,800,c),
(732.8,800,o),
(800,732.8,o),
(800,650,c)
);
},
{
closed = 1;
nodes = (
(700,622.4,o),
(677.6,600,o),
(650,600,c),
(622.4,600,o),
(600,622.4,o),
(600,650,c),
(600,677.6,o),
(622.4,700,o),
(650,700,c),
(677.6,700,o),
(700,677.6,o),
(700,650,c)
);
}
);
width = 1000;
},
{
layerId = m002;
shapes = (
{
closed = 1;
nodes = (
(650,-10,l),
(650,10,l),
(0,10,l),
(0,-10,l)
);
},
{
closed = 1;
nodes = (
(650,90,l),
(650,110,l),
(0,110,l),
(0,90,l)
);
},
{
closed = 1;
nodes = (
(650,190,l),
(650,210,l),
(0,210,l),
(0,190,l)
);
},
{
closed = 1;
nodes = (
(650,290,l),
(650,310,l),
(0,310,l),
(0,290,l)
);
},
{
closed = 1;
nodes = (
(650,390,l),
(650,410,l),
(0,410,l),
(0,390,l)
);
},
{
closed = 1;
nodes = (
(650,490,l),
(650,510,l),
(0,510,l),
(0,490,l)
);
},
{
closed = 1;
nodes = (
(650,590,l),
(650,610,l),
(0,610,l),
(0,590,l)
);
},
{
closed = 1;
nodes = (
(650,690,l),
(650,710,l),
(0,710,l),
(0,690,l)
);
},
{
closed = 1;
nodes = (
(650,790,l),
(650,810,l),
(0,810,l),
(0,790,l)
);
},
{
closed = 1;
nodes = (
(650,890,l),
(650,910,l),
(0,910,l),
(0,890,l)
);
},
{
closed = 1;
nodes = (
(650,990,l),
(650,1010,l),
(0,1010,l),
(0,990,l)
);
},
{
closed = 1;
nodes = (
(990,162.242,o),
(837.758,10,o),
(650,10,cs),
(462.242,10,o),
(310,162.242,o),
(310,350,cs),
(310,537.758,o),
(462.242,690,o),
(650,690,cs),
(837.758,690,o),
(990,537.758,o),
(990,350,cs)
);
},
{
closed = 1;
nodes = (
(1010,548.842,o),
(848.842,710,o),
(650,710,cs),
(451.158,710,o),
(290,548.842,o),
(290,350,cs),
(290,151.158,o),
(451.158,-10,o),
(650,-10,cs),
(848.842,-10,o),
(1010,151.158,o),
(1010,350,cs)
);
},
{
closed = 1;
nodes = (
(890,217.442,o),
(782.558,110,o),
(650,110,cs),
(517.442,110,o),
(410,217.442,o),
(410,350,cs),
(410,482.558,o),
(517.442,590,o),
(650,590,cs),
(782.558,590,o),
(890,482.558,o),
(890,350,cs)
);
},
{
closed = 1;
nodes = (
(910,493.642,o),
(793.642,610,o),
(650,610,cs),
(506.358,610,o),
(390,493.642,o),
(390,350,cs),
(390,206.358,o),
(506.358,90,o),
(650,90,cs),
(793.642,90,o),
(910,206.358,o),
(910,350,cs)
);
},
{
closed = 1;
nodes = (
(790,272.742,o),
(727.258,210,o),
(650,210,cs),
(572.742,210,o),
(510,272.742,o),
(510,350,cs),
(510,427.258,o),
(572.742,490,o),
(650,490,cs),
(727.258,490,o),
(790,427.258,o),
(790,350,cs)
);
},
{
closed = 1;
nodes = (
(810,438.342,o),
(738.342,510,o),
(650,510,cs),
(561.658,510,o),
(490,438.342,o),
(490,350,cs),
(490,261.658,o),
(561.658,190,o),
(650,190,cs),
(738.342,190,o),
(810,261.658,o),
(810,350,cs)
);
},
{
closed = 1;
nodes = (
(690,327.942,o),
(672.058,310,o),
(650,310,cs),
(627.942,310,o),
(610,327.942,o),
(610,350,cs),
(610,372.058,o),
(627.942,390,o),
(650,390,cs),
(672.058,390,o),
(690,372.058,o),
(690,350,cs)
);
},
{
closed = 1;
nodes = (
(710,383.142,o),
(683.142,410,o),
(650,410,cs),
(616.858,410,o),
(590,383.142,o),
(590,350,cs),
(590,316.858,o),
(616.858,290,o),
(650,290,cs),
(683.142,290,o),
(710,316.858,o),
(710,350,cs)
);
},
{
closed = 1;
nodes = (
(990,462.242,o),
(837.758,310,o),
(650,310,cs),
(462.242,310,o),
(310,462.242,o),
(310,650,cs),
(310,837.758,o),
(462.242,990,o),
(650,990,cs),
(837.758,990,o),
(990,837.758,o),
(990,650,cs)
);
},
{
closed = 1;
nodes = (
(1010,848.842,o),
(848.842,1010,o),
(650,1010,cs),
(451.158,1010,o),
(290,848.842,o),
(290,650,cs),
(290,451.158,o),
(451.158,290,o),
(650,290,cs),
(848.842,290,o),
(1010,451.158,o),
(1010,650,cs)
);
},
{
closed = 1;
nodes = (
(890,517.442,o),
(782.558,410,o),
(650,410,cs),
(517.442,410,o),
(410,517.442,o),
(410,650,cs),
(410,782.558,o),
(517.442,890,o),
(650,890,cs),
(782.558,890,o),
(890,782.558,o),
(890,650,cs)
);
},
{
closed = 1;
nodes = (
(910,793.642,o),
(793.642,910,o),
(650,910,cs),
(506.358,910,o),
(390,793.642,o),
(390,650,cs),
(390,506.358,o),
(506.358,390,o),
(650,390,cs),
(793.642,390,o),
(910,506.358,o),
(910,650,cs)
);
},
{
closed = 1;
nodes = (
(790,572.742,o),
(727.258,510,o),
(650,510,cs),
(572.742,510,o),
(510,572.742,o),
(510,650,cs),
(510,727.258,o),
(572.742,790,o),
(650,790,cs),
(727.258,790,o),
(790,727.258,o),
(790,650,cs)
);
},
{
closed = 1;
nodes = (
(810,738.342,o),
(738.342,810,o),
(650,810,cs),
(561.658,810,o),
(490,738.342,o),
(490,650,cs),
(490,561.658,o),
(561.658,490,o),
(650,490,cs),
(738.342,490,o),
(810,561.658,o),
(810,650,cs)
);
},
{
closed = 1;
nodes = (
(690,627.942,o),
(672.058,610,o),
(650,610,cs),
(627.942,610,o),
(610,627.942,o),
(610,650,cs),
(610,672.058,o),
(627.942,690,o),
(650,690,cs),
(672.058,690,o),
(690,672.058,o),
(690,650,cs)
);
},
{
closed = 1;
nodes = (
(710,683.142,o),
(683.142,710,o),
(650,710,cs),
(616.858,710,o),
(590,683.142,o),
(590,650,cs),
(590,616.858,o),
(616.858,590,o),
(650,590,cs),
(683.142,590,o),
(710,616.858,o),
(710,650,cs)
);
}
);
width = 1000;
},
{
layerId = m003;
shapes = (
{
closed = 1;
nodes = (
(650,-2,l),
(650,2,l),
(0,2,l),
(0,-2,l)
);
},
{
closed = 1;
nodes = (
(650,98,l),
(650,102,l),
(0,102,l),
(0,98,l)
);
},
{
closed = 1;
nodes = (
(650,198,l),
(650,202,l),
(0,202,l),
(0,198,l)
);
},
{
closed = 1;
nodes = (
(650,298,l),
(650,302,l),
(0,302,l),
(0,298,l)
);
},
{
closed = 1;
nodes = (
(650,398,l),
(650,402,l),
(0,402,l),
(0,398,l)
);
},
{
closed = 1;
nodes = (
(650,498,l),
(650,502,l),
(0,502,l),
(0,498,l)
);
},
{
closed = 1;
nodes = (
(650,598,l),
(650,602,l),
(0,602,l),
(0,598,l)
);
},
{
closed = 1;
nodes = (
(650,698,l),
(650,702,l),
(0,702,l),
(0,698,l)
);
},
{
closed = 1;
nodes = (
(650,798,l),
(650,802,l),
(0,802,l),
(0,798,l)
);
},
{
closed = 1;
nodes = (
(650,898,l),
(650,902,l),
(0,902,l),
(0,898,l)
);
},
{
closed = 1;
nodes = (
(650,998,l),
(650,1002,l),
(0,1002,l),
(0,998,l)
);
},
{
closed = 1;
nodes = (
(998,157.728,o),
(842.272,2,o),
(650,2,cs),
(457.728,2,o),
(302,157.728,o),
(302,350,cs),
(302,542.272,o),
(457.728,698,o),
(650,698,cs),
(842.272,698,o),
(998,542.272,o),
(998,350,cs)
);
},
{
closed = 1;
nodes = (
(1002,544.328,o),
(844.328,702,o),
(650,702,cs),
(455.672,702,o),
(298,544.328,o),
(298,350,cs),
(298,155.672,o),
(455.672,-2,o),
(650,-2,cs),
(844.328,-2,o),
(1002,155.672,o),
(1002,350,cs)
);
},
{
closed = 1;
nodes = (
(898,212.928,o),
(787.072,102,o),
(650,102,cs),
(512.928,102,o),
(402,212.928,o),
(402,350,cs),
(402,487.072,o),
(512.928,598,o),
(650,598,cs),
(787.072,598,o),
(898,487.072,o),
(898,350,cs)
);
},
{
closed = 1;
nodes = (
(902,489.128,o),
(789.128,602,o),
(650,602,cs),
(510.872,602,o),
(398,489.128,o),
(398,350,cs),
(398,210.872,o),
(510.872,98,o),
(650,98,cs),
(789.128,98,o),
(902,210.872,o),
(902,350,cs)
);
},
{
closed = 1;
nodes = (
(798,268.228,o),
(731.772,202,o),
(650,202,cs),
(568.228,202,o),
(502,268.228,o),
(502,350,cs),
(502,431.772,o),
(568.228,498,o),
(650,498,cs),
(731.772,498,o),
(798,431.772,o),
(798,350,cs)
);
},
{
closed = 1;
nodes = (
(802,433.828,o),
(733.828,502,o),
(650,502,cs),
(566.172,502,o),
(498,433.828,o),
(498,350,cs),
(498,266.172,o),
(566.172,198,o),
(650,198,cs),
(733.828,198,o),
(802,266.172,o),
(802,350,cs)
);
},
{
closed = 1;
nodes = (
(698,323.428,o),
(676.572,302,o),
(650,302,cs),
(623.428,302,o),
(602,323.428,o),
(602,350,cs),
(602,376.572,o),
(623.428,398,o),
(650,398,cs),
(676.572,398,o),
(698,376.572,o),
(698,350,cs)
);
},
{
closed = 1;
nodes = (
(702,378.628,o),
(678.628,402,o),
(650,402,cs),
(621.372,402,o),
(598,378.628,o),
(598,350,cs),
(598,321.372,o),
(621.372,298,o),
(650,298,cs),
(678.628,298,o),
(702,321.372,o),
(702,350,cs)
);
},
{
closed = 1;
nodes = (
(998,457.728,o),
(842.272,302,o),
(650,302,cs),
(457.728,302,o),
(302,457.728,o),
(302,650,cs),
(302,842.272,o),
(457.728,998,o),
(650,998,cs),
(842.272,998,o),
(998,842.272,o),
(998,650,cs)
);
},
{
closed = 1;
nodes = (
(1002,844.328,o),
(844.328,1002,o),
(650,1002,cs),
(455.672,1002,o),
(298,844.328,o),
(298,650,cs),
(298,455.672,o),
(455.672,298,o),
(650,298,cs),
(844.328,298,o),
(1002,455.672,o),
(1002,650,cs)
);
},
{
closed = 1;
nodes = (
(898,512.928,o),
(787.072,402,o),
(650,402,cs),
(512.928,402,o),
(402,512.928,o),
(402,650,cs),
(402,787.072,o),
(512.928,898,o),
(650,898,cs),
(787.072,898,o),
(898,787.072,o),
(898,650,cs)
);
},
{
closed = 1;
nodes = (
(902,789.128,o),
(789.128,902,o),
(650,902,cs),
(510.872,902,o),
(398,789.128,o),
(398,650,cs),
(398,510.872,o),
(510.872,398,o),
(650,398,cs),
(789.128,398,o),
(902,510.872,o),
(902,650,cs)
);
},
{
closed = 1;
nodes = (
(798,568.228,o),
(731.772,502,o),
(650,502,cs),
(568.228,502,o),
(502,568.228,o),
(502,650,cs),
(502,731.772,o),
(568.228,798,o),
(650,798,cs),
(731.772,798,o),
(798,731.772,o),
(798,650,cs)
);
},
{
closed = 1;
nodes = (
(802,733.828,o),
(733.828,802,o),
(650,802,cs),
(566.172,802,o),
(498,733.828,o),
(498,650,cs),
(498,566.172,o),
(566.172,498,o),
(650,498,cs),
(733.828,498,o),
(802,566.172,o),
(802,650,cs)
);
},
{
closed = 1;
nodes = (
(698,623.428,o),
(676.572,602,o),
(650,602,cs),
(623.428,602,o),
(602,623.428,o),
(602,650,cs),
(602,676.572,o),
(623.428,698,o),
(650,698,cs),
(676.572,698,o),
(698,676.572,o),
(698,650,cs)
);
},
{
closed = 1;
nodes = (
(702,678.628,o),
(678.628,702,o),
(650,702,cs),
(621.372,702,o),
(598,678.628,o),
(598,650,cs),
(598,621.372,o),
(621.372,598,o),
(650,598,cs),
(678.628,598,o),
(702,621.372,o),
(702,650,cs)
);
}
);
width = 1000;
}
);
unicode = 66;
},
{
glyphname = C;
lastChange = "2023-12-13 21:22:00 +0000";
layers = (
{
layerId = m01;
shapes = (
{
closed = 0;
nodes = (
(1000,0,l),
(500,0,ls),
(223.9,0,o),
(0,223.9,o),
(0,500,cs),
(0,776.1,o),
(223.9,1000,o),
(500,1000,cs),
(1000,1000,l)
);
},
{
closed = 0;
nodes = (
(1000,100,l),
(500,100,ls),
(279.1,100,o),
(100,279.1,o),
(100,500,cs),
(100,720.9,o),
(279.1,900,o),
(500,900,cs),
(1000,900,l)
);
},
{
closed = 0;
nodes = (
(1000,200,l),
(500,200,ls),
(334.3,200,o),
(200,334.3,o),
(200,500,cs),
(200,665.7,o),
(334.3,800,o),
(500,800,cs),
(1000,800,l)
);
},
{
closed = 0;
nodes = (
(1000,300,l),
(500,300,ls),
(389.5,300,o),
(300,389.5,o),
(300,500,cs),
(300,610.5,o),
(389.5,700,o),
(500,700,cs),
(1000,700,l)
);
},
{
closed = 0;
nodes = (
(1000,400,l),
(500,400,ls),
(444.8,400,o),
(400,444.8,o),
(400,500,cs),
(400,555.2,o),
(444.8,600,o),
(500,600,cs),
(1000,600,l)
);
},
{
closed = 0;
nodes = (
(0,1000,l),
(0,0,l)
);
},
{
closed = 0;
nodes = (
(100,1000,l),
(100,0,l)
);
},
{
closed = 0;
nodes = (
(200,1000,l),
(200,0,l)
);
},
{
closed = 0;
nodes = (
(300,1000,l),
(300,0,l)
);
},
{
closed = 0;
nodes = (
(400,1000,l),
(400,0,l)
);
},
{
closed = 0;
nodes = (
(500,1000,l),
(500,0,l)
);
},
{
closed = 0;
nodes = (
(500,500,l),
(1000,500,l)
);
}
);
width = 1000;
},
{
layerId = m002;
shapes = (
{
closed = 1;
nodes = (
(500,1010,ls),
(218.358,1010,o),
(-10,781.642,o),
(-10,500,cs),
(-10,218.358,o),
(218.358,-10,o),
(500,-10,cs),
(1000,-10,l),
(1000,10,l),
(500,10,ls),
(229.442,10,o),
(10,229.442,o),
(10,500,cs),
(10,770.558,o),
(229.442,990,o),
(500,990,cs),
(1000,990,l),
(1000,1010,l)
);
},
{
closed = 1;
nodes = (
(500,910,ls),
(273.558,910,o),
(90,726.442,o),
(90,500,cs),
(90,273.558,o),
(273.558,90,o),
(500,90,cs),
(1000,90,l),
(1000,110,l),
(500,110,ls),
(284.642,110,o),
(110,284.642,o),
(110,500,cs),
(110,715.358,o),
(284.642,890,o),
(500,890,cs),
(1000,890,l),
(1000,910,l)
);
},
{
closed = 1;
nodes = (
(500,810,ls),
(328.758,810,o),
(190,671.242,o),
(190,500,cs),
(190,328.758,o),
(328.758,190,o),
(500,190,cs),
(1000,190,l),
(1000,210,l),
(500,210,ls),
(339.842,210,o),
(210,339.842,o),
(210,500,cs),
(210,660.158,o),
(339.842,790,o),
(500,790,cs),
(1000,790,l),
(1000,810,l)
);
},
{
closed = 1;
nodes = (
(500,710,ls),
(383.958,710,o),
(290,616.042,o),
(290,500,cs),
(290,383.958,o),
(383.958,290,o),
(500,290,cs),
(1000,290,l),
(1000,310,l),
(500,310,ls),
(395.042,310,o),
(310,395.042,o),
(310,500,cs),
(310,604.958,o),
(395.042,690,o),
(500,690,cs),
(1000,690,l),
(1000,710,l)
);
},
{
closed = 1;
nodes = (
(500,610,ls),
(439.258,610,o),
(390,560.742,o),
(390,500,cs),
(390,439.258,o),
(439.258,390,o),
(500,390,cs),
(1000,390,l),
(1000,410,l),
(500,410,ls),
(450.342,410,o),
(410,450.342,o),
(410,500,cs),
(410,549.658,o),
(450.342,590,o),
(500,590,cs),
(1000,590,l),
(1000,610,l)
);
},
{
closed = 1;
nodes = (
(10,1000,l),
(-10,1000,l),
(-10,0,l),
(10,0,l)
);
},
{
closed = 1;
nodes = (
(110,1000,l),
(90,1000,l),
(90,0,l),
(110,0,l)
);
},
{
closed = 1;
nodes = (
(210,1000,l),
(190,1000,l),
(190,0,l),
(210,0,l)
);
},
{
closed = 1;
nodes = (
(310,1000,l),
(290,1000,l),
(290,0,l),
(310,0,l)
);
},
{
closed = 1;
nodes = (
(410,1000,l),
(390,1000,l),
(390,0,l),
(410,0,l)
);
},
{
closed = 1;
nodes = (
(510,1000,l),
(490,1000,l),
(490,0,l),
(510,0,l)
);
},
{
closed = 1;
nodes = (
(500,510,l),
(500,490,l),
(1000,490,l),
(1000,510,l)
);
}
);
width = 1000;
},
{
layerId = m003;
shapes = (
{
closed = 1;
nodes = (
(500,1002,ls),
(222.872,1002,o),
(-2,777.128,o),
(-2,500,cs),
(-2,222.872,o),
(222.872,-2,o),
(500,-2,cs),
(1000,-2,l),
(1000,2,l),
(500,2,ls),
(224.928,2,o),
(2,224.928,o),
(2,500,cs),
(2,775.072,o),
(224.928,998,o),
(500,998,cs),
(1000,998,l),
(1000,1002,l)
);
},
{
closed = 1;
nodes = (
(500,902,ls),
(278.072,902,o),
(98,721.928,o),
(98,500,cs),
(98,278.072,o),
(278.072,98,o),
(500,98,cs),
(1000,98,l),
(1000,102,l),
(500,102,ls),
(280.128,102,o),
(102,280.128,o),
(102,500,cs),
(102,719.872,o),
(280.128,898,o),
(500,898,cs),
(1000,898,l),
(1000,902,l)
);
},
{
closed = 1;
nodes = (
(500,802,ls),
(333.272,802,o),
(198,666.728,o),
(198,500,cs),
(198,333.272,o),
(333.272,198,o),
(500,198,cs),
(1000,198,l),
(1000,202,l),
(500,202,ls),
(335.328,202,o),
(202,335.328,o),
(202,500,cs),
(202,664.672,o),
(335.328,798,o),
(500,798,cs),
(1000,798,l),
(1000,802,l)
);
},
{
closed = 1;
nodes = (
(500,702,ls),
(388.472,702,o),
(298,611.528,o),
(298,500,cs),
(298,388.472,o),
(388.472,298,o),
(500,298,cs),
(1000,298,l),
(1000,302,l),
(500,302,ls),
(390.528,302,o),
(302,390.528,o),
(302,500,cs),
(302,609.472,o),
(390.528,698,o),
(500,698,cs),
(1000,698,l),
(1000,702,l)
);
},
{
closed = 1;
nodes = (
(500,602,ls),
(443.772,602,o),
(398,556.228,o),
(398,500,cs),
(398,443.772,o),
(443.772,398,o),
(500,398,cs),
(1000,398,l),
(1000,402,l),
(500,402,ls),
(445.828,402,o),
(402,445.828,o),
(402,500,cs),
(402,554.172,o),
(445.828,598,o),
(500,598,cs),
(1000,598,l),
(1000,602,l)
);
},
{
closed = 1;
nodes = (
(2,1000,l),
(-2,1000,l),
(-2,0,l),
(2,0,l)
);
},
{
closed = 1;
nodes = (
(102,1000,l),
(98,1000,l),
(98,0,l),
(102,0,l)
);
},
{
closed = 1;
nodes = (
(202,1000,l),
(198,1000,l),
(198,0,l),
(202,0,l)
);
},
{
closed = 1;
nodes = (
(302,1000,l),
(298,1000,l),
(298,0,l),
(302,0,l)
);
},
{
closed = 1;
nodes = (
(402,1000,l),
(398,1000,l),
(398,0,l),
(402,0,l)
);
},
{
closed = 1;
nodes = (
(502,1000,l),
(498,1000,l),
(498,0,l),
(502,0,l)
);
},
{
closed = 1;
nodes = (
(500,502,l),
(500,498,l),
(1000,498,l),
(1000,502,l)
);
}
);
width = 1000;
}
);
unicode = 67;
},
{
glyphname = D;
lastChange = "2023-12-13 21:22:00 +0000";
layers = (
{
layerId = m01;
shapes = (
{
closed = 0;
nodes = (
(0,1000,l),
(500,1000,ls),
(776.1,1000,o),
(1000,776.1,o),
(1000,500,cs),
(1000,223.9,o),
(776.1,0,o),
(500,0,cs),
(0,0,l)
);
},
{
closed = 0;
nodes = (
(0,900,l),
(500,900,ls),
(720.9,900,o),
(900,720.9,o),
(900,500,cs),
(900,279.1,o),
(720.9,100,o),
(500,100,cs),
(0,100,l)
);
},
{
closed = 0;
nodes = (
(0,800,l),
(500,800,ls),
(665.7,800,o),
(800,665.7,o),
(800,500,cs),
(800,334.3,o),
(665.7,200,o),
(500,200,cs),
(0,200,l)
);
},
{
closed = 0;
nodes = (
(0,700,l),
(500,700,ls),
(610.5,700,o),
(700,610.5,o),
(700,500,cs),
(700,389.5,o),
(610.5,300,o),
(500,300,cs),
(0,300,l)
);
},
{
closed = 0;
nodes = (
(0,600,l),
(500,600,ls),
(555.2,600,o),
(600,555.2,o),
(600,500,cs),
(600,444.8,o),
(555.2,400,o),
(500,400,cs),
(0,400,l)
);
},
{
closed = 0;
nodes = (
(0,500,l),
(500,500,l)
);
},
{
closed = 0;
nodes = (
(500,1000,l),
(500,723.9,o),
(276.1,500,o),
(0,500,c)
);
},
{
closed = 0;
nodes = (
(400,1000,l),
(400,779.1,o),
(220.9,600,o),
(0,600,c)
);
},
{
closed = 0;
nodes = (
(300,1000,l),
(300,834.3,o),
(165.7,700,o),
(0,700,c)
);
},
{
closed = 0;
nodes = (
(200,1000,l),
(200,889.5,o),
(110.5,800,o),
(0,800,c)
);
},
{
closed = 0;
nodes = (
(100,1000,l),
(100,944.8,o),
(55.2,900,o),
(0,900,c)
);
},
{
closed = 0;
nodes = (
(0,500,l),
(276.1,500,o),
(500,276.1,o),
(500,0,c)
);
},
{
closed = 0;
nodes = (
(0,400,l),
(220.9,400,o),
(400,220.9,o),
(400,0,c)
);
},
{
closed = 0;
nodes = (
(0,300,l),
(165.7,300,o),
(300,165.7,o),
(300,0,c)
);
},
{
closed = 0;
nodes = (
(0,200,l),
(110.5,200,o),
(200,110.5,o),
(200,0,c)
);
},
{
closed = 0;
nodes = (
(0,100,l),
(55.2,100,o),
(100,55.2,o),
(100,0,c)
);
}
);
width = 1000;
},
{
layerId = m002;
shapes = (
{
closed = 1;
nodes = (
(500,-10,ls),
(781.642,-10,o),
(1010,218.358,o),
(1010,500,cs),
(1010,781.642,o),
(781.642,1010,o),
(500,1010,cs),
(0,1010,l),
(0,990,l),
(500,990,ls),
(770.558,990,o),
(990,770.558,o),
(990,500,cs),
(990,229.442,o),
(770.558,10,o),
(500,10,cs),
(0,10,l),
(0,-10,l)
);
},
{
closed = 1;
nodes = (
(500,90,ls),
(726.442,90,o),
(910,273.558,o),
(910,500,cs),
(910,726.442,o),
(726.442,910,o),
(500,910,cs),
(0,910,l),
(0,890,l),
(500,890,ls),
(715.358,890,o),
(890,715.358,o),
(890,500,cs),
(890,284.642,o),
(715.358,110,o),
(500,110,cs),
(0,110,l),
(0,90,l)
);
},
{
closed = 1;
nodes = (
(500,190,ls),
(671.242,190,o),
(810,328.758,o),
(810,500,cs),
(810,671.242,o),
(671.242,810,o),
(500,810,cs),
(0,810,l),
(0,790,l),
(500,790,ls),
(660.158,790,o),
(790,660.158,o),
(790,500,cs),
(790,339.842,o),
(660.158,210,o),
(500,210,cs),
(0,210,l),
(0,190,l)
);
},
{
closed = 1;
nodes = (
(500,290,ls),
(616.042,290,o),
(710,383.958,o),
(710,500,cs),
(710,616.042,o),
(616.042,710,o),
(500,710,cs),
(0,710,l),
(0,690,l),
(500,690,ls),
(604.958,690,o),
(690,604.958,o),
(690,500,cs),
(690,395.042,o),
(604.958,310,o),
(500,310,cs),
(0,310,l),
(0,290,l)
);
},
{
closed = 1;
nodes = (
(500,390,ls),
(560.742,390,o),
(610,439.258,o),
(610,500,cs),
(610,560.742,o),
(560.742,610,o),
(500,610,cs),
(0,610,l),
(0,590,l),
(500,590,ls),
(549.658,590,o),
(590,549.658,o),
(590,500,cs),
(590,450.342,o),
(549.658,410,o),
(500,410,cs),
(0,410,l),
(0,390,l)
);
},
{
closed = 1;
nodes = (
(0,510,l),
(0,490,l),
(500,490,l),
(500,510,l)
);
},
{
closed = 1;
nodes = (
(281.642,490,o),
(510,718.358,o),
(510,1000,c),
(490,1000,l),
(490,729.442,o),
(270.558,510,o),
(0,510,c),
(0,490,l)
);
},
{
closed = 1;
nodes = (
(226.442,590,o),
(410,773.558,o),
(410,1000,c),
(390,1000,l),
(390,784.642,o),
(215.358,610,o),
(0,610,c),
(0,590,l)
);
},
{
closed = 1;
nodes = (
(171.242,690,o),
(310,828.758,o),
(310,1000,c),
(290,1000,l),
(290,839.842,o),
(160.158,710,o),
(0,710,c),
(0,690,l)
);
},
{
closed = 1;
nodes = (
(116.042,790,o),
(210,883.958,o),
(210,1000,c),
(190,1000,l),
(190,895.042,o),
(104.958,810,o),
(0,810,c),
(0,790,l)
);
},
{
closed = 1;
nodes = (
(60.742,890,o),
(110,939.258,o),
(110,1000,c),
(90,1000,l),
(90,950.342,o),
(49.658,910,o),
(0,910,c),
(0,890,l)
);
},
{
closed = 1;
nodes = (
(510,281.642,o),
(281.642,510,o),
(0,510,c),
(0,490,l),
(270.558,490,o),
(490,270.558,o),
(490,0,c),
(510,0,l)
);
},
{
closed = 1;
nodes = (
(410,226.442,o),
(226.442,410,o),
(0,410,c),
(0,390,l),
(215.358,390,o),
(390,215.358,o),
(390,0,c),
(410,0,l)
);
},
{
closed = 1;
nodes = (
(310,171.242,o),
(171.242,310,o),
(0,310,c),
(0,290,l),
(160.158,290,o),
(290,160.158,o),
(290,0,c),
(310,0,l)
);
},
{
closed = 1;
nodes = (
(210,116.042,o),
(116.042,210,o),
(0,210,c),
(0,190,l),
(104.958,190,o),
(190,104.958,o),
(190,0,c),
(210,0,l)
);
},
{
closed = 1;
nodes = (
(110,60.742,o),
(60.742,110,o),
(0,110,c),
(0,90,l),
(49.658,90,o),
(90,49.658,o),
(90,0,c),
(110,0,l)
);
}
);
width = 1000;
},
{
layerId = m003;
shapes = (
{
closed = 1;
nodes = (
(500,-2,ls),
(777.128,-2,o),
(1002,222.872,o),
(1002,500,cs),
(1002,777.128,o),
(777.128,1002,o),
(500,1002,cs),
(0,1002,l),
(0,998,l),
(500,998,ls),
(775.072,998,o),
(998,775.072,o),
(998,500,cs),
(998,224.928,o),
(775.072,2,o),
(500,2,cs),
(0,2,l),
(0,-2,l)
);
},
{
closed = 1;
nodes = (
(500,98,ls),
(721.928,98,o),
(902,278.072,o),
(902,500,cs),
(902,721.928,o),
(721.928,902,o),
(500,902,cs),
(0,902,l),
(0,898,l),
(500,898,ls),
(719.872,898,o),
(898,719.872,o),
(898,500,cs),
(898,280.128,o),
(719.872,102,o),
(500,102,cs),
(0,102,l),
(0,98,l)
);
},
{
closed = 1;
nodes = (
(500,198,ls),
(666.728,198,o),
(802,333.272,o),
(802,500,cs),
(802,666.728,o),
(666.728,802,o),
(500,802,cs),
(0,802,l),
(0,798,l),
(500,798,ls),
(664.672,798,o),
(798,664.672,o),
(798,500,cs),
(798,335.328,o),
(664.672,202,o),
(500,202,cs),
(0,202,l),
(0,198,l)
);
},
{
closed = 1;
nodes = (
(500,298,ls),
(611.528,298,o),
(702,388.472,o),
(702,500,cs),
(702,611.528,o),
(611.528,702,o),
(500,702,cs),
(0,702,l),
(0,698,l),
(500,698,ls),
(609.472,698,o),
(698,609.472,o),
(698,500,cs),
(698,390.528,o),
(609.472,302,o),
(500,302,cs),
(0,302,l),
(0,298,l)
);
},
{
closed = 1;
nodes = (
(500,398,ls),
(556.228,398,o),
(602,443.772,o),
(602,500,cs),
(602,556.228,o),
(556.228,602,o),
(500,602,cs),
(0,602,l),
(0,598,l),
(500,598,ls),
(554.172,598,o),
(598,554.172,o),
(598,500,cs),
(598,445.828,o),
(554.172,402,o),
(500,402,cs),
(0,402,l),
(0,398,l)
);
},
{
closed = 1;
nodes = (
(0,502,l),
(0,498,l),
(500,498,l),
(500,502,l)
);
},
{
closed = 1;
nodes = (
(277.128,498,o),
(502,722.872,o),
(502,1000,c),
(498,1000,l),
(498,724.928,o),
(275.072,502,o),
(0,502,c),
(0,498,l)
);
},
{
closed = 1;
nodes = (
(221.928,598,o),
(402,778.072,o),
(402,1000,c),
(398,1000,l),
(398,780.128,o),
(219.872,602,o),
(0,602,c),
(0,598,l)
);
},
{
closed = 1;
nodes = (
(166.728,698,o),
(302,833.272,o),
(302,1000,c),
(298,1000,l),
(298,835.328,o),
(164.672,702,o),
(0,702,c),
(0,698,l)
);
},
{
closed = 1;
nodes = (
(111.528,798,o),
(202,888.472,o),
(202,1000,c),
(198,1000,l),
(198,890.528,o),
(109.472,802,o),
(0,802,c),
(0,798,l)
);
},
{
closed = 1;
nodes = (
(56.228,898,o),
(102,943.772,o),
(102,1000,c),
(98,1000,l),
(98,945.828,o),
(54.172,902,o),
(0,902,c),
(0,898,l)
);
},
{
closed = 1;
nodes = (
(502,277.128,o),
(277.128,502,o),
(0,502,c),
(0,498,l),
(275.072,498,o),
(498,275.072,o),
(498,0,c),
(502,0,l)
);
},
{
closed = 1;
nodes = (
(402,221.928,o),
(221.928,402,o),
(0,402,c),
(0,398,l),
(219.872,398,o),
(398,219.872,o),
(398,0,c),
(402,0,l)
);
},
{
closed = 1;
nodes = (
(302,166.728,o),
(166.728,302,o),
(0,302,c),
(0,298,l),
(164.672,298,o),
(298,164.672,o),
(298,0,c),
(302,0,l)
);
},
{
closed = 1;
nodes = (
(202,111.528,o),
(111.528,202,o),
(0,202,c),
(0,198,l),
(109.472,198,o),
(198,109.472,o),
(198,0,c),
(202,0,l)
);
},
{
closed = 1;
nodes = (
(102,56.228,o),
(56.228,102,o),
(0,102,c),
(0,98,l),
(54.172,98,o),
(98,54.172,o),
(98,0,c),
(102,0,l)
);
}
);
width = 1000;
}
);
unicode = 68;
},
{
glyphname = E;
lastChange = "2023-12-13 21:22:00 +0000";
layers = (
{
anchors = (
{
name = top;
pos = (500,1000);
}
);
layerId = m01;
shapes = (
{
closed = 0;
nodes = (
(1000,1000,l),
(200,1000,ls),
(89.5,1000,o),
(0,910.5,o),
(0,800,c),
(0,689.5,o),
(89.5,600,o),
(200,600,c)
);
},
{
closed = 0;
nodes = (
(1000,900,l),
(200,900,ls),
(144.8,900,o),
(100,855.2,o),
(100,800,c),
(100,744.8,o),
(144.8,700,o),
(200,700,c)
);
},
{
closed = 0;
nodes = (
(200,800,l),
(1000,800,l)
);
},
{
closed = 0;
nodes = (
(1000,700,l),
(200,700,ls),
(89.5,700,o),
(0,610.5,o),
(0,500,c),
(0,389.5,o),
(89.5,300,o),
(200,300,c)
);
},
{
closed = 0;
nodes = (
(1000,600,l),
(200,600,ls),
(144.8,600,o),
(100,555.2,o),
(100,500,c),
(100,444.8,o),
(144.8,400,o),
(200,400,c)
);
},
{
closed = 0;
nodes = (
(200,500,l),
(1000,500,l)
);
},
{
closed = 0;
nodes = (
(1000,400,l),
(200,400,ls),
(89.5,400,o),
(0,310.5,o),
(0,200,c),
(0,89.5,o),
(89.5,0,o),
(200,0,cs),
(1000,0,l)
);
},
{
closed = 0;
nodes = (
(1000,300,l),
(200,300,ls),
(144.8,300,o),
(100,255.2,o),
(100,200,c),
(100,144.8,o),
(144.8,100,o),
(200,100,cs),
(1000,100,l)
);
},
{
closed = 0;
nodes = (
(200,200,l),
(1000,200,l)
);
}
);
width = 1000;
},
{
anchors = (
{
name = top;
pos = (500,1000);
}
);
layerId = m002;
shapes = (
{
closed = 1;
nodes = (
(95.042,610,o),
(10,695.042,o),
(10,800,cs),
(10,904.958,o),
(95.042,990,o),
(200,990,cs),
(1000,990,l),
(1000,1010,l),
(200,1010,ls),
(83.958,1010,o),
(-10,916.042,o),
(-10,800,cs),
(-10,683.958,o),
(83.958,590,o),
(200,590,c),
(200,610,l)
);
},
{
closed = 1;
nodes = (
(150.342,710,o),
(110,750.342,o),
(110,800,cs),
(110,849.658,o),
(150.342,890,o),
(200,890,cs),
(1000,890,l),
(1000,910,l),
(200,910,ls),
(139.258,910,o),
(90,860.742,o),
(90,800,cs),
(90,739.258,o),
(139.258,690,o),
(200,690,c),
(200,710,l)
);
},
{
closed = 1;
nodes = (
(200,810,l),
(200,790,l),
(1000,790,l),
(1000,810,l)
);
},
{
closed = 1;
nodes = (
(95.042,310,o),
(10,395.042,o),
(10,500,cs),
(10,604.958,o),
(95.042,690,o),
(200,690,cs),
(1000,690,l),
(1000,710,l),
(200,710,ls),
(83.958,710,o),
(-10,616.042,o),
(-10,500,cs),
(-10,383.958,o),
(83.958,290,o),
(200,290,c),
(200,310,l)
);
},
{
closed = 1;
nodes = (
(150.342,410,o),
(110,450.342,o),
(110,500,cs),
(110,549.658,o),
(150.342,590,o),
(200,590,cs),
(1000,590,l),
(1000,610,l),
(200,610,ls),
(139.258,610,o),
(90,560.742,o),
(90,500,cs),
(90,439.258,o),
(139.258,390,o),
(200,390,c),
(200,410,l)
);
},
{
closed = 1;
nodes = (
(200,510,l),
(200,490,l),
(1000,490,l),
(1000,510,l)
);
},
{
closed = 1;
nodes = (
(200,10,ls),
(95.042,10,o),
(10,95.042,o),
(10,200,cs),
(10,304.958,o),
(95.042,390,o),
(200,390,cs),
(1000,390,l),
(1000,410,l),
(200,410,ls),
(83.958,410,o),
(-10,316.042,o),
(-10,200,cs),
(-10,83.958,o),
(83.958,-10,o),
(200,-10,cs),
(1000,-10,l),
(1000,10,l)
);
},
{
closed = 1;
nodes = (
(200,110,ls),
(150.342,110,o),
(110,150.342,o),
(110,200,cs),
(110,249.658,o),
(150.342,290,o),
(200,290,cs),
(1000,290,l),
(1000,310,l),
(200,310,ls),
(139.258,310,o),
(90,260.742,o),
(90,200,cs),
(90,139.258,o),
(139.258,90,o),
(200,90,cs),
(1000,90,l),
(1000,110,l)
);
},
{
closed = 1;
nodes = (
(200,210,l),
(200,190,l),
(1000,190,l),
(1000,210,l)
);
}
);
width = 1000;
},
{
anchors = (
{
name = top;
pos = (500,1000);
}
);
layerId = m003;
shapes = (
{
closed = 1;
nodes = (
(90.528,602,o),
(2,690.528,o),
(2,800,cs),
(2,909.472,o),
(90.528,998,o),
(200,998,cs),
(1000,998,l),
(1000,1002,l),
(200,1002,ls),
(88.472,1002,o),
(-2,911.528,o),
(-2,800,cs),
(-2,688.472,o),
(88.472,598,o),
(200,598,c),
(200,602,l)
);
},
{
closed = 1;
nodes = (
(145.828,702,o),
(102,745.828,o),
(102,800,cs),
(102,854.172,o),
(145.828,898,o),
(200,898,cs),
(1000,898,l),
(1000,902,l),
(200,902,ls),
(143.772,902,o),
(98,856.228,o),
(98,800,cs),
(98,743.772,o),
(143.772,698,o),
(200,698,c),
(200,702,l)
);
},
{
closed = 1;
nodes = (
(200,802,l),
(200,798,l),
(1000,798,l),
(1000,802,l)
);
},
{
closed = 1;
nodes = (
(90.528,302,o),
(2,390.528,o),
(2,500,cs),
(2,609.472,o),
(90.528,698,o),
(200,698,cs),
(1000,698,l),
(1000,702,l),
(200,702,ls),
(88.472,702,o),
(-2,611.528,o),
(-2,500,cs),
(-2,388.472,o),
(88.472,298,o),
(200,298,c),
(200,302,l)
);
},
{
closed = 1;
nodes = (
(145.828,402,o),
(102,445.828,o),
(102,500,cs),
(102,554.172,o),
(145.828,598,o),
(200,598,cs),
(1000,598,l),
(1000,602,l),
(200,602,ls),
(143.772,602,o),
(98,556.228,o),
(98,500,cs),
(98,443.772,o),
(143.772,398,o),
(200,398,c),
(200,402,l)
);
},
{
closed = 1;
nodes = (
(200,502,l),
(200,498,l),
(1000,498,l),
(1000,502,l)
);
},
{
closed = 1;
nodes = (
(200,2,ls),
(90.528,2,o),
(2,90.528,o),
(2,200,cs),
(2,309.472,o),
(90.528,398,o),
(200,398,cs),
(1000,398,l),
(1000,402,l),
(200,402,ls),
(88.472,402,o),
(-2,311.528,o),
(-2,200,cs),
(-2,88.472,o),
(88.472,-2,o),
(200,-2,cs),
(1000,-2,l),
(1000,2,l)
);
},
{
closed = 1;
nodes = (
(200,102,ls),
(145.828,102,o),
(102,145.828,o),
(102,200,cs),
(102,254.172,o),
(145.828,298,o),
(200,298,cs),
(1000,298,l),
(1000,302,l),
(200,302,ls),
(143.772,302,o),
(98,256.228,o),
(98,200,cs),
(98,143.772,o),
(143.772,98,o),
(200,98,cs),
(1000,98,l),
(1000,102,l)
);
},
{
closed = 1;
nodes = (
(200,202,l),
(200,198,l),
(1000,198,l),
(1000,202,l)
);
}
);
width = 1000;
}
);
unicode = 69;
},
{
glyphname = F;
lastChange = "2023-12-13 21:22:00 +0000";
layers = (
{
layerId = m01;
shapes = (
{
closed = 0;
nodes = (
(1000,1000,l),
(200,1000,ls),
(89.5,1000,o),
(0,910.5,o),
(0,800,cs),
(0,689.5,o),
(89.5,600,o),
(200,600,c)
);
},
{
closed = 0;
nodes = (
(0,500,l),
(0,0,l)
);
},
{
closed = 0;
nodes = (
(1000,900,l),
(200,900,ls),
(144.8,900,o),
(100,855.2,o),
(100,800,cs),
(100,744.8,o),
(144.8,700,o),
(200,700,c)
);
},
{
closed = 0;
nodes = (
(200,800,l),
(1000,800,l)
);
},
{
closed = 0;
nodes = (
(1000,700,l),
(200,700,ls),
(89.5,700,o),
(0,610.5,o),
(0,500,cs),
(0,389.5,o),
(89.5,300,o),
(200,300,cs),
(800,300,l)
);
},
{
closed = 0;
nodes = (
(800,600,l),
(200,600,ls),
(144.8,600,o),
(100,555.2,o),
(100,500,cs),
(100,444.8,o),
(144.8,400,o),
(200,400,cs),
(800,400,l)
);
},
{
closed = 0;
nodes = (
(200,500,l),
(800,500,l)
);
},
{
closed = 0;
nodes = (
(100,500,l),
(100,0,l)
);
},
{
closed = 0;
nodes = (
(200,1000,l),
(200,0,l)
);
},
{
closed = 0;
nodes = (
(300,1000,l),
(300,0,l)
);
},
{
closed = 0;
nodes = (
(400,1000,l),
(400,0,l)
);
},
{
closed = 0;
nodes = (
(500,1000,l),
(500,0,l)
);
}
);
width = 1000;
},
{
layerId = m002;
shapes = (
{
closed = 1;
nodes = (
(95.042,610,o),
(10,695.042,o),
(10,800,cs),
(10,904.958,o),
(95.042,990,o),
(200,990,cs),
(1000,990,l),
(1000,1010,l),
(200,1010,ls),
(83.958,1010,o),
(-10,916.042,o),
(-10,800,cs),
(-10,683.958,o),
(83.958,590,o),
(200,590,c),
(200,610,l)
);
},
{
closed = 1;
nodes = (
(10,500,l),
(-10,500,l),
(-10,0,l),
(10,0,l)
);
},
{
closed = 1;
nodes = (
(150.342,710,o),
(110,750.342,o),
(110,800,cs),
(110,849.658,o),
(150.342,890,o),
(200,890,cs),
(1000,890,l),
(1000,910,l),
(200,910,ls),
(139.258,910,o),
(90,860.742,o),
(90,800,cs),
(90,739.258,o),
(139.258,690,o),
(200,690,c),
(200,710,l)
);
},
{
closed = 1;
nodes = (
(200,810,l),
(200,790,l),
(1000,790,l),
(1000,810,l)
);
},
{
closed = 1;
nodes = (
(200,310,ls),
(95.042,310,o),
(10,395.042,o),
(10,500,cs),
(10,604.958,o),
(95.042,690,o),
(200,690,cs),
(1000,690,l),
(1000,710,l),
(200,710,ls),
(83.958,710,o),
(-10,616.042,o),
(-10,500,cs),
(-10,383.958,o),
(83.958,290,o),
(200,290,cs),
(800,290,l),
(800,310,l)
);
},
{
closed = 1;
nodes = (
(200,410,ls),
(150.342,410,o),
(110,450.342,o),
(110,500,cs),
(110,549.658,o),
(150.342,590,o),
(200,590,cs),
(800,590,l),
(800,610,l),
(200,610,ls),
(139.258,610,o),
(90,560.742,o),
(90,500,cs),
(90,439.258,o),
(139.258,390,o),
(200,390,cs),
(800,390,l),
(800,410,l)
);
},
{
closed = 1;
nodes = (
(200,510,l),
(200,490,l),
(800,490,l),
(800,510,l)
);
},
{
closed = 1;
nodes = (
(110,500,l),
(90,500,l),
(90,0,l),
(110,0,l)
);
},
{
closed = 1;
nodes = (
(210,1000,l),
(190,1000,l),
(190,0,l),
(210,0,l)
);
},
{
closed = 1;
nodes = (
(310,1000,l),
(290,1000,l),
(290,0,l),
(310,0,l)
);
},
{
closed = 1;
nodes = (
(410,1000,l),
(390,1000,l),
(390,0,l),
(410,0,l)
);
},
{
closed = 1;
nodes = (
(510,1000,l),
(490,1000,l),
(490,0,l),
(510,0,l)
);
}
);
width = 1000;
},
{
layerId = m003;
shapes = (
{
closed = 1;
nodes = (
(90.528,602,o),
(2,690.528,o),
(2,800,cs),
(2,909.472,o),
(90.528,998,o),
(200,998,cs),
(1000,998,l),
(1000,1002,l),
(200,1002,ls),
(88.472,1002,o),
(-2,911.528,o),
(-2,800,cs),
(-2,688.472,o),
(88.472,598,o),
(200,598,c),
(200,602,l)
);
},
{
closed = 1;
nodes = (
(2,500,l),
(-2,500,l),
(-2,0,l),
(2,0,l)
);
},
{
closed = 1;
nodes = (
(145.828,702,o),
(102,745.828,o),
(102,800,cs),
(102,854.172,o),
(145.828,898,o),
(200,898,cs),
(1000,898,l),
(1000,902,l),
(200,902,ls),
(143.772,902,o),
(98,856.228,o),
(98,800,cs),
(98,743.772,o),
(143.772,698,o),
(200,698,c),
(200,702,l)
);
},
{
closed = 1;
nodes = (
(200,802,l),
(200,798,l),
(1000,798,l),
(1000,802,l)
);
},
{
closed = 1;
nodes = (
(200,302,ls),
(90.528,302,o),
(2,390.528,o),
(2,500,cs),
(2,609.472,o),
(90.528,698,o),
(200,698,cs),
(1000,698,l),
(1000,702,l),
(200,702,ls),
(88.472,702,o),
(-2,611.528,o),
(-2,500,cs),
(-2,388.472,o),
(88.472,298,o),
(200,298,cs),
(800,298,l),
(800,302,l)
);
},
{
closed = 1;
nodes = (
(200,402,ls),
(145.828,402,o),
(102,445.828,o),
(102,500,cs),
(102,554.172,o),
(145.828,598,o),
(200,598,cs),
(800,598,l),
(800,602,l),
(200,602,ls),
(143.772,602,o),
(98,556.228,o),
(98,500,cs),
(98,443.772,o),
(143.772,398,o),
(200,398,cs),
(800,398,l),
(800,402,l)
);
},
{
closed = 1;
nodes = (
(200,502,l),
(200,498,l),
(800,498,l),
(800,502,l)
);
},
{
closed = 1;
nodes = (
(102,500,l),
(98,500,l),
(98,0,l),
(102,0,l)
);
},
{
closed = 1;
nodes = (
(202,1000,l),
(198,1000,l),
(198,0,l),
(202,0,l)
);
},
{
closed = 1;
nodes = (
(302,1000,l),
(298,1000,l),
(298,0,l),
(302,0,l)
);
},
{
closed = 1;
nodes = (
(402,1000,l),
(398,1000,l),
(398,0,l),
(402,0,l)
);
},
{
closed = 1;
nodes = (
(502,1000,l),
(498,1000,l),
(498,0,l),
(502,0,l)
);
}
);
width = 1000;
}
);
unicode = 70;
},
{
glyphname = G;
lastChange = "2023-12-13 21:22:00 +0000";
layers = (
{
layerId = m01;
shapes = (
{
attr = {
strokeWidth = 11;
};
closed = 0;
nodes = (
(1000,1000,l),
(500,1000,ls),
(223.9,1000,o),
(0,776.1,o),
(0,500,cs),
(0,223.9,o),
(223.9,0,o),
(500,0,cs),
(776.1,0,o),
(1000,223.9,o),
(1000,500,c),
(0,500,l)
);
},
{
attr = {
strokeWidth = 11;
};
closed = 0;
nodes = (
(1000,0,l),
(0,0,l)
);
},
{
attr = {
strokeWidth = 11;
};
closed = 0;
nodes = (
(1000,100,l),
(0,100,l)
);
},
{
attr = {
strokeWidth = 11;
};
closed = 0;
nodes = (
(1000,200,l),
(0,200,l)
);
},
{
attr = {
strokeWidth = 11;
};
closed = 0;
nodes = (
(1000,300,l),
(0,300,l)
);
},
{
attr = {
strokeWidth = 11;
};
closed = 0;
nodes = (
(1000,400,l),
(0,400,l)
);
},
{
attr = {
strokeWidth = 11;
};
closed = 0;
nodes = (
(1000,600,l),
(500,600,ls),
(444.8,600,o),
(400,555.2,o),
(400,500,cs),
(400,444.8,o),
(444.8,400,o),
(500,400,cs),
(555.2,400,o),
(600,444.8,o),
(600,500,c)
);
},
{
attr = {
strokeWidth = 11;
};
closed = 0;
nodes = (
(1000,700,l),
(500,700,ls),
(389.5,700,o),
(300,610.5,o),
(300,500,cs),
(300,389.5,o),
(389.5,300,o),
(500,300,cs),
(610.5,300,o),
(700,389.5,o),
(700,500,c)
);
},
{
attr = {
strokeWidth = 11;
};
closed = 0;
nodes = (
(1000,800,l),
(500,800,ls),
(334.3,800,o),
(200,665.7,o),
(200,500,cs),
(200,334.3,o),
(334.3,200,o),
(500,200,cs),
(665.7,200,o),
(800,334.3,o),
(800,500,c)
);
},
{
attr = {
strokeWidth = 11;
};
closed = 0;
nodes = (
(1000,900,l),
(500,900,ls),
(279.1,900,o),
(100,720.9,o),
(100,500,cs),
(100,279.1,o),
(279.1,100,o),
(500,100,cs),
(720.9,100,o),
(900,279.1,o),
(900,500,c)
);
}
);
width = 1000;
},
{
layerId = m002;
shapes = (
{
closed = 1;
nodes = (
(989.9,490,l),
(984.572,224.056,o),
(767.217,10,o),
(500,10,cs),
(229.442,10,o),
(10,229.442,o),
(10,500,cs),
(10,770.558,o),
(229.442,990,o),
(500,990,cs),
(1000,990,l),
(1000,1010,l),
(500,1010,ls),
(218.358,1010,o),
(-10,781.642,o),
(-10,500,cs),
(-10,218.358,o),
(218.358,-10,o),
(500,-10,cs),
(784.968,-10,o),
(1015.386,223.783,o),
(1009.904,510,c),
(0,510,l),
(0,490,l)
);
},
{
closed = 1;
nodes = (
(1000,-10,l),
(1000,10,l),
(0,10,l),
(0,-10,l)
);
},
{
closed = 1;
nodes = (
(1000,90,l),
(1000,110,l),
(0,110,l),
(0,90,l)
);
},
{
closed = 1;
nodes = (
(1000,190,l),
(1000,210,l),
(0,210,l),
(0,190,l)
);
},
{
closed = 1;
nodes = (
(1000,290,l),
(1000,310,l),
(0,310,l),
(0,290,l)
);
},
{
closed = 1;
nodes = (
(1000,390,l),
(1000,410,l),
(0,410,l),
(0,390,l)
);
},
{
closed = 1;
nodes = (
(590,450.342,o),
(549.658,410,o),
(500,410,cs),
(450.342,410,o),
(410,450.342,o),
(410,500,cs),
(410,549.658,o),
(450.342,590,o),
(500,590,cs),
(1000,590,l),
(1000,610,l),
(500,610,ls),
(439.258,610,o),
(390,560.742,o),
(390,500,cs),
(390,439.258,o),
(439.258,390,o),
(500,390,cs),
(560.742,390,o),
(610,439.258,o),
(610,500,c),
(590,500,l)
);
},
{
closed = 1;
nodes = (
(690,395.042,o),
(604.958,310,o),
(500,310,cs),
(395.042,310,o),
(310,395.042,o),
(310,500,cs),
(310,604.958,o),
(395.042,690,o),
(500,690,cs),
(1000,690,l),
(1000,710,l),
(500,710,ls),
(383.958,710,o),
(290,616.042,o),
(290,500,cs),
(290,383.958,o),
(383.958,290,o),
(500,290,cs),
(616.042,290,o),
(710,383.958,o),
(710,500,c),
(690,500,l)
);
},
{
closed = 1;
nodes = (
(790,339.842,o),
(660.158,210,o),
(500,210,cs),
(339.842,210,o),
(210,339.842,o),
(210,500,cs),
(210,660.158,o),
(339.842,790,o),
(500,790,cs),
(1000,790,l),
(1000,810,l),
(500,810,ls),
(328.758,810,o),
(190,671.242,o),
(190,500,cs),
(190,328.758,o),
(328.758,190,o),
(500,190,cs),
(671.242,190,o),
(810,328.758,o),
(810,500,c),
(790,500,l)
);
},
{
closed = 1;
nodes = (
(890,284.642,o),
(715.358,110,o),
(500,110,cs),
(284.642,110,o),
(110,284.642,o),
(110,500,cs),
(110,715.358,o),
(284.642,890,o),
(500,890,cs),
(1000,890,l),
(1000,910,l),
(500,910,ls),
(273.558,910,o),
(90,726.442,o),
(90,500,cs),
(90,273.558,o),
(273.558,90,o),
(500,90,cs),
(726.442,90,o),
(910,273.558,o),
(910,500,c),
(890,500,l)
);
}
);
width = 1000;
},
{
layerId = m003;
shapes = (
{
closed = 1;
nodes = (
(997.996,498,l),
(996.919,223.849,o),
(774.405,2,o),
(500,2,cs),
(224.928,2,o),
(2,224.928,o),
(2,500,cs),
(2,775.072,o),
(224.928,998,o),
(500,998,cs),
(1000,998,l),
(1000,1002,l),
(500,1002,ls),
(222.872,1002,o),
(-2,777.128,o),
(-2,500,cs),
(-2,222.872,o),
(222.872,-2,o),
(500,-2,cs),
(777.795,-2,o),
(1003.081,223.954,o),
(1001.996,502,c),
(0,502,l),
(0,498,l)
);
},
{
closed = 1;
nodes = (
(1000,-2,l),
(1000,2,l),
(0,2,l),
(0,-2,l)
);
},
{
closed = 1;
nodes = (
(1000,98,l),
(1000,102,l),
(0,102,l),
(0,98,l)
);
},
{
closed = 1;
nodes = (
(1000,198,l),
(1000,202,l),
(0,202,l),
(0,198,l)
);
},
{
closed = 1;
nodes = (
(1000,298,l),
(1000,302,l),
(0,302,l),
(0,298,l)
);
},
{
closed = 1;
nodes = (
(1000,398,l),
(1000,402,l),
(0,402,l),
(0,398,l)
);
},
{
closed = 1;
nodes = (
(598,445.828,o),
(554.172,402,o),
(500,402,cs),
(445.828,402,o),
(402,445.828,o),
(402,500,cs),
(402,554.172,o),
(445.828,598,o),
(500,598,cs),
(1000,598,l),
(1000,602,l),
(500,602,ls),
(443.772,602,o),
(398,556.228,o),
(398,500,cs),
(398,443.772,o),
(443.772,398,o),
(500,398,cs),
(556.228,398,o),
(602,443.772,o),
(602,500,c),
(598,500,l)
);
},
{
closed = 1;
nodes = (
(698,390.528,o),
(609.472,302,o),
(500,302,cs),
(390.528,302,o),
(302,390.528,o),
(302,500,cs),
(302,609.472,o),
(390.528,698,o),
(500,698,cs),
(1000,698,l),
(1000,702,l),
(500,702,ls),
(388.472,702,o),
(298,611.528,o),
(298,500,cs),
(298,388.472,o),
(388.472,298,o),
(500,298,cs),
(611.528,298,o),
(702,388.472,o),
(702,500,c),
(698,500,l)
);
},
{
closed = 1;
nodes = (
(798,335.328,o),
(664.672,202,o),
(500,202,cs),
(335.328,202,o),
(202,335.328,o),
(202,500,cs),
(202,664.672,o),
(335.328,798,o),
(500,798,cs),
(1000,798,l),
(1000,802,l),
(500,802,ls),
(333.272,802,o),
(198,666.728,o),
(198,500,cs),
(198,333.272,o),
(333.272,198,o),
(500,198,cs),
(666.728,198,o),
(802,333.272,o),
(802,500,c),
(798,500,l)
);
},
{
closed = 1;
nodes = (
(898,280.128,o),
(719.872,102,o),
(500,102,cs),
(280.128,102,o),
(102,280.128,o),
(102,500,cs),
(102,719.872,o),
(280.128,898,o),
(500,898,cs),
(1000,898,l),
(1000,902,l),
(500,902,ls),
(278.072,902,o),
(98,721.928,o),
(98,500,cs),
(98,278.072,o),
(278.072,98,o),
(500,98,cs),
(721.928,98,o),
(902,278.072,o),
(902,500,c),
(898,500,l)
);
}
);
width = 1000;
}
);
unicode = 71;
},
{
glyphname = H;
lastChange = "2023-12-13 21:22:00 +0000";
layers = (
{
layerId = m01;
shapes = (
{
closed = 0;
nodes = (
(1000,1000,l),
(1000,0,l)
);
},
{
closed = 0;
nodes = (
(0,1000,l),
(0,0,l)
);
},
{
closed = 0;
nodes = (
(100,1000,l),
(100,0,l)
);
},
{
closed = 0;
nodes = (
(200,1000,l),
(200,0,l)
);
},
{
closed = 0;
nodes = (
(300,1000,l),
(300,0,l)
);
},
{
closed = 0;
nodes = (
(400,1000,l),
(400,0,l)
);
},
{
closed = 0;
nodes = (
(600,1000,l),
(600,0,l)
);
},
{
closed = 0;
nodes = (
(700,1000,l),
(700,0,l)
);
},
{
closed = 0;
nodes = (
(800,1000,l),
(800,0,l)
);
},
{
closed = 0;
nodes = (
(900,1000,l),
(900,0,l)
);
},
{
closed = 0;
nodes = (
(800.5,399.5,l),
(201.5,400.6,l)
);
},
{
closed = 0;
nodes = (
(700.5,299.5,l),
(301.5,300.6,l)
);
},
{
closed = 0;
nodes = (
(900.5,499.5,l),
(101.5,500.2,l)
);
},
{
closed = 0;
nodes = (
(1000.5,601.5,l),
(1.5,598,l)
);
}
);
width = 1000;
},
{
layerId = m002;
shapes = (
{
closed = 1;
nodes = (
(1010,1000,l),
(990,1000,l),
(990,0,l),
(1010,0,l)
);
},
{
closed = 1;
nodes = (
(10,1000,l),
(-10,1000,l),
(-10,0,l),
(10,0,l)
);
},
{
closed = 1;
nodes = (
(110,1000,l),
(90,1000,l),
(90,0,l),
(110,0,l)
);
},
{
closed = 1;
nodes = (
(210,1000,l),
(190,1000,l),
(190,0,l),
(210,0,l)
);
},
{
closed = 1;
nodes = (
(310,1000,l),
(290,1000,l),
(290,0,l),
(310,0,l)
);
},
{
closed = 1;
nodes = (
(410,1000,l),
(390,1000,l),
(390,0,l),
(410,0,l)
);
},
{
closed = 1;
nodes = (
(610,1000,l),
(590,1000,l),
(590,0,l),
(610,0,l)
);
},
{
closed = 1;
nodes = (
(710,1000,l),
(690,1000,l),
(690,0,l),
(710,0,l)
);
},
{
closed = 1;
nodes = (
(810,1000,l),
(790,1000,l),
(790,0,l),
(810,0,l)
);
},
{
closed = 1;
nodes = (
(910,1000,l),
(890,1000,l),
(890,0,l),
(910,0,l)
);
},
{
closed = 1;
nodes = (
(800.5,389.5,l),
(800.5,409.5,l),
(201.5,410.6,l),
(201.5,390.6,l)
);
},
{
closed = 1;
nodes = (
(700.5,289.5,l),
(700.5,309.5,l),
(301.5,310.6,l),
(301.5,290.6,l)
);
},
{
closed = 1;
nodes = (
(900.5,489.5,l),
(900.5,509.5,l),
(101.5,510.2,l),
(101.5,490.2,l)
);
},
{
closed = 1;
nodes = (
(1000.5,591.5,l),
(1000.5,611.5,l),
(1.5,608,l),
(1.5,588,l)
);
}
);
width = 1000;
},
{
layerId = m003;
shapes = (
{
closed = 1;
nodes = (
(1002,1000,l),
(998,1000,l),
(998,0,l),
(1002,0,l)
);
},
{
closed = 1;
nodes = (
(2,1000,l),
(-2,1000,l),
(-2,0,l),
(2,0,l)
);
},
{
closed = 1;
nodes = (
(102,1000,l),
(98,1000,l),
(98,0,l),
(102,0,l)
);
},
{
closed = 1;
nodes = (
(202,1000,l),
(198,1000,l),
(198,0,l),
(202,0,l)
);
},
{
closed = 1;
nodes = (
(302,1000,l),
(298,1000,l),
(298,0,l),
(302,0,l)
);
},
{
closed = 1;
nodes = (
(402,1000,l),
(398,1000,l),
(398,0,l),
(402,0,l)
);
},
{
closed = 1;
nodes = (
(602,1000,l),
(598,1000,l),
(598,0,l),
(602,0,l)
);
},
{
closed = 1;
nodes = (
(702,1000,l),
(698,1000,l),
(698,0,l),
(702,0,l)
);
},
{
closed = 1;
nodes = (
(802,1000,l),
(798,1000,l),
(798,0,l),
(802,0,l)
);
},
{
closed = 1;
nodes = (
(902,1000,l),
(898,1000,l),
(898,0,l),
(902,0,l)
);
},
{
closed = 1;
nodes = (
(800.5,397.5,l),
(800.5,401.5,l),
(201.5,402.6,l),
(201.5,398.6,l)
);
},
{
closed = 1;
nodes = (
(700.5,297.5,l),
(700.5,301.5,l),
(301.5,302.6,l),
(301.5,298.6,l)
);
},
{
closed = 1;
nodes = (
(900.5,497.5,l),
(900.5,501.5,l),
(101.5,502.2,l),
(101.5,498.2,l)
);
},
{
closed = 1;
nodes = (
(1000.5,599.5,l),
(1000.5,603.5,l),
(1.5,600,l),
(1.5,596,l)
);
}
);
width = 1000;
}
);
unicode = 72;
},
{
glyphname = I;
lastChange = "2023-12-13 21:22:00 +0000";
layers = (
{
anchors = (
{
name = top;
pos = (500,1000);
}
);
layerId = m01;
shapes = (
{
closed = 0;
nodes = (
(300,1000,l),
(300,0,l)
);
},
{
closed = 0;
nodes = (
(400,1000,l),
(400,0,l)
);
},
{
closed = 0;
nodes = (
(500,1000,l),
(500,0,l)
);
},
{
closed = 0;
nodes = (
(600,1000,l),
(600,0,l)
);
},
{
closed = 0;
nodes = (
(700,1000,l),
(700,0,l)
);
},
{
closed = 0;
nodes = (
(1000,600,l),
(779.1,600,o),
(600,779.1,o),
(600,1000,c)
);
},
{
closed = 0;
nodes = (
(1000,700,l),
(834.3,700,o),
(700,834.3,o),
(700,1000,c)
);
},
{
closed = 0;
nodes = (
(1000,800,l),
(889.5,800,o),
(800,889.5,o),
(800,1000,c)
);
},
{
closed = 0;
nodes = (
(1000,900,l),
(944.8,900,o),
(900,944.8,o),
(900,1000,c)
);
},
{
closed = 0;
nodes = (
(0,600,l),
(220.9,600,o),
(400,779.1,o),
(400,1000,c)
);
},
{
closed = 0;
nodes = (
(0,700,l),
(165.7,700,o),
(300,834.3,o),
(300,1000,c)
);
},
{
closed = 0;
nodes = (
(0,800,l),
(110.5,800,o),
(200,889.5,o),
(200,1000,c)
);
},
{
closed = 0;
nodes = (
(0,900,l),
(55.2,900,o),
(100,944.8,o),
(100,1000,c)
);
},
{
closed = 0;
nodes = (
(1000,400,l),
(779.1,400,o),
(600,220.9,o),
(600,0,c)
);
},
{
closed = 0;
nodes = (
(1000,300,l),
(834.3,300,o),
(700,165.7,o),
(700,0,c)
);
},
{
closed = 0;
nodes = (
(1000,200,l),
(889.5,200,o),
(800,110.5,o),
(800,0,c)
);
},
{
closed = 0;
nodes = (
(1000,100,l),
(944.8,100,o),
(900,55.2,o),
(900,0,c)
);
},
{
closed = 0;
nodes = (
(0,400,l),
(220.9,400,o),
(400,220.9,o),
(400,0,c)
);
},
{
closed = 0;
nodes = (
(0,300,l),
(165.7,300,o),
(300,165.7,o),
(300,0,c)
);
},
{
closed = 0;
nodes = (
(0,200,l),
(110.5,200,o),
(200,110.5,o),
(200,0,c)
);
},
{
closed = 0;
nodes = (
(0,100,l),
(55.2,100,o),
(100,55.2,o),
(100,0,c)
);
}
);
width = 1000;
},
{
anchors = (
{
name = top;
pos = (500,1000);
}
);
layerId = m002;
shapes = (
{
closed = 1;
nodes = (
(310,1000,l),
(290,1000,l),
(290,0,l),
(310,0,l)
);
},
{
closed = 1;
nodes = (
(410,1000,l),
(390,1000,l),
(390,0,l),
(410,0,l)
);
},
{
closed = 1;
nodes = (
(510,1000,l),
(490,1000,l),
(490,0,l),
(510,0,l)
);
},
{
closed = 1;
nodes = (
(610,1000,l),
(590,1000,l),
(590,0,l),
(610,0,l)
);
},
{
closed = 1;
nodes = (
(710,1000,l),
(690,1000,l),
(690,0,l),
(710,0,l)
);
},
{
closed = 1;
nodes = (
(590,773.558,o),
(773.558,590,o),
(1000,590,c),
(1000,610,l),
(784.642,610,o),
(610,784.642,o),
(610,1000,c),
(590,1000,l)
);
},
{
closed = 1;
nodes = (
(690,828.758,o),
(828.758,690,o),
(1000,690,c),
(1000,710,l),
(839.842,710,o),
(710,839.842,o),
(710,1000,c),
(690,1000,l)
);
},
{
closed = 1;
nodes = (
(790,883.958,o),
(883.958,790,o),
(1000,790,c),
(1000,810,l),
(895.042,810,o),
(810,895.042,o),
(810,1000,c),
(790,1000,l)
);
},
{
closed = 1;
nodes = (
(890,939.258,o),
(939.258,890,o),
(1000,890,c),
(1000,910,l),
(950.342,910,o),
(910,950.342,o),
(910,1000,c),
(890,1000,l)
);
},
{
closed = 1;
nodes = (
(390,784.642,o),
(215.358,610,o),
(0,610,c),
(0,590,l),
(226.442,590,o),
(410,773.558,o),
(410,1000,c),
(390,1000,l)
);
},
{
closed = 1;
nodes = (
(290,839.842,o),
(160.158,710,o),
(0,710,c),
(0,690,l),
(171.242,690,o),
(310,828.758,o),
(310,1000,c),
(290,1000,l)
);
},
{
closed = 1;
nodes = (
(190,895.042,o),
(104.958,810,o),
(0,810,c),
(0,790,l),
(116.042,790,o),
(210,883.958,o),
(210,1000,c),
(190,1000,l)
);
},
{
closed = 1;
nodes = (
(90,950.342,o),
(49.658,910,o),
(0,910,c),
(0,890,l),
(60.742,890,o),
(110,939.258,o),
(110,1000,c),
(90,1000,l)
);
},
{
closed = 1;
nodes = (
(610,215.358,o),
(784.642,390,o),
(1000,390,c),
(1000,410,l),
(773.558,410,o),
(590,226.442,o),
(590,0,c),
(610,0,l)
);
},
{
closed = 1;
nodes = (
(710,160.158,o),
(839.842,290,o),
(1000,290,c),
(1000,310,l),
(828.758,310,o),
(690,171.2,o),
(690,0,c),
(710,0,l)
);
},
{
closed = 1;
nodes = (
(810,104.958,o),
(895.042,190,o),
(1000,190,c),
(1000,210,l),
(883.958,210,o),
(790,116.042,o),
(790,0,c),
(810,0,l)
);
},
{
closed = 1;
nodes = (
(910,49.658,o),
(950.342,90,o),
(1000,90,c),
(1000,110,l),
(939.258,110,o),
(890,60.742,o),
(890,0,c),
(910,0,l)
);
},
{
closed = 1;
nodes = (
(410,226.442,o),
(226.442,410,o),
(0,410,c),
(0,390,l),
(215.358,390,o),
(390,215.358,o),
(390,0,c),
(410,0,l)
);
},
{
closed = 1;
nodes = (
(310,171.242,o),
(171.242,310,o),
(0,310,c),
(0,290,l),
(160.158,290,o),
(290,160.158,o),
(290,0,c),
(310,0,l)
);
},
{
closed = 1;
nodes = (
(210,116.042,o),
(116.042,210,o),
(0,210,c),
(0,190,l),
(104.958,190,o),
(190,104.958,o),
(190,0,c),
(210,0,l)
);
},
{
closed = 1;
nodes = (
(110,60.742,o),
(60.742,110,o),
(0,110,c),
(0,90,l),
(49.658,90,o),
(90,49.658,o),
(90,0,c),
(110,0,l)
);
}
);
width = 1000;
},
{
anchors = (
{
name = top;
pos = (500,1000);
}
);
layerId = m003;
shapes = (
{
closed = 1;
nodes = (
(302,1000,l),
(298,1000,l),
(298,0,l),
(302,0,l)
);
},
{
closed = 1;
nodes = (
(402,1000,l),
(398,1000,l),
(398,0,l),
(402,0,l)
);
},
{
closed = 1;
nodes = (
(502,1000,l),
(498,1000,l),
(498,0,l),
(502,0,l)
);
},
{
closed = 1;
nodes = (
(602,1000,l),
(598,1000,l),
(598,0,l),
(602,0,l)
);
},
{
closed = 1;
nodes = (
(702,1000,l),
(698,1000,l),
(698,0,l),
(702,0,l)
);
},
{
closed = 1;
nodes = (
(598,778.072,o),
(778.072,598,o),
(1000,598,c),
(1000,602,l),
(780.128,602,o),
(602,780.128,o),
(602,1000,c),
(598,1000,l)
);
},
{
closed = 1;
nodes = (
(698,833.272,o),
(833.272,698,o),
(1000,698,c),
(1000,702,l),
(835.328,702,o),
(702,835.328,o),
(702,1000,c),
(698,1000,l)
);
},
{
closed = 1;
nodes = (
(798,888.472,o),
(888.472,798,o),
(1000,798,c),
(1000,802,l),
(890.528,802,o),
(802,890.528,o),
(802,1000,c),
(798,1000,l)
);
},
{
closed = 1;
nodes = (
(898,943.772,o),
(943.772,898,o),
(1000,898,c),
(1000,902,l),
(945.828,902,o),
(902,945.828,o),
(902,1000,c),
(898,1000,l)
);
},
{
closed = 1;
nodes = (
(398,780.128,o),
(219.872,602,o),
(0,602,c),
(0,598,l),
(221.928,598,o),
(402,778.072,o),
(402,1000,c),
(398,1000,l)
);
},
{
closed = 1;
nodes = (
(298,835.328,o),
(164.672,702,o),
(0,702,c),
(0,698,l),
(166.728,698,o),
(302,833.272,o),
(302,1000,c),
(298,1000,l)
);
},
{
closed = 1;
nodes = (
(198,890.528,o),
(109.472,802,o),
(0,802,c),
(0,798,l),
(111.528,798,o),
(202,888.472,o),
(202,1000,c),
(198,1000,l)
);
},
{
closed = 1;
nodes = (
(98,945.828,o),
(54.172,902,o),
(0,902,c),
(0,898,l),
(56.228,898,o),
(102,943.772,o),
(102,1000,c),
(98,1000,l)
);
},
{
closed = 1;
nodes = (
(602,219.872,o),
(780.128,398,o),
(1000,398,c),
(1000,402,l),
(778.072,402,o),
(598,221.928,o),
(598,0,c),
(602,0,l)
);
},
{
closed = 1;
nodes = (
(702,164.672,o),
(835.328,298,o),
(1000,298,c),
(1000,302,l),
(833.272,302,o),
(698,166.728,o),
(698,0,c),
(702,0,l)
);
},
{
closed = 1;
nodes = (
(802,109.472,o),
(890.528,198,o),
(1000,198,c),
(1000,202,l),
(888.472,202,o),
(798,111.528,o),
(798,0,c),
(802,0,l)
);
},
{
closed = 1;
nodes = (
(902,54.172,o),
(945.828,98,o),
(1000,98,c),
(1000,102,l),
(943.772,102,o),
(898,56.228,o),
(898,0,c),
(902,0,l)
);
},
{
closed = 1;
nodes = (
(402,221.928,o),
(221.928,402,o),
(0,402,c),
(0,398,l),
(219.872,398,o),
(398,219.872,o),
(398,0,c),
(402,0,l)
);
},
{
closed = 1;
nodes = (
(302,166.728,o),
(166.728,302,o),
(0,302,c),
(0,298,l),
(164.672,298,o),
(298,164.672,o),
(298,0,c),
(302,0,l)
);
},
{
closed = 1;
nodes = (
(202,111.528,o),
(111.528,202,o),
(0,202,c),
(0,198,l),
(109.472,198,o),
(198,109.472,o),
(198,0,c),
(202,0,l)
);
},
{
closed = 1;
nodes = (
(102,56.228,o),
(56.228,102,o),
(0,102,c),
(0,98,l),
(54.172,98,o),
(98,54.172,o),
(98,0,c),
(102,0,l)
);
}
);
width = 1000;
}
);
unicode = 73;
},
{
glyphname = J;
lastChange = "2023-12-13 21:22:00 +0000";
layers = (
{
layerId = m01;
shapes = (
{
closed = 0;
nodes = (
(0,500,l),
(0,223.9,o),
(223.9,0,o),
(500,0,cs),
(1000,0,l),
(1000,1000,l),
(0,1000,l)
);
},
{
closed = 0;
nodes = (
(100,500,l),
(100,279.1,o),
(279.1,100,o),
(500,100,cs),
(1000,100,l)
);
},
{
closed = 0;
nodes = (
(200,500,l),
(200,334.3,o),
(334.3,200,o),
(500,200,cs),
(900,200,l)
);
},
{
closed = 0;
nodes = (
(300,500,l),
(300,389.5,o),
(389.5,300,o),
(500,300,cs),
(800,300,l)
);
},
{
closed = 0;
nodes = (
(400,500,l),
(400,444.8,o),
(444.8,400,o),
(500,400,cs),
(700,400,l)
);
},
{
closed = 0;
nodes = (
(900,0,l),
(900,1000,l)
);
},
{
closed = 0;
nodes = (
(800,0,l),
(800,900,l)
);
},
{
closed = 0;
nodes = (
(700,0,l),
(700,800,l)
);
},
{
closed = 0;
nodes = (
(600,0,l),
(600,700,l)
);
},
{
closed = 0;
nodes = (
(1000,900,l),
(0,900,l)
);
},
{
closed = 0;
nodes = (
(900,800,l),
(0,800,l)
);
},
{
closed = 0;
nodes = (
(800,700,l),
(0,700,l)
);
},
{
closed = 0;
nodes = (
(700,600,l),
(0,600,l)
);
}
);
width = 1000;
},
{
layerId = m002;
shapes = (
{
closed = 1;
nodes = (
(990,990,l),
(990,10,l),
(500,10,ls),
(228.042,10,o),
(10,228.042,o),
(10,500,c),
(-10,500,l),
(-10,218.558,o),
(218.558,-10,o),
(500,-10,cs),
(1010,-10,l),
(1010,1010,l),
(0,1010,l),
(0,990,l)
);
},
{
closed = 1;
nodes = (
(500,110,ls),
(283.242,110,o),
(110,283.242,o),
(110,500,c),
(90,500,l),
(90,273.758,o),
(273.758,90,o),
(500,90,cs),
(1000,90,l),
(1000,110,l)
);
},
{
closed = 1;
nodes = (
(500,210,ls),
(338.442,210,o),
(210,338.442,o),
(210,500,c),
(190,500,l),
(190,328.958,o),
(328.958,190,o),
(500,190,cs),
(900,190,l),
(900,210,l)
);
},
{
closed = 1;
nodes = (
(500,310,ls),
(393.642,310,o),
(310,393.642,o),
(310,500,c),
(290,500,l),
(290,384.158,o),
(384.158,290,o),
(500,290,cs),
(800,290,l),
(800,310,l)
);
},
{
closed = 1;
nodes = (
(500,410,ls),
(448.942,410,o),
(410,448.942,o),
(410,500,c),
(390,500,l),
(390,439.458,o),
(439.458,390,o),
(500,390,cs),
(700,390,l),
(700,410,l)
);
},
{
closed = 1;
nodes = (
(890,0,l),
(910,0,l),
(910,1000,l),
(890,1000,l)
);
},
{
closed = 1;
nodes = (
(790,0,l),
(810,0,l),
(810,900,l),
(790,900,l)
);
},
{
closed = 1;
nodes = (
(690,0,l),
(710,0,l),
(710,800,l),
(690,800,l)
);
},
{
closed = 1;
nodes = (
(590,0,l),
(610,0,l),
(610,700,l),
(590,700,l)
);
},
{
closed = 1;
nodes = (
(1000,890,l),
(1000,910,l),
(0,910,l),
(0,890,l)
);
},
{
closed = 1;
nodes = (
(900,790,l),
(900,810,l),
(0,810,l),
(0,790,l)
);
},
{
closed = 1;
nodes = (
(800,690,l),
(800,710,l),
(0,710,l),
(0,690,l)
);
},
{
closed = 1;
nodes = (
(700,590,l),
(700,610,l),
(0,610,l),
(0,590,l)
);
}
);
width = 1000;
},
{
layerId = m003;
shapes = (
{
closed = 1;
nodes = (
(998,998,l),
(998,2,l),
(500,2,ls),
(224.728,2,o),
(2,224.728,o),
(2,500,c),
(-2,500,l),
(-2,222.872,o),
(222.872,-2,o),
(500,-2,cs),
(1002,-2,l),
(1002,1002,l),
(0,1002,l),
(0,998,l)
);
},
{
closed = 1;
nodes = (
(500,102,ls),
(279.928,102,o),
(102,279.928,o),
(102,500,c),
(98,500,l),
(98,278.072,o),
(278.072,98,o),
(500,98,cs),
(1000,98,l),
(1000,102,l)
);
},
{
closed = 1;
nodes = (
(500,202,ls),
(335.128,202,o),
(202,335.128,o),
(202,500,c),
(198,500,l),
(198,333.272,o),
(333.272,198,o),
(500,198,cs),
(900,198,l),
(900,202,l)
);
},
{
closed = 1;
nodes = (
(500,302,ls),
(390.328,302,o),
(302,390.328,o),
(302,500,c),
(298,500,l),
(298,388.472,o),
(388.472,298,o),
(500,298,cs),
(800,298,l),
(800,302,l)
);
},
{
closed = 1;
nodes = (
(500,402,ls),
(445.628,402,o),
(402,445.628,o),
(402,500,c),
(398,500,l),
(398,443.772,o),
(443.772,398,o),
(500,398,cs),
(700,398,l),
(700,402,l)
);
},
{
closed = 1;
nodes = (
(898,0,l),
(902,0,l),
(902,1000,l),
(898,1000,l)
);
},
{
closed = 1;
nodes = (
(798,0,l),
(802,0,l),
(802,900,l),
(798,900,l)
);
},
{
closed = 1;
nodes = (
(698,0,l),
(702,0,l),
(702,800,l),
(698,800,l)
);
},
{
closed = 1;
nodes = (
(598,0,l),
(602,0,l),
(602,700,l),
(598,700,l)
);
},
{
closed = 1;
nodes = (
(1000,898,l),
(1000,902,l),
(0,902,l),
(0,898,l)
);
},
{
closed = 1;
nodes = (
(900,798,l),
(900,802,l),
(0,802,l),
(0,798,l)
);
},
{
closed = 1;
nodes = (
(800,698,l),
(800,702,l),
(0,702,l),
(0,698,l)
);
},
{
closed = 1;
nodes = (
(700,598,l),
(700,602,l),
(0,602,l),
(0,598,l)
);
}
);
width = 1000;
}
);
unicode = 74;
},
{
glyphname = K;
lastChange = "2023-12-13 21:22:00 +0000";
layers = (
{
layerId = m01;
shapes = (
{
closed = 0;
nodes = (
(0,1000,l),
(0,0,l)
);
},
{
closed = 0;
nodes = (
(100,1000,l),
(100,0,l)
);
},
{
closed = 0;
nodes = (
(200,1000,l),
(200,0,l)
);
},
{
closed = 0;
nodes = (
(300,1000,l),
(300,0,l)
);
},
{
closed = 0;
nodes = (
(400,1000,l),
(400,0,l)
);
},
{
closed = 0;
nodes = (
(500,1000,l),
(500,0,l)
);
},
{
closed = 0;
nodes = (
(500.5,400,l),
(721.1,400,o),
(900,220.9,o),
(900,0,c)
);
},
{
closed = 0;
nodes = (
(500.5,300,l),
(665.9,300,o),
(800,165.7,o),
(800,0,c)
);
},
{
closed = 0;
nodes = (
(500.5,200,l),
(610.7,200,o),
(700,110.5,o),
(700,0,c)
);
},
{
closed = 0;
nodes = (
(500.5,100,l),
(555.5,100,o),
(600,55.2,o),
(600,0,c)
);
},
{
closed = 0;
nodes = (
(999.3,0.2,l),
(999.3,276.3,o),
(775.5,500,o),
(499.5,500,c)
);
},
{
closed = 0;
nodes = (
(899.4,998.9,l),
(899.4,778.2,o),
(720.3,599.4,o),
(499.4,599.4,c)
);
},
{
closed = 0;
nodes = (
(799.4,998.9,l),
(799.4,833.5,o),
(665.1,699.4,o),
(499.4,699.4,c)
);
},
{
closed = 0;
nodes = (
(699.4,998.9,l),
(699.4,888.7,o),
(609.8,799.4,o),
(499.4,799.4,c)
);
},
{
closed = 0;
nodes = (
(599.4,998.9,l),
(599.4,943.9,o),
(554.6,899.4,o),
(499.4,899.4,c)
);
},
{
closed = 0;
nodes = (
(499.6,500.1,l),
(775.6,500.1,o),
(999.4,723.9,o),
(999.4,999.9,c)
);
}
);
width = 1000;
},
{
layerId = m002;
shapes = (
{
closed = 1;
nodes = (
(10,1000,l),
(-10,1000,l),
(-10,0,l),
(10,0,l)
);
},
{
closed = 1;
nodes = (
(110,1000,l),
(90,1000,l),
(90,0,l),
(110,0,l)
);
},
{
closed = 1;
nodes = (
(210,1000,l),
(190,1000,l),
(190,0,l),
(210,0,l)
);
},
{
closed = 1;
nodes = (
(310,1000,l),
(290,1000,l),
(290,0,l),
(310,0,l)
);
},
{
closed = 1;
nodes = (
(410,1000,l),
(390,1000,l),
(390,0,l),
(410,0,l)
);
},
{
closed = 1;
nodes = (
(510,1000,l),
(490,1000,l),
(490,0,l),
(510,0,l)
);
},
{
closed = 1;
nodes = (
(910,226.439,o),
(726.645,410,o),
(500.5,410,c),
(500.5,390,l),
(715.555,390,o),
(890,215.361,o),
(890,0,c),
(910,0,l)
);
},
{
closed = 1;
nodes = (
(810,171.238,o),
(671.447,310,o),
(500.5,310,c),
(500.5,290,l),
(660.353,290,o),
(790,160.162,o),
(790,0,c),
(810,0,l)
);
},
{
closed = 1;
nodes = (
(710,116.036,o),
(616.249,210,o),
(500.5,210,c),
(500.5,190,l),
(605.151,190,o),
(690,104.964,o),
(690,0,c),
(710,0,l)
);
},
{
closed = 1;
nodes = (
(610,60.722,o),
(561.062,110,o),
(500.5,110,c),
(500.5,90,l),
(549.938,90,o),
(590,49.678,o),
(590,0,c),
(610,0,l)
);
},
{
closed = 1;
nodes = (
(769.959,490,o),
(989.3,270.757,o),
(989.3,0.2,c),
(1009.3,0.2,l),
(1009.3,281.843,o),
(781.041,510,o),
(499.5,510,c),
(499.5,490,l)
);
},
{
closed = 1;
nodes = (
(725.837,589.4,o),
(909.4,772.653,o),
(909.4,998.9,c),
(889.4,998.9,l),
(889.4,783.747,o),
(714.763,609.4,o),
(499.4,609.4,c),
(499.4,589.4,l)
);
},
{
closed = 1;
nodes = (
(670.638,689.4,o),
(809.4,827.953,o),
(809.4,998.9,c),
(789.4,998.9,l),
(789.4,839.047,o),
(659.562,709.4,o),
(499.4,709.4,c),
(499.4,689.4,l)
);
},
{
closed = 1;
nodes = (
(615.332,789.4,o),
(709.4,883.148,o),
(709.4,998.9,c),
(689.4,998.9,l),
(689.4,894.252,o),
(604.268,809.4,o),
(499.4,809.4,c),
(499.4,789.4,l)
);
},
{
closed = 1;
nodes = (
(560.122,889.4,o),
(609.4,938.338,o),
(609.4,998.9,c),
(589.4,998.9,l),
(589.4,949.462,o),
(549.078,909.4,o),
(499.4,909.4,c),
(499.4,889.4,l)
);
},
{
closed = 1;
nodes = (
(989.4,729.442,o),
(770.058,510.1,o),
(499.6,510.1,c),
(499.6,490.1,l),
(781.142,490.1,o),
(1009.4,718.358,o),
(1009.4,999.9,c),
(989.4,999.9,l)
);
}
);
width = 1000;
},
{
layerId = m003;
shapes = (
{
closed = 1;
nodes = (
(2,1000,l),
(-2,1000,l),
(-2,0,l),
(2,0,l)
);
},
{
closed = 1;
nodes = (
(102,1000,l),
(98,1000,l),
(98,0,l),
(102,0,l)
);
},
{
closed = 1;
nodes = (
(202,1000,l),
(198,1000,l),
(198,0,l),
(202,0,l)
);
},
{
closed = 1;
nodes = (
(302,1000,l),
(298,1000,l),
(298,0,l),
(302,0,l)
);
},
{
closed = 1;
nodes = (
(402,1000,l),
(398,1000,l),
(398,0,l),
(402,0,l)
);
},
{
closed = 1;
nodes = (
(502,1000,l),
(498,1000,l),
(498,0,l),
(502,0,l)
);
},
{
closed = 1;
nodes = (
(902,221.928,o),
(722.129,402,o),
(500.5,402,c),
(500.5,398,l),
(720.071,398,o),
(898,219.872,o),
(898,0,c),
(902,0,l)
);
},
{
closed = 1;
nodes = (
(802,166.728,o),
(666.929,302,o),
(500.5,302,c),
(500.5,298,l),
(664.871,298,o),
(798,164.672,o),
(798,0,c),
(802,0,l)
);
},
{
closed = 1;
nodes = (
(702,111.527,o),
(611.73,202,o),
(500.5,202,c),
(500.5,198,l),
(609.67,198,o),
(698,109.473,o),
(698,0,c),
(702,0,l)
);
},
{
closed = 1;
nodes = (
(602,56.224,o),
(556.532,102,o),
(500.5,102,c),
(500.5,98,l),
(554.468,98,o),
(598,54.176,o),
(598,0,c),
(602,0,l)
);
},
{
closed = 1;
nodes = (
(774.472,498,o),
(997.3,275.271,o),
(997.3,0.2,c),
(1001.3,0.2,l),
(1001.3,277.329,o),
(776.528,502,o),
(499.5,502,c),
(499.5,498,l)
);
},
{
closed = 1;
nodes = (
(721.327,597.4,o),
(901.4,777.171,o),
(901.4,998.9,c),
(897.4,998.9,l),
(897.4,779.229,o),
(719.273,601.4,o),
(499.4,601.4,c),
(499.4,597.4,l)
);
},
{
closed = 1;
nodes = (
(666.128,697.4,o),
(801.4,832.471,o),
(801.4,998.9,c),
(797.4,998.9,l),
(797.4,834.529,o),
(664.072,701.4,o),
(499.4,701.4,c),
(499.4,697.4,l)
);
},
{
closed = 1;
nodes = (
(610.826,797.4,o),
(701.4,887.67,o),
(701.4,998.9,c),
(697.4,998.9,l),
(697.4,889.73,o),
(608.774,801.4,o),
(499.4,801.4,c),
(499.4,797.4,l)
);
},
{
closed = 1;
nodes = (
(555.624,897.4,o),
(601.4,942.868,o),
(601.4,998.9,c),
(597.4,998.9,l),
(597.4,944.932,o),
(553.576,901.4,o),
(499.4,901.4,c),
(499.4,897.4,l)
);
},
{
closed = 1;
nodes = (
(997.4,724.928,o),
(774.572,502.1,o),
(499.6,502.1,c),
(499.6,498.1,l),
(776.628,498.1,o),
(1001.4,722.872,o),
(1001.4,999.9,c),
(997.4,999.9,l)
);
}
);
width = 1000;
}
);
unicode = 75;
},
{
glyphname = L;
lastChange = "2023-12-13 21:22:00 +0000";
layers = (
{
layerId = m01;
shapes = (
{
closed = 0;
nodes = (
(0,1000,l),
(0,0,l)
);
},
{
closed = 0;
nodes = (
(100,1000,l),
(100,0,l)
);
},
{
closed = 0;
nodes = (
(200,1000,l),
(200,0,l)
);
},
{
closed = 0;
nodes = (
(300,1000,l),
(300,100,l)
);
},
{
closed = 0;
nodes = (
(400,1000,l),
(400,200,l)
);
},
{
closed = 0;
nodes = (
(900,1000,l),
(900,900,l),
(1000,900,l)
);
},
{
closed = 0;
nodes = (
(800,1000,l),
(800,800,l),
(1000,800,l)
);
},
{
closed = 0;
nodes = (
(700,1000,l),
(700,700,l),
(1000,700,l)
);
},
{
closed = 0;
nodes = (
(600,1000,l),
(600,600,l),
(1000,600,l)
);
},
{
closed = 0;
nodes = (
(500,1000,l),
(500,500,l),
(1000,500,l)
);
},
{
closed = 0;
nodes = (
(200,400,l),
(1000,400,l)
);
},
{
closed = 0;
nodes = (
(100,300,l),
(1000,300,l)
);
},
{
closed = 0;
nodes = (
(0,200,l),
(1000,200,l)
);
},
{
closed = 0;
nodes = (
(0,100,l),
(1000,100,l)
);
},
{
closed = 0;
nodes = (
(0,0,l),
(1000,0,l)
);
}
);
width = 1000;
},
{
layerId = m002;
shapes = (
{
closed = 1;
nodes = (
(10,1000,l),
(-10,1000,l),
(-10,0,l),
(10,0,l)
);
},
{
closed = 1;
nodes = (
(110,1000,l),
(90,1000,l),
(90,0,l),
(110,0,l)
);
},
{
closed = 1;
nodes = (
(210,1000,l),
(190,1000,l),
(190,0,l),
(210,0,l)
);
},
{
closed = 1;
nodes = (
(310,1000,l),
(290,1000,l),
(290,100,l),
(310,100,l)
);
},
{
closed = 1;
nodes = (
(410,1000,l),
(390,1000,l),
(390,200,l),
(410,200,l)
);
},
{
closed = 1;
nodes = (
(910,910,l),
(910,1000,l),
(890,1000,l),
(890,890,l),
(1000,890,l),
(1000,910,l)
);
},
{
closed = 1;
nodes = (
(810,810,l),
(810,1000,l),
(790,1000,l),
(790,790,l),
(1000,790,l),
(1000,810,l)
);
},
{
closed = 1;
nodes = (
(710,710,l),
(710,1000,l),
(690,1000,l),
(690,690,l),
(1000,690,l),
(1000,710,l)
);
},
{
closed = 1;
nodes = (
(610,610,l),
(610,1000,l),
(590,1000,l),
(590,590,l),
(1000,590,l),
(1000,610,l)
);
},
{
closed = 1;
nodes = (
(510,510,l),
(510,1000,l),
(490,1000,l),
(490,490,l),
(1000,490,l),
(1000,510,l)
);
},
{
closed = 1;
nodes = (
(200,410,l),
(200,390,l),
(1000,390,l),
(1000,410,l)
);
},
{
closed = 1;
nodes = (
(100,310,l),
(100,290,l),
(1000,290,l),
(1000,310,l)
);
},
{
closed = 1;
nodes = (
(0,210,l),
(0,190,l),
(1000,190,l),
(1000,210,l)
);
},
{
closed = 1;
nodes = (
(0,110,l),
(0,90,l),
(1000,90,l),
(1000,110,l)
);
},
{
closed = 1;
nodes = (
(0,10,l),
(0,-10,l),
(1000,-10,l),
(1000,10,l)
);
}
);
width = 1000;
},
{
layerId = m003;
shapes = (
{
closed = 1;
nodes = (
(2,1000,l),
(-2,1000,l),
(-2,0,l),
(2,0,l)
);
},
{
closed = 1;
nodes = (
(102,1000,l),
(98,1000,l),
(98,0,l),
(102,0,l)
);
},
{
closed = 1;
nodes = (
(202,1000,l),
(198,1000,l),
(198,0,l),
(202,0,l)
);
},
{
closed = 1;
nodes = (
(302,1000,l),
(298,1000,l),
(298,100,l),
(302,100,l)
);
},
{
closed = 1;
nodes = (
(402,1000,l),
(398,1000,l),
(398,200,l),
(402,200,l)
);
},
{
closed = 1;
nodes = (
(902,902,l),
(902,1000,l),
(898,1000,l),
(898,898,l),
(1000,898,l),
(1000,902,l)
);
},
{
closed = 1;
nodes = (
(802,802,l),
(802,1000,l),
(798,1000,l),
(798,798,l),
(1000,798,l),
(1000,802,l)
);
},
{
closed = 1;
nodes = (
(702,702,l),
(702,1000,l),
(698,1000,l),
(698,698,l),
(1000,698,l),
(1000,702,l)
);
},
{
closed = 1;
nodes = (
(602,602,l),
(602,1000,l),
(598,1000,l),
(598,598,l),
(1000,598,l),
(1000,602,l)
);
},
{
closed = 1;
nodes = (
(502,502,l),
(502,1000,l),
(498,1000,l),
(498,498,l),
(1000,498,l),
(1000,502,l)
);
},
{
closed = 1;
nodes = (
(200,402,l),
(200,398,l),
(1000,398,l),
(1000,402,l)
);
},
{
closed = 1;
nodes = (
(100,302,l),
(100,298,l),
(1000,298,l),
(1000,302,l)
);
},
{
closed = 1;
nodes = (
(0,202,l),
(0,198,l),
(1000,198,l),
(1000,202,l)
);
},
{
closed = 1;
nodes = (
(0,102,l),
(0,98,l),
(1000,98,l),
(1000,102,l)
);
},
{
closed = 1;
nodes = (
(0,2,l),
(0,-2,l),
(1000,-2,l),
(1000,2,l)
);
}
);
width = 1000;
}
);
unicode = 76;
},
{
glyphname = M;
lastChange = "2023-12-13 21:22:00 +0000";
layers = (
{
layerId = m01;
shapes = (
{
closed = 0;
nodes = (
(900,0,l),
(900,1000,l),
(500,200,l),
(100,1000,l),
(100,0,l)
);
},
{
closed = 0;
nodes = (
(800,0,l),
(800,1000,l),
(500,400,l),
(200,1000,l),
(200,0,l)
);
},
{
closed = 0;
nodes = (
(700,0,l),
(700,1000,l),
(500,600,l),
(300,1000,l),
(300,0,l)
);
},
{
closed = 0;
nodes = (
(600,0,l),
(600,1000,l),
(500,800,l),
(400,1000,l),
(400,0,l)
);
},
{
closed = 0;
nodes = (
(0,0,l),
(0,1000,l),
(500,0,l),
(1000,1000,l),
(1000,0,l)
);
},
{
closed = 0;
nodes = (
(500,1000,l),
(500,0,l)
);
}
);
width = 1000;
},
{
layerId = m002;
shapes = (
{
closed = 1;
nodes = (
(110,957.639,l),
(500,177.639,l),
(890,957.639,l),
(890,0,l),
(910,0,l),
(910,1000.001,l),
(888.8,1000,l),
(500,222.361,l),
(111.2,1000,l),
(90,1000,l),
(90,0,l),
(110,0,l)
);
},
{
closed = 1;
nodes = (
(210,957.639,l),
(500,377.639,l),
(790,957.639,l),
(790,0,l),
(810,0,l),
(810,1000.002,l),
(788.8,1000,l),
(500,422.361,l),
(211.2,1000,l),
(190,1000,l),
(190,0,l),
(210,0,l)
);
},
{
closed = 1;
nodes = (
(310,957.639,l),
(500,577.639,l),
(690,957.639,l),
(690,0,l),
(710,0,l),
(710,1000,l),
(688.8,1000,l),
(500,622.361,l),
(311.2,1000,l),
(290,1000,l),
(290,0,l),
(310,0,l)
);
},
{
closed = 1;
nodes = (
(410,957.639,l),
(500,777.639,l),
(590,957.639,l),
(590,0,l),
(610,0,l),
(610,1000,l),
(588.8,1000,l),
(500,822.361,l),
(411.2,1000.1,l),
(390,1000.1,l),
(390,0,l),
(410,0,l)
);
},
{
closed = 1;
nodes = (
(1010,1000,l),
(988.8,1000,l),
(500,22.361,l),
(11.2,1000,l),
(-10,999.998,l),
(-10,0,l),
(10,0,l),
(10,957.639,l),
(500,-22.361,l),
(990,957.639,l),
(990,0,l),
(1010,0,l)
);
},
{
closed = 1;
nodes = (
(510,1000,l),
(490,1000,l),
(490,0,l),
(510,0,l)
);
}
);
width = 1000;
},
{
layerId = m003;
shapes = (
{
closed = 1;
nodes = (
(102,991.528,l),
(500,195.528,l),
(898,991.528,l),
(898,0,l),
(902,0,l),
(902,1000,l),
(897.8,1000,l),
(500,204.472,l),
(102.2,1000,l),
(98,999.992,l),
(98,0,l),
(102,0,l)
);
},
{
closed = 1;
nodes = (
(202,991.528,l),
(500,395.528,l),
(798,991.528,l),
(798,0,l),
(802,0,l),
(802,1000,l),
(797.8,1000,l),
(500,404.472,l),
(202.2,1000,l),
(198,1000,l),
(198,0,l),
(202,0,l)
);
},
{
closed = 1;
nodes = (
(302,991.528,l),
(500,595.528,l),
(698,991.528,l),
(698,0,l),
(702,0,l),
(702,1000,l),
(697.8,1000,l),
(500,604.472,l),
(302.2,1000,l),
(298,1000,l),
(298,0,l),
(302,0,l)
);
},
{
closed = 1;
nodes = (
(402,991.528,l),
(500,795.528,l),
(598,991.528,l),
(598,0,l),
(602,0,l),
(602,1000,l),
(597.8,1000,l),
(500,804.472,l),
(402.2,1000,l),
(398,1000,l),
(398,0,l),
(402,0,l)
);
},
{
closed = 1;
nodes = (
(1002,1000.009,l),
(997.8,1000,l),
(500,4.472,l),
(2.2,1000,l),
(-2,1000,l),
(-2,0,l),
(2,0,l),
(2,991.528,l),
(500,-4.472,l),
(998,991.528,l),
(998,0,l),
(1002,0,l)
);
},
{
closed = 1;
nodes = (
(502,1000,l),
(498,1000,l),
(498,0,l),
(502,0,l)
);
}
);
width = 1000;
}
);
unicode = 77;
},
{
glyphname = N;
lastChange = "2023-12-13 21:22:00 +0000";
layers = (
{
anchors = (
{
name = top;
pos = (500,1000);
}
);
layerId = m01;
shapes = (
{
closed = 0;
nodes = (
(100,0,l),
(100,1000,l)
);
},
{
closed = 0;
nodes = (
(800,1000,l),
(800,0,l)
);
},
{
closed = 0;
nodes = (
(200,0,l),
(200,1000,l)
);
},
{
closed = 0;
nodes = (
(300,0,l),
(300,1000,l)
);
},
{
closed = 0;
nodes = (
(400,0,l),
(400,1000,l)
);
},
{
closed = 0;
nodes = (
(500,0,l),
(500,1000,l)
);
},
{
closed = 0;
nodes = (
(600,0,l),
(600,1000,l)
);
},
{
closed = 0;
nodes = (
(700,0,l),
(700,1000,l)
);
},
{
closed = 0;
nodes = (
(900,0,l),
(900,1000,l)
);
},
{
closed = 0;
nodes = (
(1000,0,l),
(1000,1000,l)
);
},
{
closed = 0;
nodes = (
(0,800,l),
(800,0,l)
);
},
{
closed = 0;
nodes = (
(0,600,l),
(600,0,l)
);
},
{
closed = 0;
nodes = (
(200,1000,l),
(1000,200,l)
);
},
{
closed = 0;
nodes = (
(400,1000,l),
(1000,400,l)
);
},
{
closed = 0;
nodes = (
(0,0,l),
(0,1000,l)
);
},
{
closed = 0;
nodes = (
(0,1000,l),
(1000,0,l)
);
}
);
width = 1000;
},
{
anchors = (
{
name = top;
pos = (500,1000);
}
);
layerId = m002;
shapes = (
{
closed = 1;
nodes = (
(90,0,l),
(110,0,l),
(110,1000,l),
(90,1000,l)
);
},
{
closed = 1;
nodes = (
(810,1000,l),
(790,1000,l),
(790,24.1,l),
(7.1,807.1,l),
(-7.1,792.9,l),
(785.9,0,l),
(810,0,l)
);
},
{
closed = 1;
nodes = (
(190,0,l),
(210,0,l),
(210,975.9,l),
(992.9,192.9,l),
(1007.1,207.1,l),
(214,1000.1,l),
(190,1000,l)
);
},
{
closed = 1;
nodes = (
(290,0,l),
(310,0,l),
(310,1000,l),
(290,1000,l)
);
},
{
closed = 1;
nodes = (
(390,0,l),
(410,0,l),
(410,975.9,l),
(992.9,392.9,l),
(1007.1,407.1,l),
(414.2,1000.1,l),
(390,1000,l)
);
},
{
closed = 1;
nodes = (
(490,0,l),
(510,0,l),
(510,1000,l),
(490,1000,l)
);
},
{
closed = 1;
nodes = (
(590,24.1,l),
(7.1,607.1,l),
(-7.1,592.9,l),
(585.8,0.1,l),
(610,0,l),
(610,1000,l),
(590,1000,l)
);
},
{
closed = 1;
nodes = (
(690,0,l),
(710,0,l),
(710,1000,l),
(690,1000,l)
);
},
{
closed = 1;
nodes = (
(890,0,l),
(910,0,l),
(910,1000,l),
(890,1000,l)
);
},
{
closed = 1;
nodes = (
(990,24.1,l),
(14.2,999.9,l),
(-10,1000,l),
(-10,0,l),
(10,0,l),
(10,975.9,l),
(986.1,-0.2,l),
(1010,0,l),
(1010,1000,l),
(990,1000,l)
);
}
);
width = 1000;
},
{
anchors = (
{
name = top;
pos = (500,1000);
}
);
layerId = m003;
shapes = (
{
closed = 1;
nodes = (
(98,0,l),
(102,0,l),
(102,1000,l),
(98,1000,l)
);
},
{
closed = 1;
nodes = (
(802,1000,l),
(798,1000,l),
(798,4.8,l),
(1.4,801.4,l),
(-1.4,798.6,l),
(797.2,0,l),
(802,0,l)
);
},
{
closed = 1;
nodes = (
(198,0,l),
(202,0,l),
(202,995.2,l),
(998.6,198.6,l),
(1001.4,201.4,l),
(202.8,1000,l),
(198,1000,l)
);
},
{
closed = 1;
nodes = (
(298,0,l),
(302,0,l),
(302,1000,l),
(298,1000,l)
);
},
{
closed = 1;
nodes = (
(398,0,l),
(402,0,l),
(402,995.2,l),
(998.6,398.6,l),
(1001.4,401.4,l),
(402.8,1000,l),
(398,1000,l)
);
},
{
closed = 1;
nodes = (
(498,0,l),
(502,0,l),
(502,1000,l),
(498,1000,l)
);
},
{
closed = 1;
nodes = (
(598,4.8,l),
(1.4,601.4,l),
(-1.4,598.6,l),
(597.2,0,l),
(602,0,l),
(602,1000,l),
(598,1000,l)
);
},
{
closed = 1;
nodes = (
(698,0,l),
(702,0,l),
(702,1000,l),
(698,1000,l)
);
},
{
closed = 1;
nodes = (
(898,0,l),
(902,0,l),
(902,1000,l),
(898,1000,l)
);
},
{
closed = 1;
nodes = (
(998,4.8,l),
(2.8,1000,l),
(-2,1000,l),
(-2,0,l),
(2,0,l),
(2,995.2,l),
(997.2,0,l),
(1002,0,l),
(1002,1000,l),
(998,1000,l)
);
}
);
width = 1000;
}
);
unicode = 78;
},
{
glyphname = O;
lastChange = "2023-12-13 21:22:00 +0000";
layers = (
{
anchors = (
{
name = top;
pos = (500,1000);
}
);
layerId = m01;
shapes = (
{
closed = 0;
nodes = (
(0,0,l),
(1000,0,l),
(1000,900,l),
(100,900,l),
(100,199.9,l),
(800,199.9,l),
(800,700,l),
(300,700,l),
(300,400,l),
(600,400,l),
(600,500,l),
(400,500,l),
(400,600,l),
(700,600,l),
(700,300,l),
(200,300,l),
(200,800,l),
(900.1,800,l),
(900.1,100,l),
(0,100,l),
(0,1000,l),
(1000,1000,l)
);
}
);
width = 1000;
},
{
anchors = (
{
name = top;
pos = (500,1000);
}
);
layerId = m002;
shapes = (
{
closed = 1;
nodes = (
(-10,1010,l),
(-10,90,l),
(910.1,90,l),
(910.1,810,l),
(190,810,l),
(190,290,l),
(710,290,l),
(710,610,l),
(390,610,l),
(390,490,l),
(590,490,l),
(590,410,l),
(310,410,l),
(310,690,l),
(790,690,l),
(790,209.9,l),
(110,209.9,l),
(110,890,l),
(990,890,l),
(990,10,l),
(0,10,l),
(0,-10,l),
(1010,-10,l),
(1010,910,l),
(90,910,l),
(90,189.9,l),
(810,189.9,l),
(810,710,l),
(290,710,l),
(290,390,l),
(610,390,l),
(610,510,l),
(410,510,l),
(410,590,l),
(690,590,l),
(690,310,l),
(210,310,l),
(210,790,l),
(890.1,790,l),
(890.1,110,l),
(10,110,l),
(10,990,l),
(1000,990,l),
(1000,1010,l)
);
}
);
width = 1000;
},
{
anchors = (
{
name = top;
pos = (500,1000);
}
);
layerId = m003;
shapes = (
{
closed = 1;
nodes = (
(-2,1002,l),
(-2,98,l),
(902.1,98,l),
(902.1,802,l),
(198,802,l),
(198,298,l),
(702,298,l),
(702,602,l),
(398,602,l),
(398,498,l),
(598,498,l),
(598,402,l),
(302,402,l),
(302,698,l),
(798,698,l),
(798,201.9,l),
(102,201.9,l),
(102,898,l),
(998,898,l),
(998,2,l),
(0,2,l),
(0,-2,l),
(1002,-2,l),
(1002,902,l),
(98,902,l),
(98,197.9,l),
(802,197.9,l),
(802,702,l),
(298,702,l),
(298,398,l),
(602,398,l),
(602,502,l),
(402,502,l),
(402,598,l),
(698,598,l),
(698,302,l),
(202,302,l),
(202,798,l),
(898.1,798,l),
(898.1,102,l),
(2,102,l),
(2,998,l),
(1000,998,l),
(1000,1002,l)
);
}
);
width = 1000;
}
);
unicode = 79;
},
{
glyphname = P;
lastChange = "2023-12-13 21:22:00 +0000";
layers = (
{
background = {
shapes = (
{
attr = {
fill = "1";
};
closed = 1;
nodes = (
(578,500,o),
(600,522,o),
(600,550,cs),
(600,578,o),
(578,600,o),
(550,600,cs),
(522,600,o),
(500,578,o),
(500,550,cs),
(500,522,o),
(522,500,o),
(550,500,cs)
);
},
{
attr = {
fill = "1";
};
closed = 1;
nodes = (
(633,400,o),
(700,467,o),
(700,550,cs),
(700,633,o),
(633,700,o),
(550,700,cs),
(467,700,o),
(400,633,o),
(400,550,cs),
(400,467,o),
(467,400,o),
(550,400,cs)
);
},
{
attr = {
fill = "1";
};
closed = 1;
nodes = (
(688,300,o),
(800,412,o),
(800,550,cs),
(800,688,o),
(688,800,o),
(550,800,cs),
(412,800,o),
(300,688,o),
(300,550,cs),
(300,412,o),
(412,300,o),
(550,300,cs)
);
},
{
attr = {
fill = "1";
};
closed = 1;
nodes = (
(743,200,o),
(900,357,o),
(900,550,cs),
(900,743,o),
(743,900,o),
(550,900,cs),
(357,900,o),
(200,743,o),
(200,550,cs),
(200,357,o),
(357,200,o),
(550,200,cs)
);
},
{
attr = {
fill = "1";
};
closed = 1;
nodes = (
(799,100,o),
(1000,301,o),
(1000,550,cs),
(1000,799,o),
(799,1000,o),
(550,1000,cs),
(301,1000,o),
(100,799,o),
(100,550,cs),
(100,301,o),
(301,100,o),
(550,100,cs)
);
}
);
};
layerId = m01;
shapes = (
{
attr = {
fill = "1";
};
closed = 0;
nodes = (
(0,0,l),
(0,1000,l)
);
},
{
attr = {
fill = "1";
};
closed = 0;
nodes = (
(100,0,l),
(100,1000,l)
);
},
{
attr = {
fill = "1";
};
closed = 0;
nodes = (
(200,0,l),
(200,1000,l)
);
},
{
attr = {
fill = "1";
};
closed = 0;
nodes = (
(300,0,l),
(300,1000,l)
);
},
{
attr = {
fill = "1";
};
closed = 0;
nodes = (
(400,0,l),
(400,1000,l)
);
},
{
attr = {
fill = "1";
};
closed = 0;
nodes = (
(500,0,l),
(500,1000,l)
);
},
{
closed = 1;
nodes = (
(800,100,o),
(1000,302,o),
(1000,550,cs),
(1000,800,o),
(800,1000,o),
(550,1000,cs),
(302,1000,o),
(100,800,o),
(100,550,cs),
(100,302,o),
(302,100,o),
(550,100,cs)
);
},
{
closed = 1;
nodes = (
(743,200,o),
(900,357,o),
(900,550,cs),
(900,743,o),
(743,900,o),
(550,900,cs),
(357,900,o),
(200,743,o),
(200,550,cs),
(200,357,o),
(357,200,o),
(550,200,cs)
);
},
{
closed = 1;
nodes = (
(688,300,o),
(800,412,o),
(800,550,cs),
(800,688,o),
(688,800,o),
(550,800,cs),
(412,800,o),
(300,688,o),
(300,550,cs),
(300,412,o),
(412,300,o),
(550,300,cs)
);
},
{
closed = 1;
nodes = (
(633,400,o),
(700,467,o),
(700,550,cs),
(700,633,o),
(633,700,o),
(550,700,cs),
(467,700,o),
(400,633,o),
(400,550,cs),
(400,467,o),
(467,400,o),
(550,400,cs)
);
},
{
closed = 1;
nodes = (
(578,500,o),
(600,522,o),
(600,550,cs),
(600,578,o),
(578,600,o),
(550,600,cs),
(522,600,o),
(500,578,o),
(500,550,cs),
(500,522,o),
(522,500,o),
(550,500,cs)
);
}
);
width = 1000;
},
{
layerId = m002;
shapes = (
{
attr = {
fill = "1";
};
closed = 1;
nodes = (
(-10,0,l),
(10,0,l),
(10,1000,l),
(-10,1000,l)
);
},
{
attr = {
fill = "1";
};
closed = 1;
nodes = (
(90,0,l),
(110,0,l),
(110,1000,l),
(90,1000,l)
);
},
{
attr = {
fill = "1";
};
closed = 1;
nodes = (
(190,0,l),
(210,0,l),
(210,1000,l),
(190,1000,l)
);
},
{
attr = {
fill = "1";
};
closed = 1;
nodes = (
(290,0,l),
(310,0,l),
(310,1000,l),
(290,1000,l)
);
},
{
attr = {
fill = "1";
};
closed = 1;
nodes = (
(390,0,l),
(410,0,l),
(410,1000,l),
(390,1000,l)
);
},
{
attr = {
fill = "1";
};
closed = 1;
nodes = (
(490,0,l),
(510,0,l),
(510,1000,l),
(490,1000,l)
);
},
{
closed = 1;
nodes = (
(805.571,90,o),
(1010,296.5,o),
(1010,550,cs),
(1010,805.5,o),
(805.542,1010,o),
(550,1010,cs),
(296.487,1010,o),
(90,805.571,o),
(90,550,cs),
(90,296.458,o),
(296.458,90,o),
(550,90,cs)
);
},
{
closed = 1;
nodes = (
(307.542,110,o),
(110,307.542,o),
(110,550,cs),
(110,794.429,o),
(307.513,990,o),
(550,990,cs),
(794.458,990,o),
(990,794.458,o),
(990,550,cs),
(990,307.513,o),
(794.429,110,o),
(550,110,cs)
);
},
{
closed = 1;
nodes = (
(748.5,190,o),
(910,351.5,o),
(910,550,cs),
(910,748.5,o),
(748.5,910,o),
(550,910,cs),
(351.5,910,o),
(190,748.5,o),
(190,550,cs),
(190,351.5,o),
(351.5,190,o),
(550,190,cs)
);
},
{
closed = 1;
nodes = (
(362.5,210,o),
(210,362.5,o),
(210,550,cs),
(210,737.5,o),
(362.5,890,o),
(550,890,cs),
(737.5,890,o),
(890,737.5,o),
(890,550,cs),
(890,362.5,o),
(737.5,210,o),
(550,210,cs)
);
},
{
closed = 1;
nodes = (
(693.5,290,o),
(810,406.5,o),
(810,550,cs),
(810,693.5,o),
(693.5,810,o),
(550,810,cs),
(406.5,810,o),
(290,693.5,o),
(290,550,cs),
(290,406.5,o),
(406.5,290,o),
(550,290,cs)
);
},
{
closed = 1;
nodes = (
(417.5,310,o),
(310,417.5,o),
(310,550,cs),
(310,682.5,o),
(417.5,790,o),
(550,790,cs),
(682.5,790,o),
(790,682.5,o),
(790,550,cs),
(790,417.5,o),
(682.5,310,o),
(550,310,cs)
);
},
{
closed = 1;
nodes = (
(638.542,390,o),
(710,461.458,o),
(710,550,cs),
(710,638.542,o),
(638.542,710,o),
(550,710,cs),
(461.458,710,o),
(390,638.542,o),
(390,550,cs),
(390,461.458,o),
(461.458,390,o),
(550,390,cs)
);
},
{
closed = 1;
nodes = (
(472.542,410,o),
(410,472.542,o),
(410,550,cs),
(410,627.458,o),
(472.542,690,o),
(550,690,cs),
(627.458,690,o),
(690,627.458,o),
(690,550,cs),
(690,472.542,o),
(627.458,410,o),
(550,410,cs)
);
},
{
closed = 1;
nodes = (
(583.542,490,o),
(610,516.458,o),
(610,550,cs),
(610,583.542,o),
(583.542,610,o),
(550,610,cs),
(516.458,610,o),
(490,583.542,o),
(490,550,cs),
(490,516.458,o),
(516.458,490,o),
(550,490,cs)
);
},
{
closed = 1;
nodes = (
(527.542,510,o),
(510,527.542,o),
(510,550,cs),
(510,572.458,o),
(527.542,590,o),
(550,590,cs),
(572.458,590,o),
(590,572.458,o),
(590,550,cs),
(590,527.542,o),
(572.458,510,o),
(550,510,cs)
);
}
);
width = 1000;
},
{
layerId = m003;
shapes = (
{
attr = {
fill = "1";
};
closed = 1;
nodes = (
(-2,0,l),
(2,0,l),
(2,1000,l),
(-2,1000,l)
);
},
{
attr = {
fill = "1";
};
closed = 1;
nodes = (
(98,0,l),
(102,0,l),
(102,1000,l),
(98,1000,l)
);
},
{
attr = {
fill = "1";
};
closed = 1;
nodes = (
(198,0,l),
(202,0,l),
(202,1000,l),
(198,1000,l)
);
},
{
attr = {
fill = "1";
};
closed = 1;
nodes = (
(298,0,l),
(302,0,l),
(302,1000,l),
(298,1000,l)
);
},
{
attr = {
fill = "1";
};
closed = 1;
nodes = (
(398,0,l),
(402,0,l),
(402,1000,l),
(398,1000,l)
);
},
{
attr = {
fill = "1";
};
closed = 1;
nodes = (
(498,0,l),
(502,0,l),
(502,1000,l),
(498,1000,l)
);
},
{
closed = 1;
nodes = (
(801,98,o),
(1002,301,o),
(1002,550,cs),
(1002,801,o),
(801,1002,o),
(550,1002,cs),
(301,1002,o),
(98,801,o),
(98,550,cs),
(98,301,o),
(301,98,o),
(550,98,cs)
);
},
{
closed = 1;
nodes = (
(303,102,o),
(102,303,o),
(102,550,cs),
(102,799,o),
(303,998,o),
(550,998,cs),
(799,998,o),
(998,799,o),
(998,550,cs),
(998,303,o),
(799,102,o),
(550,102,cs)
);
},
{
closed = 1;
nodes = (
(744,198,o),
(902,356,o),
(902,550,cs),
(902,744,o),
(744,902,o),
(550,902,cs),
(356,902,o),
(198,744,o),
(198,550,cs),
(198,356,o),
(356,198,o),
(550,198,cs)
);
},
{
closed = 1;
nodes = (
(358,202,o),
(202,358,o),
(202,550,cs),
(202,742,o),
(358,898,o),
(550,898,cs),
(742,898,o),
(898,742,o),
(898,550,cs),
(898,358,o),
(742,202,o),
(550,202,cs)
);
},
{
closed = 1;
nodes = (
(689,298,o),
(802,411,o),
(802,550,cs),
(802,689,o),
(689,802,o),
(550,802,cs),
(411,802,o),
(298,689,o),
(298,550,cs),
(298,411,o),
(411,298,o),
(550,298,cs)
);
},
{
closed = 1;
nodes = (
(413,302,o),
(302,413,o),
(302,550,cs),
(302,687,o),
(413,798,o),
(550,798,cs),
(687,798,o),
(798,687,o),
(798,550,cs),
(798,413,o),
(687,302,o),
(550,302,cs)
);
},
{
closed = 1;
nodes = (
(634.028,398,o),
(702,465.972,o),
(702,550,cs),
(702,634.028,o),
(634.028,702,o),
(550,702,cs),
(465.972,702,o),
(398,634.028,o),
(398,550,cs),
(398,465.972,o),
(465.972,398,o),
(550,398,cs)
);
},
{
closed = 1;
nodes = (
(468.028,402,o),
(402,468.028,o),
(402,550,cs),
(402,631.972,o),
(468.028,698,o),
(550,698,cs),
(631.972,698,o),
(698,631.972,o),
(698,550,cs),
(698,468.028,o),
(631.972,402,o),
(550,402,cs)
);
},
{
closed = 1;
nodes = (
(579.028,498,o),
(602,520.972,o),
(602,550,cs),
(602,579.028,o),
(579.028,602,o),
(550,602,cs),
(520.972,602,o),
(498,579.028,o),
(498,550,cs),
(498,520.972,o),
(520.972,498,o),
(550,498,cs)
);
},
{
closed = 1;
nodes = (
(523.028,502,o),
(502,523.028,o),
(502,550,cs),
(502,576.972,o),
(523.028,598,o),
(550,598,cs),
(576.972,598,o),
(598,576.972,o),
(598,550,cs),
(598,523.028,o),
(576.972,502,o),
(550,502,cs)
);
}
);
width = 1000;
}
);
unicode = 80;
},
{
glyphname = Q;
lastChange = "2023-12-13 21:22:00 +0000";
layers = (
{
layerId = m01;
shapes = (
{
closed = 0;
nodes = (
(500,500.5,l),
(1000,500,l)
);
},
{
closed = 0;
nodes = (
(500,400.5,l),
(1000,400,l)
);
},
{
closed = 0;
nodes = (
(500,300.5,l),
(1000,300,l)
);
},
{
closed = 0;
nodes = (
(500,200.5,l),
(1000,200,l)
);
},
{
closed = 0;
nodes = (
(500,100.5,l),
(1000,100,l)
);
},
{
closed = 0;
nodes = (
(500,0,l),
(1000,0,l)
);
},
{
closed = 1;
nodes = (
(600,555.2,o),
(555.2,600,o),
(500,600,cs),
(444.8,600,o),
(400,555.2,o),
(400,500,cs),
(400,444.8,o),
(444.8,400,o),
(500,400,cs),
(555.2,400,o),
(600,444.8,o),
(600,500,cs)
);
},
{
closed = 1;
nodes = (
(700,610.5,o),
(610.5,700,o),
(500,700,cs),
(389.5,700,o),
(300,610.5,o),
(300,500,cs),
(300,389.5,o),
(389.5,300,o),
(500,300,cs),
(610.5,300,o),
(700,389.5,o),
(700,500,cs)
);
},
{
closed = 1;
nodes = (
(800,665.7,o),
(665.7,800,o),
(500,800,cs),
(334.3,800,o),
(200,665.7,o),
(200,500,cs),
(200,334.3,o),
(334.3,200,o),
(500,200,cs),
(665.7,200,o),
(800,334.3,o),
(800,500,cs)
);
},
{
closed = 1;
nodes = (
(900,720.9,o),
(720.9,900,o),
(500,900,cs),
(279.1,900,o),
(100,720.9,o),
(100,500,cs),
(100,279.1,o),
(279.1,100,o),
(500,100,cs),
(720.9,100,o),
(900,279.1,o),
(900,500,cs)
);
},
{
closed = 1;
nodes = (
(1000,776.1,o),
(776.1,1000,o),
(500,1000,cs),
(223.9,1000,o),
(0,776.1,o),
(0,500,cs),
(0,223.9,o),
(223.9,0,o),
(500,0,cs),
(776.1,0,o),
(1000,223.9,o),
(1000,500,cs)
);
}
);
width = 1000;
},
{
layerId = m002;
shapes = (
{
closed = 1;
nodes = (
(500.01,510.5,l),
(499.99,490.5,l),
(999.99,490,l),
(1000.01,510,l)
);
},
{
closed = 1;
nodes = (
(500.01,410.5,l),
(499.99,390.5,l),
(999.99,390,l),
(1000.01,410,l)
);
},
{
closed = 1;
nodes = (
(500.01,310.5,l),
(499.99,290.5,l),
(999.99,290,l),
(1000.01,310,l)
);
},
{
closed = 1;
nodes = (
(500.01,210.5,l),
(499.99,190.5,l),
(999.99,190,l),
(1000.01,210,l)
);
},
{
closed = 1;
nodes = (
(500.01,110.5,l),
(499.99,90.5,l),
(999.99,90,l),
(1000.01,110,l)
);
},
{
closed = 1;
nodes = (
(500,10,l),
(500,-10,l),
(1000,-10,l),
(1000,10,l)
);
},
{
closed = 1;
nodes = (
(610,560.742,o),
(560.742,610,o),
(500,610,cs),
(439.258,610,o),
(390,560.742,o),
(390,500,cs),
(390,439.258,o),
(439.258,390,o),
(500,390,cs),
(560.742,390,o),
(610,439.258,o),
(610,500,cs)
);
},
{
closed = 1;
nodes = (
(590,450.342,o),
(549.658,410,o),
(500,410,cs),
(450.342,410,o),
(410,450.342,o),
(410,500,cs),
(410,549.658,o),
(450.342,590,o),
(500,590,cs),
(549.658,590,o),
(590,549.658,o),
(590,500,cs)
);
},
{
closed = 1;
nodes = (
(710,616.042,o),
(616.042,710,o),
(500,710,cs),
(383.958,710,o),
(290,616.042,o),
(290,500,cs),
(290,383.958,o),
(383.958,290,o),
(500,290,cs),
(616.042,290,o),
(710,383.958,o),
(710,500,cs)
);
},
{
closed = 1;
nodes = (
(690,395.042,o),
(604.958,310,o),
(500,310,cs),
(395.042,310,o),
(310,395.042,o),
(310,500,cs),
(310,604.958,o),
(395.042,690,o),
(500,690,cs),
(604.958,690,o),
(690,604.958,o),
(690,500,cs)
);
},
{
closed = 1;
nodes = (
(810,671.242,o),
(671.242,810,o),
(500,810,cs),
(328.758,810,o),
(190,671.242,o),
(190,500,cs),
(190,328.758,o),
(328.758,190,o),
(500,190,cs),
(671.242,190,o),
(810,328.758,o),
(810,500,cs)
);
},
{
closed = 1;
nodes = (
(790,339.842,o),
(660.158,210,o),
(500,210,cs),
(339.842,210,o),
(210,339.842,o),
(210,500,cs),
(210,660.158,o),
(339.842,790,o),
(500,790,cs),
(660.158,790,o),
(790,660.158,o),
(790,500,cs)
);
},
{
closed = 1;
nodes = (
(910,726.442,o),
(726.442,910,o),
(500,910,cs),
(273.558,910,o),
(90,726.442,o),
(90,500,cs),
(90,273.558,o),
(273.558,90,o),
(500,90,cs),
(726.442,90,o),
(910,273.558,o),
(910,500,cs)
);
},
{
closed = 1;
nodes = (
(890,284.642,o),
(715.358,110,o),
(500,110,cs),
(284.642,110,o),
(110,284.642,o),
(110,500,cs),
(110,715.358,o),
(284.642,890,o),
(500,890,cs),
(715.358,890,o),
(890,715.358,o),
(890,500,cs)
);
},
{
closed = 1;
nodes = (
(1010,781.642,o),
(781.642,1010,o),
(500,1010,cs),
(218.358,1010,o),
(-10,781.642,o),
(-10,500,cs),
(-10,218.358,o),
(218.358,-10,o),
(500,-10,cs),
(781.642,-10,o),
(1010,218.358,o),
(1010,500,cs)
);
},
{
closed = 1;
nodes = (
(990,229.442,o),
(770.558,10,o),
(500,10,cs),
(229.442,10,o),
(10,229.442,o),
(10,500,cs),
(10,770.558,o),
(229.442,990,o),
(500,990,cs),
(770.558,990,o),
(990,770.558,o),
(990,500,cs)
);
}
);
width = 1000;
},
{
layerId = m003;
shapes = (
{
closed = 1;
nodes = (
(500.002,502.5,l),
(499.998,498.5,l),
(999.998,498,l),
(1000.002,502,l)
);
},
{
closed = 1;
nodes = (
(500.002,402.5,l),
(499.998,398.5,l),
(999.998,398,l),
(1000.002,402,l)
);
},
{
closed = 1;
nodes = (
(500.002,302.5,l),
(499.998,298.5,l),
(999.998,298,l),
(1000.002,302,l)
);
},
{
closed = 1;
nodes = (
(500.002,202.5,l),
(499.998,198.5,l),
(999.998,198,l),
(1000.002,202,l)
);
},
{
closed = 1;
nodes = (
(500.002,102.5,l),
(499.998,98.5,l),
(999.998,98,l),
(1000.002,102,l)
);
},
{
closed = 1;
nodes = (
(500,2,l),
(500,-2,l),
(1000,-2,l),
(1000,2,l)
);
},
{
closed = 1;
nodes = (
(602,556.228,o),
(556.228,602,o),
(500,602,cs),
(443.772,602,o),
(398,556.228,o),
(398,500,cs),
(398,443.772,o),
(443.772,398,o),
(500,398,cs),
(556.228,398,o),
(602,443.772,o),
(602,500,cs)
);
},
{
closed = 1;
nodes = (
(598,445.828,o),
(554.172,402,o),
(500,402,cs),
(445.828,402,o),
(402,445.828,o),
(402,500,cs),
(402,554.172,o),
(445.828,598,o),
(500,598,cs),
(554.172,598,o),
(598,554.172,o),
(598,500,cs)
);
},
{
closed = 1;
nodes = (
(702,611.528,o),
(611.528,702,o),
(500,702,cs),
(388.472,702,o),
(298,611.528,o),
(298,500,cs),
(298,388.472,o),
(388.472,298,o),
(500,298,cs),
(611.528,298,o),
(702,388.472,o),
(702,500,cs)
);
},
{
closed = 1;
nodes = (
(698,390.528,o),
(609.472,302,o),
(500,302,cs),
(390.528,302,o),
(302,390.528,o),
(302,500,cs),
(302,609.472,o),
(390.528,698,o),
(500,698,cs),
(609.472,698,o),
(698,609.472,o),
(698,500,cs)
);
},
{
closed = 1;
nodes = (
(802,666.728,o),
(666.728,802,o),
(500,802,cs),
(333.272,802,o),
(198,666.728,o),
(198,500,cs),
(198,333.272,o),
(333.272,198,o),
(500,198,cs),
(666.728,198,o),
(802,333.272,o),
(802,500,cs)
);
},
{
closed = 1;
nodes = (
(798,335.328,o),
(664.672,202,o),
(500,202,cs),
(335.328,202,o),
(202,335.328,o),
(202,500,cs),
(202,664.672,o),
(335.328,798,o),
(500,798,cs),
(664.672,798,o),
(798,664.672,o),
(798,500,cs)
);
},
{
closed = 1;
nodes = (
(902,721.928,o),
(721.928,902,o),
(500,902,cs),
(278.072,902,o),
(98,721.928,o),
(98,500,cs),
(98,278.072,o),
(278.072,98,o),
(500,98,cs),
(721.928,98,o),
(902,278.072,o),
(902,500,cs)
);
},
{
closed = 1;
nodes = (
(898,280.128,o),
(719.872,102,o),
(500,102,cs),
(280.128,102,o),
(102,280.128,o),
(102,500,cs),
(102,719.872,o),
(280.128,898,o),
(500,898,cs),
(719.872,898,o),
(898,719.872,o),
(898,500,cs)
);
},
{
closed = 1;
nodes = (
(1002,777.128,o),
(777.128,1002,o),
(500,1002,cs),
(222.872,1002,o),
(-2,777.128,o),
(-2,500,cs),
(-2,222.872,o),
(222.872,-2,o),
(500,-2,cs),
(777.128,-2,o),
(1002,222.872,o),
(1002,500,cs)
);
},
{
closed = 1;
nodes = (
(998,224.928,o),
(775.072,2,o),
(500,2,cs),
(224.928,2,o),
(2,224.928,o),
(2,500,cs),
(2,775.072,o),
(224.928,998,o),
(500,998,cs),
(775.072,998,o),
(998,775.072,o),
(998,500,cs)
);
}
);
width = 1000;
}
);
unicode = 81;
},
{
glyphname = R;
lastChange = "2023-12-13 21:22:00 +0000";
layers = (
{
layerId = m01;
shapes = (
{
closed = 0;
nodes = (
(0,0,l),
(0,1000,l),
(650,1000,ls),
(843.3,1000,o),
(1000,843.3,o),
(1000,650,cs),
(1000,456.7,o),
(843.3,300,o),
(650,300,cs),
(500,300,l)
);
},
{
closed = 0;
nodes = (
(100,0,l),
(100,1000,l)
);
},
{
closed = 0;
nodes = (
(200,0,l),
(200,1000,l)
);
},
{
closed = 0;
nodes = (
(300,0,l),
(300,1000,l)
);
},
{
closed = 0;
nodes = (
(400,0,l),
(400,1000,l)
);
},
{
closed = 0;
nodes = (
(500,1000,l),
(500,0,l),
(1000,0,l)
);
},
{
closed = 0;
nodes = (
(500,400,l),
(650,400,ls),
(788.1,400,o),
(900,511.9,o),
(900,650,cs),
(900,788.1,o),
(788.1,900,o),
(650,900,cs),
(0,900,l)
);
},
{
closed = 0;
nodes = (
(400,500,l),
(650,500,ls),
(732.8,500,o),
(800,567.2,o),
(800,650,cs),
(800,732.8,o),
(732.8,800,o),
(650,800,cs),
(100,800,l)
);
},
{
closed = 0;
nodes = (
(300,600,l),
(650,600,ls),
(677.6,600,o),
(700,622.4,o),
(700,650,cs),
(700,677.6,o),
(677.6,700,o),
(650,700,cs),
(200,700,l)
);
},
{
closed = 0;
nodes = (
(500,300,l),
(1000,300,l)
);
},
{
closed = 0;
nodes = (
(500,200,l),
(1000,200,l)
);
},
{
closed = 0;
nodes = (
(500,100,l),
(1000,100,l)
);
}
);
width = 1000;
},
{
layerId = m002;
shapes = (
{
closed = 1;
nodes = (
(650,290,ls),
(848.642,290,o),
(1010,451.358,o),
(1010,650,cs),
(1010,848.642,o),
(848.642,1010,o),
(650,1010,cs),
(-10,1010,l),
(-10,0,l),
(10,0,l),
(10,990,l),
(650,990,ls),
(839.158,990,o),
(990,839.158,o),
(990,650,cs),
(990,460.842,o),
(839.158,310,o),
(650,310,cs),
(500,310,l),
(500,290,l)
);
},
{
closed = 1;
nodes = (
(90,0,l),
(110,0,l),
(110,1000,l),
(90,1000,l)
);
},
{
closed = 1;
nodes = (
(190,0,l),
(210,0,l),
(210,1000,l),
(190,1000,l)
);
},
{
closed = 1;
nodes = (
(290,0,l),
(310,0,l),
(310,1000,l),
(290,1000,l)
);
},
{
closed = 1;
nodes = (
(390,0,l),
(410,0,l),
(410,1000,l),
(390,1000,l)
);
},
{
closed = 1;
nodes = (
(510,10,l),
(510,1000,l),
(490,1000,l),
(490,-10,l),
(1000,-10,l),
(1000,10,l)
);
},
{
closed = 1;
nodes = (
(650,890,ls),
(783.958,890,o),
(890,783.958,o),
(890,650,cs),
(890,516.042,o),
(783.958,410,o),
(650,410,cs),
(500,410,l),
(500,390,l),
(650,390,ls),
(793.442,390,o),
(910,506.558,o),
(910,650,cs),
(910,793.442,o),
(793.442,910,o),
(650,910,cs),
(0,910,l),
(0,890,l)
);
},
{
closed = 1;
nodes = (
(650,790,ls),
(728.658,790,o),
(790,728.658,o),
(790,650,cs),
(790,571.342,o),
(728.658,510,o),
(650,510,cs),
(400,510,l),
(400,490,l),
(650,490,ls),
(738.142,490,o),
(810,561.858,o),
(810,650,cs),
(810,738.142,o),
(738.142,810,o),
(650,810,cs),
(100,810,l),
(100,790,l)
);
},
{
closed = 1;
nodes = (
(650,690,ls),
(673.458,690,o),
(690,673.458,o),
(690,650,cs),
(690,626.542,o),
(673.458,610,o),
(650,610,cs),
(300,610,l),
(300,590,l),
(650,590,ls),
(682.942,590,o),
(710,617.058,o),
(710,650,cs),
(710,682.942,o),
(682.942,710,o),
(650,710,cs),
(200,710,l),
(200,690,l)
);
},
{
closed = 1;
nodes = (
(500,310,l),
(500,290,l),
(1000,290,l),
(1000,310,l)
);
},
{
closed = 1;
nodes = (
(500,210,l),
(500,190,l),
(1000,190,l),
(1000,210,l)
);
},
{
closed = 1;
nodes = (
(500,110,l),
(500,90,l),
(1000,90,l),
(1000,110,l)
);
}
);
width = 1000;
},
{
layerId = m003;
shapes = (
{
closed = 1;
nodes = (
(650,298,ls),
(844.328,298,o),
(1002,455.672,o),
(1002,650,cs),
(1002,844.328,o),
(844.328,1002,o),
(650,1002,cs),
(-2,1002,l),
(-2,0,l),
(2,0,l),
(2,998,l),
(650,998,ls),
(842.472,998,o),
(998,842.472,o),
(998,650,cs),
(998,457.528,o),
(842.472,302,o),
(650,302,cs),
(500,302,l),
(500,298,l)
);
},
{
closed = 1;
nodes = (
(98,0,l),
(102,0,l),
(102,1000,l),
(98,1000,l)
);
},
{
closed = 1;
nodes = (
(198,0,l),
(202,0,l),
(202,1000,l),
(198,1000,l)
);
},
{
closed = 1;
nodes = (
(298,0,l),
(302,0,l),
(302,1000,l),
(298,1000,l)
);
},
{
closed = 1;
nodes = (
(398,0,l),
(402,0,l),
(402,1000,l),
(398,1000,l)
);
},
{
closed = 1;
nodes = (
(502,2,l),
(502,1000,l),
(498,1000,l),
(498,-2,l),
(1000,-2,l),
(1000,2,l)
);
},
{
closed = 1;
nodes = (
(650,898,ls),
(787.272,898,o),
(898,787.272,o),
(898,650,cs),
(898,512.728,o),
(787.272,402,o),
(650,402,cs),
(500,402,l),
(500,398,l),
(650,398,ls),
(789.128,398,o),
(902,510.872,o),
(902,650,cs),
(902,789.128,o),
(789.128,902,o),
(650,902,cs),
(0,902,l),
(0,898,l)
);
},
{
closed = 1;
nodes = (
(650,798,ls),
(731.972,798,o),
(798,731.972,o),
(798,650,cs),
(798,568.028,o),
(731.972,502,o),
(650,502,cs),
(400,502,l),
(400,498,l),
(650,498,ls),
(733.828,498,o),
(802,566.172,o),
(802,650,cs),
(802,733.828,o),
(733.828,802,o),
(650,802,cs),
(100,802,l),
(100,798,l)
);
},
{
closed = 1;
nodes = (
(650,698,ls),
(676.772,698,o),
(698,676.772,o),
(698,650,cs),
(698,623.228,o),
(676.772,602,o),
(650,602,cs),
(300,602,l),
(300,598,l),
(650,598,ls),
(678.628,598,o),
(702,621.372,o),
(702,650,cs),
(702,678.628,o),
(678.628,702,o),
(650,702,cs),
(200,702,l),
(200,698,l)
);
},
{
closed = 1;
nodes = (
(500,302,l),
(500,298,l),
(1000,298,l),
(1000,302,l)
);
},
{
closed = 1;
nodes = (
(500,202,l),
(500,198,l),
(1000,198,l),
(1000,202,l)
);
},
{
closed = 1;
nodes = (
(500,102,l),
(500,98,l),
(1000,98,l),
(1000,102,l)
);
}
);
width = 1000;
}
);
unicode = 82;
},
{
glyphname = S;
lastChange = "2023-12-13 21:22:00 +0000";
layers = (
{
layerId = m01;
shapes = (
{
closed = 0;
nodes = (
(500,1000,l),
(223.9,1000,o),
(0,776.1,o),
(0,500,c),
(1000,500,l),
(1000,223.9,o),
(776.1,0,o),
(500,0,c)
);
},
{
closed = 0;
nodes = (
(100,500,l),
(100,720.9,o),
(279.1,900,o),
(500,900,cs),
(555.2,900,o),
(600,944.8,o),
(600,1000,c)
);
},
{
closed = 0;
nodes = (
(200,500,l),
(200,665.7,o),
(334.3,800,o),
(500,800,cs),
(610.5,800,o),
(700,889.5,o),
(700,1000,c)
);
},
{
closed = 0;
nodes = (
(300,500,l),
(300,610.5,o),
(389.5,700,o),
(500,700,cs),
(665.7,700,o),
(800,834.3,o),
(800,1000,c)
);
},
{
closed = 0;
nodes = (
(400,500,l),
(400,555.2,o),
(444.8,600,o),
(500,600,cs),
(720.9,600,o),
(900,779.1,o),
(900,1000,c)
);
},
{
closed = 0;
nodes = (
(1000,1000,l),
(1000,723.9,o),
(776.1,500,o),
(500,500,c)
);
},
{
closed = 0;
nodes = (
(0,0,l),
(0,276.1,o),
(223.9,500,o),
(500,500,c)
);
},
{
closed = 0;
nodes = (
(100,0,l),
(100,220.9,o),
(279.1,400,o),
(500,400,cs),
(555.2,400,o),
(600,444.8,o),
(600,500,c)
);
},
{
closed = 0;
nodes = (
(200,0,l),
(200,165.7,o),
(334.3,300,o),
(500,300,cs),
(610.5,300,o),
(700,389.5,o),
(700,500,c)
);
},
{
closed = 0;
nodes = (
(300,0,l),
(300,110.5,o),
(389.5,200,o),
(500,200,cs),
(665.7,200,o),
(800,334.3,o),
(800,500,c)
);
},
{
closed = 0;
nodes = (
(400,0,l),
(400,55.2,o),
(444.8,100,o),
(500,100,cs),
(720.9,100,o),
(900,279.1,o),
(900,500,c)
);
},
{
closed = 0;
nodes = (
(1000,900,l),
(0,900,l)
);
},
{
closed = 0;
nodes = (
(1000,800,l),
(0,800,l)
);
},
{
closed = 0;
nodes = (
(1000,700,l),
(0,700,l)
);
},
{
closed = 0;
nodes = (
(1000,600,l),
(0,600,l)
);
},
{
closed = 0;
nodes = (
(1000,500,l),
(0,500,l)
);
},
{
closed = 0;
nodes = (
(0,0,l),
(1000,0,l)
);
},
{
closed = 0;
nodes = (
(0,1000,l),
(1000,1000,l)
);
},
{
closed = 0;
nodes = (
(0,100,l),
(1000,100,l)
);
},
{
closed = 0;
nodes = (
(0,200,l),
(1000,200,l)
);
},
{
closed = 0;
nodes = (
(0,300,l),
(1000,300,l)
);
},
{
closed = 0;
nodes = (
(0,400,l),
(1000,400,l)
);
}
);
width = 1000;
},
{
layerId = m002;
shapes = (
{
closed = 1;
nodes = (
(784.768,-10,o),
(1015.395,223.992,o),
(1009.904,510,c),
(10.098,510,l),
(15.366,777.283,o),
(231.384,990,o),
(500,990,c),
(500,1010,l),
(215.232,1010,o),
(-15.395,776.008,o),
(-9.904,490,c),
(989.902,490,l),
(984.634,222.717,o),
(768.616,10,o),
(500,10,c),
(500,-10,l)
);
},
{
closed = 1;
nodes = (
(590,948.942,o),
(551.058,910,o),
(500,910,cs),
(273.758,910,o),
(90,726.242,o),
(90,500,c),
(110,500,l),
(110,716.758,o),
(283.242,890,o),
(500,890,cs),
(560.542,890,o),
(610,939.458,o),
(610,1000,c),
(590,1000,l)
);
},
{
closed = 1;
nodes = (
(690,893.642,o),
(606.358,810,o),
(500,810,cs),
(328.958,810,o),
(190,671.042,o),
(190,500,c),
(210,500,l),
(210,661.558,o),
(338.442,790,o),
(500,790,cs),
(615.842,790,o),
(710,884.158,o),
(710,1000,c),
(690,1000,l)
);
},
{
closed = 1;
nodes = (
(790,838.442,o),
(661.558,710,o),
(500,710,cs),
(384.158,710,o),
(290,615.842,o),
(290,500,c),
(310,500,l),
(310,606.358,o),
(393.642,690,o),
(500,690,cs),
(671.042,690,o),
(810,828.958,o),
(810,1000,c),
(790,1000,l)
);
},
{
closed = 1;
nodes = (
(890,783.242,o),
(716.758,610,o),
(500,610,cs),
(439.458,610,o),
(390,560.542,o),
(390,500,c),
(410,500,l),
(410,551.058,o),
(448.942,590,o),
(500,590,cs),
(726.242,590,o),
(910,773.758,o),
(910,1000,c),
(890,1000,l)
);
},
{
closed = 1;
nodes = (
(781.4,490,o),
(1010,718.6,o),
(1010,1000,c),
(1010,1010,l),
(0,1010,l),
(0,990,l),
(989.902,990,l),
(984.6,722.7,o),
(768.6,510,o),
(500,510,c),
(500,490,l)
);
},
{
closed = 1;
nodes = (
(218.6,510,o),
(-10,281.4,o),
(-10,0,c),
(-10,-10,l),
(1000,-10,l),
(1000,10,l),
(10.098,10,l),
(15.4,277.3,o),
(231.4,490,o),
(500,490,c),
(500,510,l)
);
},
{
closed = 1;
nodes = (
(590,448.942,o),
(551.058,410,o),
(500,410,cs),
(273.758,410,o),
(90,226.242,o),
(90,0,c),
(110,0,l),
(110,216.758,o),
(283.242,390,o),
(500,390,cs),
(560.542,390,o),
(610,439.458,o),
(610,500,c),
(590,500,l)
);
},
{
closed = 1;
nodes = (
(690,393.642,o),
(606.358,310,o),
(500,310,cs),
(328.958,310,o),
(190,171.042,o),
(190,0,c),
(210,0,l),
(210,161.558,o),
(338.442,290,o),
(500,290,cs),
(615.842,290,o),
(710,384.158,o),
(710,500,c),
(690,500,l)
);
},
{
closed = 1;
nodes = (
(790,338.442,o),
(661.558,210,o),
(500,210,cs),
(384.158,210,o),
(290,115.842,o),
(290,0,c),
(310,0,l),
(310,106.358,o),
(393.642,190,o),
(500,190,cs),
(671.042,190,o),
(810,328.958,o),
(810,500,c),
(790,500,l)
);
},
{
closed = 1;
nodes = (
(890,283.242,o),
(716.758,110,o),
(500,110,cs),
(439.458,110,o),
(390,60.542,o),
(390,0,c),
(410,0,l),
(410,51.058,o),
(448.942,90,o),
(500,90,cs),
(726.242,90,o),
(910,273.758,o),
(910,500,c),
(890,500,l)
);
},
{
closed = 1;
nodes = (
(1000,890,l),
(1000,910,l),
(0,910,l),
(0,890,l)
);
},
{
closed = 1;
nodes = (
(1000,790,l),
(1000,810,l),
(0,810,l),
(0,790,l)
);
},
{
closed = 1;
nodes = (
(1000,690,l),
(1000,710,l),
(0,710,l),
(0,690,l)
);
},
{
closed = 1;
nodes = (
(1000,590,l),
(1000,610,l),
(0,610,l),
(0,590,l)
);
},
{
closed = 1;
nodes = (
(1000,490,l),
(1000,510,l),
(0,510,l),
(0,490,l)
);
},
{
closed = 1;
nodes = (
(0,110,l),
(0,90,l),
(1000,90,l),
(1000,110,l)
);
},
{
closed = 1;
nodes = (
(0,210,l),
(0,190,l),
(1000,190,l),
(1000,210,l)
);
},
{
closed = 1;
nodes = (
(0,310,l),
(0,290,l),
(1000,290,l),
(1000,310,l)
);
},
{
closed = 1;
nodes = (
(0,410,l),
(0,390,l),
(1000,390,l),
(1000,410,l)
);
}
);
width = 1000;
},
{
layerId = m003;
shapes = (
{
closed = 1;
nodes = (
(777.795,-2,o),
(1003.081,223.954,o),
(1001.996,502,c),
(2.004,502,l),
(3.08,776.35,o),
(225.395,998,o),
(500,998,c),
(500,1002,l),
(222.205,1002,o),
(-3.081,776.046,o),
(-1.996,498,c),
(997.996,498,l),
(996.92,223.65,o),
(774.605,2,o),
(500,2,c),
(500,-2,l)
);
},
{
closed = 1;
nodes = (
(598,945.628,o),
(554.372,902,o),
(500,902,cs),
(278.072,902,o),
(98,721.928,o),
(98,500,c),
(102,500,l),
(102,720.072,o),
(279.928,898,o),
(500,898,cs),
(556.228,898,o),
(602,943.772,o),
(602,1000,c),
(598,1000,l)
);
},
{
closed = 1;
nodes = (
(698,890.328,o),
(609.672,802,o),
(500,802,cs),
(333.272,802,o),
(198,666.728,o),
(198,500,c),
(202,500,l),
(202,664.872,o),
(335.128,798,o),
(500,798,cs),
(611.528,798,o),
(702,888.472,o),
(702,1000,c),
(698,1000,l)
);
},
{
closed = 1;
nodes = (
(798,835.128,o),
(664.872,702,o),
(500,702,cs),
(388.472,702,o),
(298,611.528,o),
(298,500,c),
(302,500,l),
(302,609.672,o),
(390.328,698,o),
(500,698,cs),
(666.728,698,o),
(802,833.272,o),
(802,1000,c),
(798,1000,l)
);
},
{
closed = 1;
nodes = (
(898,779.928,o),
(720.072,602,o),
(500,602,cs),
(443.772,602,o),
(398,556.228,o),
(398,500,c),
(402,500,l),
(402,554.372,o),
(445.628,598,o),
(500,598,cs),
(721.928,598,o),
(902,778.072,o),
(902,1000,c),
(898,1000,l)
);
},
{
closed = 1;
nodes = (
(777.1,498,o),
(1002,722.9,o),
(1002,1000,c),
(1002,1002,l),
(0,1002,l),
(0,998,l),
(997.996,998,l),
(996.9,723.6,o),
(774.605,502,o),
(500,502,c),
(500,498,l)
);
},
{
closed = 1;
nodes = (
(222.9,502,o),
(-2,277.1,o),
(-2,0,c),
(-2,-2,l),
(1000,-2,l),
(1000,2,l),
(2.004,2,l),
(3.1,276.4,o),
(225.395,498,o),
(500,498,c),
(500,502,l)
);
},
{
closed = 1;
nodes = (
(598,445.628,o),
(554.372,402,o),
(500,402,cs),
(278.072,402,o),
(98,221.928,o),
(98,0,c),
(102,0,l),
(102,220.072,o),
(279.928,398,o),
(500,398,cs),
(556.228,398,o),
(602,443.772,o),
(602,500,c),
(598,500,l)
);
},
{
closed = 1;
nodes = (
(698,390.328,o),
(609.672,302,o),
(500,302,cs),
(333.272,302,o),
(198,166.728,o),
(198,0,c),
(202,0,l),
(202,164.872,o),
(335.128,298,o),
(500,298,cs),
(611.528,298,o),
(702,388.472,o),
(702,500,c),
(698,500,l)
);
},
{
closed = 1;
nodes = (
(798,335.128,o),
(664.872,202,o),
(500,202,cs),
(388.472,202,o),
(298,111.528,o),
(298,0,c),
(302,0,l),
(302,109.672,o),
(390.328,198,o),
(500,198,cs),
(666.728,198,o),
(802,333.272,o),
(802,500,c),
(798,500,l)
);
},
{
closed = 1;
nodes = (
(898,279.928,o),
(720.072,102,o),
(500,102,cs),
(443.772,102,o),
(398,56.228,o),
(398,0,c),
(402,0,l),
(402,54.372,o),
(445.628,98,o),
(500,98,cs),
(721.928,98,o),
(902,278.072,o),
(902,500,c),
(898,500,l)
);
},
{
closed = 1;
nodes = (
(1000,898,l),
(1000,902,l),
(0,902,l),
(0,898,l)
);
},
{
closed = 1;
nodes = (
(1000,798,l),
(1000,802,l),
(0,802,l),
(0,798,l)
);
},
{
closed = 1;
nodes = (
(1000,698,l),
(1000,702,l),
(0,702,l),
(0,698,l)
);
},
{
closed = 1;
nodes = (
(1000,598,l),
(1000,602,l),
(0,602,l),
(0,598,l)
);
},
{
closed = 1;
nodes = (
(1000,498,l),
(1000,502,l),
(0,502,l),
(0,498,l)
);
},
{
closed = 1;
nodes = (
(0,102,l),
(0,98,l),
(1000,98,l),
(1000,102,l)
);
},
{
closed = 1;
nodes = (
(0,202,l),
(0,198,l),
(1000,198,l),
(1000,202,l)
);
},
{
closed = 1;
nodes = (
(0,302,l),
(0,298,l),
(1000,298,l),
(1000,302,l)
);
},
{
closed = 1;
nodes = (
(0,402,l),
(0,398,l),
(1000,398,l),
(1000,402,l)
);
}
);
width = 1000;
}
);
unicode = 83;
},
{
glyphname = T;
lastChange = "2023-12-13 21:22:00 +0000";
layers = (
{
layerId = m01;
shapes = (
{
closed = 0;
nodes = (
(294.8,0,l),
(294.8,600,l)
);
},
{
closed = 0;
nodes = (
(394.8,0,l),
(394.8,900,l)
);
},
{
closed = 0;
nodes = (
(494.8,0,l),
(500,1000,l)
);
},
{
closed = 0;
nodes = (
(594.8,0,l),
(594.8,900,l)
);
},
{
closed = 0;
nodes = (
(694.8,0,l),
(694.8,600,l)
);
},
{
closed = 0;
nodes = (
(0,500,l),
(1000,500,l)
);
},
{
closed = 0;
nodes = (
(0,600,l),
(1000,600,l)
);
},
{
closed = 0;
nodes = (
(0,700,l),
(1000,700,l)
);
},
{
closed = 0;
nodes = (
(0,800,l),
(1000,800,l)
);
},
{
closed = 0;
nodes = (
(0,900,l),
(1000,900,l)
);
},
{
closed = 0;
nodes = (
(0,1000,l),
(1000,1000,l)
);
}
);
width = 1000;
},
{
layerId = m002;
shapes = (
{
closed = 1;
nodes = (
(284.8,0,l),
(304.8,0,l),
(304.8,600,l),
(284.8,600,l)
);
},
{
closed = 1;
nodes = (
(384.8,0,l),
(404.8,0,l),
(404.8,900,l),
(384.8,900,l)
);
},
{
closed = 1;
nodes = (
(484.8,0,l),
(504.8,0,l),
(510,1000,l),
(490,1000,l)
);
},
{
closed = 1;
nodes = (
(584.8,0,l),
(604.8,0,l),
(604.8,900,l),
(584.8,900,l)
);
},
{
closed = 1;
nodes = (
(684.8,0,l),
(704.8,0,l),
(704.8,600,l),
(684.8,600,l)
);
},
{
closed = 1;
nodes = (
(0,510,l),
(0,490,l),
(1000,490,l),
(1000,510,l)
);
},
{
closed = 1;
nodes = (
(0,610,l),
(0,590,l),
(1000,590,l),
(1000,610,l)
);
},
{
closed = 1;
nodes = (
(0,710,l),
(0,690,l),
(1000,690,l),
(1000,710,l)
);
},
{
closed = 1;
nodes = (
(0,810,l),
(0,790,l),
(1000,790,l),
(1000,810,l)
);
},
{
closed = 1;
nodes = (
(0,910,l),
(0,890,l),
(1000,890,l),
(1000,910,l)
);
},
{
closed = 1;
nodes = (
(0,1010,l),
(0,990,l),
(1000,990,l),
(1000,1010,l)
);
}
);
width = 1000;
},
{
layerId = m003;
shapes = (
{
closed = 1;
nodes = (
(292.8,0,l),
(296.8,0,l),
(296.8,600,l),
(292.8,600,l)
);
},
{
closed = 1;
nodes = (
(392.8,0,l),
(396.8,0,l),
(396.8,900,l),
(392.8,900,l)
);
},
{
closed = 1;
nodes = (
(492.8,0,l),
(496.8,0,l),
(502,1000,l),
(498,1000,l)
);
},
{
closed = 1;
nodes = (
(592.8,0,l),
(596.8,0,l),
(596.8,900,l),
(592.8,900,l)
);
},
{
closed = 1;
nodes = (
(692.8,0,l),
(696.8,0,l),
(696.8,600,l),
(692.8,600,l)
);
},
{
closed = 1;
nodes = (
(0,502,l),
(0,498,l),
(1000,498,l),
(1000,502,l)
);
},
{
closed = 1;
nodes = (
(0,602,l),
(0,598,l),
(1000,598,l),
(1000,602,l)
);
},
{
closed = 1;
nodes = (
(0,702,l),
(0,698,l),
(1000,698,l),
(1000,702,l)
);
},
{
closed = 1;
nodes = (
(0,802,l),
(0,798,l),
(1000,798,l),
(1000,802,l)
);
},
{
closed = 1;
nodes = (
(0,902,l),
(0,898,l),
(1000,898,l),
(1000,902,l)
);
},
{
closed = 1;
nodes = (
(0,1002,l),
(0,998,l),
(1000,998,l),
(1000,1002,l)
);
}
);
width = 1000;
}
);
unicode = 84;
},
{
glyphname = U;
lastChange = "2023-12-13 21:22:00 +0000";
layers = (
{
anchors = (
{
name = top;
pos = (500,1000);
}
);
layerId = m01;
shapes = (
{
closed = 0;
nodes = (
(500,0,l),
(500,1000,l)
);
},
{
closed = 0;
nodes = (
(600,0,l),
(600,1000,l)
);
},
{
closed = 0;
nodes = (
(700,0,l),
(700,1000,l)
);
},
{
closed = 0;
nodes = (
(800,0,l),
(800,1000,l)
);
},
{
closed = 0;
nodes = (
(900,0,l),
(900,1000,l)
);
},
{
closed = 0;
nodes = (
(1000,0,l),
(1000,1000,l)
);
},
{
closed = 0;
nodes = (
(0,1000,l),
(0,0,l),
(500,0,l)
);
},
{
closed = 0;
nodes = (
(100,1000,l),
(100,100,l),
(500,100,l)
);
},
{
closed = 0;
nodes = (
(200,1000,l),
(200,200,l),
(500,200,l)
);
},
{
closed = 0;
nodes = (
(300,1000,l),
(300,300,l),
(500,300,l)
);
},
{
closed = 0;
nodes = (
(400,1000,l),
(400,400,l),
(500,400,l)
);
},
{
closed = 0;
nodes = (
(500,400,l),
(1000,400,l)
);
},
{
closed = 0;
nodes = (
(500,300,l),
(1000,300,l)
);
},
{
closed = 0;
nodes = (
(500,200,l),
(1000,200,l)
);
},
{
closed = 0;
nodes = (
(500,100,l),
(1000,100,l)
);
},
{
closed = 0;
nodes = (
(500,0,l),
(1000,0,l)
);
}
);
width = 1000;
},
{
anchors = (
{
name = top;
pos = (500,1000);
}
);
layerId = m002;
shapes = (
{
closed = 1;
nodes = (
(490,0,l),
(510,0,l),
(510,1000,l),
(490,1000,l)
);
},
{
closed = 1;
nodes = (
(590,0,l),
(610,0,l),
(610,1000,l),
(590,1000,l)
);
},
{
closed = 1;
nodes = (
(690,0,l),
(710,0,l),
(710,1000,l),
(690,1000,l)
);
},
{
closed = 1;
nodes = (
(790,0,l),
(810,0,l),
(810,1000,l),
(790,1000,l)
);
},
{
closed = 1;
nodes = (
(890,0,l),
(910,0,l),
(910,1000,l),
(890,1000,l)
);
},
{
closed = 1;
nodes = (
(990,10,l),
(500,10,l),
(500,-10,l),
(1010,-10,l),
(1010,1000,l),
(990,1000,l)
);
},
{
closed = 1;
nodes = (
(10,10,l),
(10,1000,l),
(-10,1000,l),
(-10,-10,l),
(500,-10,l),
(500,10,l)
);
},
{
closed = 1;
nodes = (
(110,110,l),
(110,1000,l),
(90,1000,l),
(90,90,l),
(500,90,l),
(500,110,l)
);
},
{
closed = 1;
nodes = (
(210,210,l),
(210,1000,l),
(190,1000,l),
(190,190,l),
(500,190,l),
(500,210,l)
);
},
{
closed = 1;
nodes = (
(310,310,l),
(310,1000,l),
(290,1000,l),
(290,290,l),
(500,290,l),
(500,310,l)
);
},
{
closed = 1;
nodes = (
(410,410,l),
(410,1000,l),
(390,1000,l),
(390,390,l),
(500,390,l),
(500,410,l)
);
},
{
closed = 1;
nodes = (
(500,410,l),
(500,390,l),
(1000,390,l),
(1000,410,l)
);
},
{
closed = 1;
nodes = (
(500,310,l),
(500,290,l),
(1000,290,l),
(1000,310,l)
);
},
{
closed = 1;
nodes = (
(500,210,l),
(500,190,l),
(1000,190,l),
(1000,210,l)
);
},
{
closed = 1;
nodes = (
(500,110,l),
(500,90,l),
(1000,90,l),
(1000,110,l)
);
}
);
width = 1000;
},
{
anchors = (
{
name = top;
pos = (500,1000);
}
);
layerId = m003;
shapes = (
{
closed = 1;
nodes = (
(498,0,l),
(502,0,l),
(502,1000,l),
(498,1000,l)
);
},
{
closed = 1;
nodes = (
(598,0,l),
(602,0,l),
(602,1000,l),
(598,1000,l)
);
},
{
closed = 1;
nodes = (
(698,0,l),
(702,0,l),
(702,1000,l),
(698,1000,l)
);
},
{
closed = 1;
nodes = (
(798,0,l),
(802,0,l),
(802,1000,l),
(798,1000,l)
);
},
{
closed = 1;
nodes = (
(898,0,l),
(902,0,l),
(902,1000,l),
(898,1000,l)
);
},
{
closed = 1;
nodes = (
(998,2,l),
(500,2,l),
(500,-2,l),
(1002,-2,l),
(1002,1000,l),
(998,1000,l)
);
},
{
closed = 1;
nodes = (
(2,2,l),
(2,1000,l),
(-2,1000,l),
(-2,-2,l),
(500,-2,l),
(500,2,l)
);
},
{
closed = 1;
nodes = (
(102,102,l),
(102,1000,l),
(98,1000,l),
(98,98,l),
(500,98,l),
(500,102,l)
);
},
{
closed = 1;
nodes = (
(202,202,l),
(202,1000,l),
(198,1000,l),
(198,198,l),
(500,198,l),
(500,202,l)
);
},
{
closed = 1;
nodes = (
(302,302,l),
(302,1000,l),
(298,1000,l),
(298,298,l),
(500,298,l),
(500,302,l)
);
},
{
closed = 1;
nodes = (
(402,402,l),
(402,1000,l),
(398,1000,l),
(398,398,l),
(500,398,l),
(500,402,l)
);
},
{
closed = 1;
nodes = (
(500,402,l),
(500,398,l),
(1000,398,l),
(1000,402,l)
);
},
{
closed = 1;
nodes = (
(500,302,l),
(500,298,l),
(1000,298,l),
(1000,302,l)
);
},
{
closed = 1;
nodes = (
(500,202,l),
(500,198,l),
(1000,198,l),
(1000,202,l)
);
},
{
closed = 1;
nodes = (
(500,102,l),
(500,98,l),
(1000,98,l),
(1000,102,l)
);
}
);
width = 1000;
}
);
unicode = 85;
},
{
glyphname = V;
lastChange = "2023-12-13 21:22:00 +0000";
layers = (
{
layerId = m01;
shapes = (
{
closed = 0;
nodes = (
(400,1000,l),
(700,0,l),
(1000,1000,l)
);
},
{
closed = 0;
nodes = (
(300,1000,l),
(600,0,l),
(900,1000,l)
);
},
{
closed = 0;
nodes = (
(200,1000,l),
(500,0,l),
(800,1000,l)
);
},
{
closed = 0;
nodes = (
(100,1000,l),
(400,0,l),
(700,1000,l)
);
},
{
closed = 0;
nodes = (
(0,1000,l),
(300,0,l),
(600,1000,l)
);
},
{
closed = 0;
nodes = (
(0,1000,l),
(1000,1000,l)
);
},
{
closed = 0;
nodes = (
(0,800,l),
(1000,800,l)
);
},
{
closed = 0;
nodes = (
(0,600,l),
(1000,600,l)
);
},
{
closed = 0;
nodes = (
(0,400,l),
(1000,400,l)
);
},
{
closed = 0;
nodes = (
(0,200,l),
(1000,200,l)
);
},
{
closed = 0;
nodes = (
(0,0,l),
(1000,0,l)
);
}
);
width = 1000;
},
{
layerId = m002;
shapes = (
{
closed = 1;
nodes = (
(-13.4,1010,l),
(289.5,0.1,l),
(310.5,0.1,l),
(500,631.9,l),
(689.5,0.2,l),
(710.5,0.2,l),
(1013.4,1010.1,l)
);
},
{
closed = 1;
nodes = (
(392.6,990,l),
(489.6,666.7,l),
(300,34.801,l),
(13.4,990,l)
);
},
{
closed = 1;
nodes = (
(986.6,990,l),
(700,34.801,l),
(413.4,990,l)
);
},
{
closed = 1;
nodes = (
(600,34.801,l),
(310.44,1000,l),
(289.56,1000,l),
(589.5,0.1,l),
(610.5,0.1,l),
(910.44,1000,l),
(889.56,1000,l)
);
},
{
closed = 1;
nodes = (
(500,34.801,l),
(210.44,1000,l),
(189.56,1000,l),
(489.5,0.1,l),
(510.5,0.1,l),
(810.44,1000,l),
(789.56,1000,l)
);
},
{
closed = 1;
nodes = (
(400,34.801,l),
(110.44,1000,l),
(89.56,1000,l),
(389.5,0.1,l),
(410.5,0.1,l),
(710.44,1000,l),
(689.56,1000,l)
);
},
{
closed = 1;
nodes = (
(0,810,l),
(0,790,l),
(1000,790,l),
(1000,810,l)
);
},
{
closed = 1;
nodes = (
(0,610,l),
(0,590,l),
(1000,590,l),
(1000,610,l)
);
},
{
closed = 1;
nodes = (
(0,410,l),
(0,390,l),
(1000,390,l),
(1000,410,l)
);
},
{
closed = 1;
nodes = (
(0,210,l),
(0,190,l),
(1000,190,l),
(1000,210,l)
);
},
{
closed = 1;
nodes = (
(0,10,l),
(0,-10,l),
(1000,-10,l),
(1000,10,l)
);
}
);
width = 1000;
},
{
layerId = m003;
shapes = (
{
closed = 1;
nodes = (
(-2.7,1002,l),
(297.9,0,l),
(302.1,0,l),
(500,659.7,l),
(697.9,0.1,l),
(702.1,0.1,l),
(1002.7,1002.1,l)
);
},
{
closed = 1;
nodes = (
(398.5,998,l),
(497.9,666.6,l),
(300,7,l),
(2.7,998,l)
);
},
{
closed = 1;
nodes = (
(997.3,998,l),
(700,7,l),
(402.7,998,l)
);
},
{
closed = 1;
nodes = (
(600,6.96,l),
(302.088,1000,l),
(297.912,1000,l),
(597.9,0,l),
(602.1,0,l),
(902.088,1000,l),
(897.912,1000,l)
);
},
{
closed = 1;
nodes = (
(500,6.96,l),
(202.088,1000,l),
(197.912,1000,l),
(497.9,0,l),
(502.1,0,l),
(802.088,1000,l),
(797.912,1000,l)
);
},
{
closed = 1;
nodes = (
(400,6.96,l),
(102.088,1000,l),
(97.912,1000,l),
(397.9,0,l),
(402.1,0,l),
(702.088,1000,l),
(697.912,1000,l)
);
},
{
closed = 1;
nodes = (
(0,802,l),
(0,798,l),
(1000,798,l),
(1000,802,l)
);
},
{
closed = 1;
nodes = (
(0,602,l),
(0,598,l),
(1000,598,l),
(1000,602,l)
);
},
{
closed = 1;
nodes = (
(0,402,l),
(0,398,l),
(1000,398,l),
(1000,402,l)
);
},
{
closed = 1;
nodes = (
(0,202,l),
(0,198,l),
(1000,198,l),
(1000,202,l)
);
},
{
closed = 1;
nodes = (
(0,2,l),
(0,-2,l),
(1000,-2,l),
(1000,2,l)
);
}
);
width = 1000;
}
);
unicode = 86;
},
{
glyphname = W;
lastChange = "2023-12-13 21:22:00 +0000";
layers = (
{
layerId = m01;
shapes = (
{
closed = 0;
nodes = (
(0,1000,l),
(300,0,l)
);
},
{
closed = 0;
nodes = (
(1000,1000,l),
(700,0,l),
(500,1000,l),
(300,0,l),
(0,1000,l)
);
},
{
closed = 0;
nodes = (
(100,1000,l),
(400,0,l),
(600,1000,l)
);
},
{
closed = 0;
nodes = (
(800,1000,l),
(500,0,l),
(200,1000,l)
);
},
{
closed = 0;
nodes = (
(900,1000,l),
(600,0,l),
(400,1000,l)
);
},
{
closed = 0;
nodes = (
(0,1000,l),
(1000,1000,l)
);
},
{
closed = 0;
nodes = (
(0,900,l),
(1000,900,l)
);
},
{
closed = 0;
nodes = (
(0,800,l),
(1000,800,l)
);
},
{
closed = 0;
nodes = (
(0,700,l),
(1000,700,l)
);
},
{
closed = 0;
nodes = (
(0,600,l),
(1000,600,l)
);
},
{
closed = 0;
nodes = (
(0,500,l),
(1000,500,l)
);
},
{
closed = 0;
nodes = (
(0,400,l),
(1000,400,l)
);
},
{
closed = 0;
nodes = (
(0,300,l),
(1000,300,l)
);
},
{
closed = 0;
nodes = (
(0,200,l),
(1000,200,l)
);
},
{
closed = 0;
nodes = (
(0,100,l),
(1000,100,l)
);
},
{
closed = 0;
nodes = (
(0,0,l),
(1000,0,l)
);
}
);
width = 1000;
},
{
layerId = m002;
shapes = (
{
closed = 1;
nodes = (
(310.2,0.2,l),
(500,949,l),
(689.8,0.3,l),
(710.6,0.3,l),
(1013.4,1010.1,l),
(-13.5,1010.1,l),
(289.5,0.2,l)
);
},
{
closed = 1;
nodes = (
(487.8,990,l),
(298.1,41.3,l),
(13.4,990,l)
);
},
{
closed = 1;
nodes = (
(986.6,990,l),
(701.9,41.3,l),
(512.2,990,l)
);
},
{
closed = 1;
nodes = (
(398.057,41.277,l),
(110.44,1000,l),
(89.56,1000,l),
(389.5,0.2,l),
(410.2,0.2,l),
(610.198,1000,l),
(589.802,1000,l)
);
},
{
closed = 1;
nodes = (
(489.5,0.2,l),
(510.5,0.2,l),
(810.44,1000,l),
(789.56,1000,l),
(500,34.801,l),
(210.44,1000,l),
(189.56,1000,l)
);
},
{
closed = 1;
nodes = (
(589.7,0.3,l),
(610.5,0.3,l),
(910.44,1000,l),
(889.56,1000,l),
(601.943,41.277,l),
(410.198,1000,l),
(389.802,1000,l)
);
},
{
closed = 1;
nodes = (
(0,910,l),
(0,890,l),
(1000,890,l),
(1000,910,l)
);
},
{
closed = 1;
nodes = (
(0,810,l),
(0,790,l),
(1000,790,l),
(1000,810,l)
);
},
{
closed = 1;
nodes = (
(0,710,l),
(0,690,l),
(1000,690,l),
(1000,710,l)
);
},
{
closed = 1;
nodes = (
(0,610,l),
(0,590,l),
(1000,590,l),
(1000,610,l)
);
},
{
closed = 1;
nodes = (
(0,510,l),
(0,490,l),
(1000,490,l),
(1000,510,l)
);
},
{
closed = 1;
nodes = (
(0,410,l),
(0,390,l),
(1000,390,l),
(1000,410,l)
);
},
{
closed = 1;
nodes = (
(0,310,l),
(0,290,l),
(1000,290,l),
(1000,310,l)
);
},
{
closed = 1;
nodes = (
(0,210,l),
(0,190,l),
(1000,190,l),
(1000,210,l)
);
},
{
closed = 1;
nodes = (
(0,110,l),
(0,90,l),
(1000,90,l),
(1000,110,l)
);
},
{
closed = 1;
nodes = (
(0,10,l),
(0,-10,l),
(1000,-10,l),
(1000,10,l)
);
}
);
width = 1000;
},
{
layerId = m003;
shapes = (
{
closed = 1;
nodes = (
(302.1,0.1,l),
(500,989.802,l),
(697.9,0,l),
(702.1,0,l),
(1002.7,1002,l),
(-2.7,1002,l),
(297.9,0.1,l)
);
},
{
closed = 1;
nodes = (
(497.6,998,l),
(299.6,8.3,l),
(2.7,998,l)
);
},
{
closed = 1;
nodes = (
(997.3,998,l),
(700.4,8.3,l),
(502.4,998,l)
);
},
{
closed = 1;
nodes = (
(399.611,8.255,l),
(102.088,1000,l),
(97.912,1000,l),
(397.9,0.1,l),
(402.1,0.1,l),
(602.04,1000,l),
(597.96,1000,l)
);
},
{
closed = 1;
nodes = (
(497.9,0.1,l),
(502.1,0.1,l),
(802.088,1000,l),
(797.912,1000,l),
(500,6.96,l),
(202.088,1000,l),
(197.912,1000,l)
);
},
{
closed = 1;
nodes = (
(598,0,l),
(602.1,0,l),
(902.088,1000,l),
(897.912,1000,l),
(600.389,8.255,l),
(402.04,1000,l),
(397.96,1000,l)
);
},
{
closed = 1;
nodes = (
(0,902,l),
(0,898,l),
(1000,898,l),
(1000,902,l)
);
},
{
closed = 1;
nodes = (
(0,802,l),
(0,798,l),
(1000,798,l),
(1000,802,l)
);
},
{
closed = 1;
nodes = (
(0,702,l),
(0,698,l),
(1000,698,l),
(1000,702,l)
);
},
{
closed = 1;
nodes = (
(0,602,l),
(0,598,l),
(1000,598,l),
(1000,602,l)
);
},
{
closed = 1;
nodes = (
(0,502,l),
(0,498,l),
(1000,498,l),
(1000,502,l)
);
},
{
closed = 1;
nodes = (
(0,402,l),
(0,398,l),
(1000,398,l),
(1000,402,l)
);
},
{
closed = 1;
nodes = (
(0,302,l),
(0,298,l),
(1000,298,l),
(1000,302,l)
);
},
{
closed = 1;
nodes = (
(0,202,l),
(0,198,l),
(1000,198,l),
(1000,202,l)
);
},
{
closed = 1;
nodes = (
(0,102,l),
(0,98,l),
(1000,98,l),
(1000,102,l)
);
},
{
closed = 1;
nodes = (
(0,2,l),
(0,-2,l),
(1000,-2,l),
(1000,2,l)
);
}
);
width = 1000;
}
);
unicode = 87;
},
{
glyphname = X;
lastChange = "2023-12-13 21:22:00 +0000";
layers = (
{
layerId = m01;
shapes = (
{
closed = 0;
nodes = (
(250,500,l),
(0,0,l)
);
},
{
closed = 0;
nodes = (
(100,0,l),
(600,1000,l)
);
},
{
closed = 0;
nodes = (
(500,1000,l),
(1000,0,l)
);
},
{
closed = 0;
nodes = (
(200,0,l),
(700,1000,l)
);
},
{
closed = 0;
nodes = (
(300,0,l),
(800,1000,l)
);
},
{
closed = 0;
nodes = (
(400,0,l),
(900,1000,l)
);
},
{
closed = 0;
nodes = (
(900,0,l),
(400,1000,l)
);
},
{
closed = 0;
nodes = (
(800,0,l),
(300,1000,l)
);
},
{
closed = 0;
nodes = (
(700,0,l),
(200,1000,l)
);
},
{
closed = 0;
nodes = (
(600,0,l),
(100,1000,l)
);
},
{
closed = 0;
nodes = (
(750,500,l),
(1000,1000,l)
);
},
{
closed = 0;
nodes = (
(500,0,l),
(0,1000,l)
);
}
);
width = 1000;
},
{
layerId = m002;
shapes = (
{
closed = 1;
nodes = (
(261.18,500,l),
(238.82,500,l),
(-11.18,0,l),
(11.18,0,l)
);
},
{
closed = 1;
nodes = (
(88.82,0,l),
(111.18,0,l),
(611.18,1000,l),
(588.82,1000,l)
);
},
{
closed = 1;
nodes = (
(511.18,1000,l),
(488.82,1000,l),
(988.82,0,l),
(1011.18,0,l)
);
},
{
closed = 1;
nodes = (
(188.82,0,l),
(211.18,0,l),
(711.18,1000,l),
(688.82,1000,l)
);
},
{
closed = 1;
nodes = (
(288.82,0,l),
(311.18,0,l),
(811.18,1000,l),
(788.82,1000,l)
);
},
{
closed = 1;
nodes = (
(388.82,0,l),
(411.18,0,l),
(911.18,1000,l),
(888.82,1000,l)
);
},
{
closed = 1;
nodes = (
(888.82,0,l),
(911.18,0,l),
(411.18,1000,l),
(388.82,1000,l)
);
},
{
closed = 1;
nodes = (
(788.82,0,l),
(811.18,0,l),
(311.18,1000,l),
(288.82,1000,l)
);
},
{
closed = 1;
nodes = (
(688.82,0,l),
(711.18,0,l),
(211.18,1000,l),
(188.82,1000,l)
);
},
{
closed = 1;
nodes = (
(588.82,0,l),
(611.18,0,l),
(111.18,1000,l),
(88.82,1000,l)
);
},
{
closed = 1;
nodes = (
(738.82,500,l),
(761.18,500,l),
(1011.18,1000,l),
(988.82,1000,l)
);
},
{
closed = 1;
nodes = (
(488.82,0,l),
(511.18,0,l),
(11.18,1000,l),
(-11.18,1000,l)
);
}
);
width = 1000;
},
{
layerId = m003;
shapes = (
{
closed = 1;
nodes = (
(252.236,500,l),
(247.764,500,l),
(-2.236,0,l),
(2.236,0,l)
);
},
{
closed = 1;
nodes = (
(97.764,0,l),
(102.236,0,l),
(602.236,1000,l),
(597.764,1000,l)
);
},
{
closed = 1;
nodes = (
(502.236,1000,l),
(497.764,1000,l),
(997.764,0,l),
(1002.236,0,l)
);
},
{
closed = 1;
nodes = (
(197.764,0,l),
(202.236,0,l),
(702.236,1000,l),
(697.764,1000,l)
);
},
{
closed = 1;
nodes = (
(297.764,0,l),
(302.236,0,l),
(802.236,1000,l),
(797.764,1000,l)
);
},
{
closed = 1;
nodes = (
(397.764,0,l),
(402.236,0,l),
(902.236,1000,l),
(897.764,1000,l)
);
},
{
closed = 1;
nodes = (
(897.764,0,l),
(902.236,0,l),
(402.236,1000,l),
(397.764,1000,l)
);
},
{
closed = 1;
nodes = (
(797.764,0,l),
(802.236,0,l),
(302.236,1000,l),
(297.764,1000,l)
);
},
{
closed = 1;
nodes = (
(697.764,0,l),
(702.236,0,l),
(202.236,1000,l),
(197.764,1000,l)
);
},
{
closed = 1;
nodes = (
(597.764,0,l),
(602.236,0,l),
(102.236,1000,l),
(97.764,1000,l)
);
},
{
closed = 1;
nodes = (
(747.764,500,l),
(752.236,500,l),
(1002.236,1000,l),
(997.764,1000,l)
);
},
{
closed = 1;
nodes = (
(497.764,0,l),
(502.236,0,l),
(2.236,1000,l),
(-2.236,1000,l)
);
}
);
width = 1000;
}
);
unicode = 88;
},
{
glyphname = Y;
lastChange = "2023-12-13 21:22:00 +0000";
layers = (
{
layerId = m01;
shapes = (
{
closed = 0;
nodes = (
(301.9,0,l),
(300,1000,l)
);
},
{
closed = 0;
nodes = (
(401.9,0,l),
(400,1000,l)
);
},
{
closed = 0;
nodes = (
(501.9,0,l),
(500,1000,l)
);
},
{
closed = 0;
nodes = (
(600,0,l),
(598.1,1000,l)
);
},
{
closed = 0;
nodes = (
(701.9,0,l),
(700,1000,l)
);
},
{
closed = 0;
nodes = (
(1000,499,l),
(500,300,l),
(0,500,l)
);
},
{
closed = 0;
nodes = (
(1000,399,l),
(500,200,l),
(0,400,l)
);
},
{
closed = 0;
nodes = (
(1000,599,l),
(500,400,l),
(0,600,l)
);
},
{
closed = 0;
nodes = (
(1000,699,l),
(500,500,l),
(0,700,l)
);
},
{
closed = 0;
nodes = (
(1000,799,l),
(500,600,l),
(0,800,l)
);
},
{
closed = 0;
nodes = (
(1000,899,l),
(500,700,l),
(0,900,l)
);
},
{
closed = 0;
nodes = (
(1000,999,l),
(500,800,l),
(0,1000,l)
);
},
{
closed = 0;
nodes = (
(800,1000,l),
(500,900,l),
(200,1000,l)
);
},
{
closed = 0;
nodes = (
(0,0,l),
(1000,0,l)
);
},
{
closed = 0;
nodes = (
(0,100,l),
(1000,100,l)
);
},
{
closed = 0;
nodes = (
(0,200,l),
(300,200,l)
);
},
{
closed = 0;
nodes = (
(700,200,l),
(1000,200,l)
);
}
);
width = 1000;
},
{
layerId = m002;
shapes = (
{
closed = 1;
nodes = (
(291.9,0,l),
(311.9,0,l),
(310,1000,l),
(290,1000,l)
);
},
{
closed = 1;
nodes = (
(391.9,0,l),
(411.9,0,l),
(410,1000,l),
(390,1000,l)
);
},
{
closed = 1;
nodes = (
(491.9,0,l),
(511.9,0,l),
(510,1000,l),
(490,1000,l)
);
},
{
closed = 1;
nodes = (
(590,0,l),
(610,0,l),
(608.1,1000,l),
(588.1,1000,l)
);
},
{
closed = 1;
nodes = (
(691.9,0,l),
(711.9,0,l),
(710,1000,l),
(690,1000,l)
);
},
{
closed = 1;
nodes = (
(499.991,289.233,l),
(1000,488.237,l),
(1000,509.763,l),
(500.009,310.767,l),
(0,510.77,l),
(0,489.23,l)
);
},
{
closed = 1;
nodes = (
(499.991,189.233,l),
(1000,388.237,l),
(1000,409.763,l),
(500.009,210.767,l),
(0,410.77,l),
(0,389.23,l)
);
},
{
closed = 1;
nodes = (
(499.991,389.233,l),
(1000,588.237,l),
(1000,609.763,l),
(500.009,410.767,l),
(0,610.77,l),
(0,589.23,l)
);
},
{
closed = 1;
nodes = (
(499.991,489.233,l),
(1000,688.237,l),
(1000,709.763,l),
(500.009,510.767,l),
(0,710.77,l),
(0,689.23,l)
);
},
{
closed = 1;
nodes = (
(499.991,589.233,l),
(1000,788.237,l),
(1000,809.763,l),
(500.009,610.767,l),
(0,810.77,l),
(0,789.23,l)
);
},
{
closed = 1;
nodes = (
(499.991,689.233,l),
(1000,888.237,l),
(1000,909.763,l),
(500.009,710.767,l),
(0,910.77,l),
(0,889.23,l)
);
},
{
closed = 1;
nodes = (
(499.991,789.233,l),
(1000,988.237,l),
(1000,1009.763,l),
(500.009,810.767,l),
(0,1010.77,l),
(0,989.23,l)
);
},
{
closed = 1;
nodes = (
(500,889.459,l),
(800,989.459,l),
(800,1010.541,l),
(500,910.541,l),
(200,1010.541,l),
(200,989.459,l)
);
},
{
closed = 1;
nodes = (
(0,10,l),
(0,-10,l),
(1000,-10,l),
(1000,10,l)
);
},
{
closed = 1;
nodes = (
(0,110,l),
(0,90,l),
(1000,90,l),
(1000,110,l)
);
},
{
closed = 1;
nodes = (
(0,210,l),
(0,190,l),
(300,190,l),
(300,210,l)
);
},
{
closed = 1;
nodes = (
(700,210,l),
(700,190,l),
(1000,190,l),
(1000,210,l)
);
}
);
width = 1000;
},
{
layerId = m003;
shapes = (
{
closed = 1;
nodes = (
(299.9,0,l),
(303.9,0,l),
(302,1000,l),
(298,1000,l)
);
},
{
closed = 1;
nodes = (
(399.9,0,l),
(403.9,0,l),
(402,1000,l),
(398,1000,l)
);
},
{
closed = 1;
nodes = (
(499.9,0,l),
(503.9,0,l),
(502,1000,l),
(498,1000,l)
);
},
{
closed = 1;
nodes = (
(598,0,l),
(602,0,l),
(600.1,1000,l),
(596.1,1000,l)
);
},
{
closed = 1;
nodes = (
(699.9,0,l),
(703.9,0,l),
(702,1000,l),
(698,1000,l)
);
},
{
closed = 1;
nodes = (
(499.998,297.847,l),
(1000,496.847,l),
(1000,501.153,l),
(500.002,302.153,l),
(0,502.154,l),
(0,497.846,l)
);
},
{
closed = 1;
nodes = (
(499.998,197.847,l),
(1000,396.847,l),
(1000,401.153,l),
(500.002,202.153,l),
(0,402.154,l),
(0,397.846,l)
);
},
{
closed = 1;
nodes = (
(499.998,397.847,l),
(1000,596.847,l),
(1000,601.153,l),
(500.002,402.153,l),
(0,602.154,l),
(0,597.846,l)
);
},
{
closed = 1;
nodes = (
(499.998,497.847,l),
(1000,696.847,l),
(1000,701.153,l),
(500.002,502.153,l),
(0,702.154,l),
(0,697.846,l)
);
},
{
closed = 1;
nodes = (
(499.998,597.847,l),
(1000,796.847,l),
(1000,801.153,l),
(500.002,602.153,l),
(0,802.154,l),
(0,797.846,l)
);
},
{
closed = 1;
nodes = (
(499.998,697.847,l),
(1000,896.847,l),
(1000,901.153,l),
(500.002,702.153,l),
(0,902.154,l),
(0,897.846,l)
);
},
{
closed = 1;
nodes = (
(499.998,797.847,l),
(1000,996.847,l),
(1000,1001.153,l),
(500.002,802.153,l),
(0,1002.154,l),
(0,997.846,l)
);
},
{
closed = 1;
nodes = (
(500,897.892,l),
(800,997.892,l),
(800,1002.108,l),
(500,902.108,l),
(200,1002.108,l),
(200,997.892,l)
);
},
{
closed = 1;
nodes = (
(0,2,l),
(0,-2,l),
(1000,-2,l),
(1000,2,l)
);
},
{
closed = 1;
nodes = (
(0,102,l),
(0,98,l),
(1000,98,l),
(1000,102,l)
);
},
{
closed = 1;
nodes = (
(0,202,l),
(0,198,l),
(300,198,l),
(300,202,l)
);
},
{
closed = 1;
nodes = (
(700,202,l),
(700,198,l),
(1000,198,l),
(1000,202,l)
);
}
);
width = 1000;
}
);
unicode = 89;
},
{
glyphname = Z;
lastChange = "2023-12-13 21:22:00 +0000";
layers = (
{
layerId = m01;
shapes = (
{
closed = 0;
nodes = (
(1000,1000,l),
(0,0,l)
);
},
{
closed = 0;
nodes = (
(800,1000,l),
(300,500,l)
);
},
{
closed = 0;
nodes = (
(600,1000,l),
(100,500,l)
);
},
{
closed = 0;
nodes = (
(400,1000,l),
(0,600,l)
);
},
{
closed = 0;
nodes = (
(200,1000,l),
(0,800,l)
);
},
{
closed = 0;
nodes = (
(200,0,l),
(700,500,l)
);
},
{
closed = 0;
nodes = (
(400,0,l),
(900,500,l)
);
},
{
closed = 0;
nodes = (
(600,0,l),
(1000,400,l)
);
},
{
closed = 0;
nodes = (
(800,0,l),
(1000,200,l)
);
},
{
closed = 0;
nodes = (
(0,1000,l),
(1000,1000,l)
);
},
{
closed = 0;
nodes = (
(0,900,l),
(1000,900,l)
);
},
{
closed = 0;
nodes = (
(0,800,l),
(1000,800,l)
);
},
{
closed = 0;
nodes = (
(0,700,l),
(1000,700,l)
);
},
{
closed = 0;
nodes = (
(0,600,l),
(1000,600,l)
);
},
{
closed = 0;
nodes = (
(0,500,l),
(1000,500,l)
);
},
{
closed = 0;
nodes = (
(0,400,l),
(1000,400,l)
);
},
{
closed = 0;
nodes = (
(0,300,l),
(1000,300,l)
);
},
{
closed = 0;
nodes = (
(0,200,l),
(1000,200,l)
);
},
{
closed = 0;
nodes = (
(0,100,l),
(1000,100,l)
);
},
{
closed = 0;
nodes = (
(0,0,l),
(1000,0,l)
);
}
);
width = 1000;
},
{
layerId = m002;
shapes = (
{
closed = 1;
nodes = (
(24.202,10,l),
(1000,985.7,l),
(1000,1010,l),
(0,1010,l),
(0,990,l),
(975.9,990,l),
(0,14.2,l),
(0,-10,l),
(1000,-10,l),
(1000,10,l)
);
},
{
closed = 1;
nodes = (
(807.071,992.929,l),
(792.929,1007.071,l),
(292.929,507.071,l),
(307.071,492.929,l)
);
},
{
closed = 1;
nodes = (
(607.071,992.929,l),
(592.929,1007.071,l),
(92.929,507.071,l),
(107.071,492.929,l)
);
},
{
closed = 1;
nodes = (
(24.1,610,l),
(407.1,992.9,l),
(392.9,1007.1,l),
(0,614.2,l),
(0,590,l),
(1000,590,l),
(1000,610,l)
);
},
{
closed = 1;
nodes = (
(24.1,810,l),
(207.1,992.9,l),
(192.9,1007.1,l),
(0,814.2,l),
(0,790,l),
(1000,790,l),
(1000,810,l)
);
},
{
closed = 1;
nodes = (
(192.929,7.071,l),
(207.071,-7.071,l),
(707.071,492.929,l),
(692.929,507.071,l)
);
},
{
closed = 1;
nodes = (
(392.929,7.071,l),
(407.071,-7.071,l),
(907.071,492.929,l),
(892.929,507.071,l)
);
},
{
closed = 1;
nodes = (
(0,410,l),
(0,390,l),
(975.9,390,l),
(592.9,7.1,l),
(607.1,-7.1,l),
(1000,385.8,l),
(1000,410,l)
);
},
{
closed = 1;
nodes = (
(0,210,l),
(0,190,l),
(975.9,190,l),
(792.9,7.1,l),
(807.1,-7.1,l),
(1000,185.8,l),
(1000,210,l)
);
},
{
closed = 1;
nodes = (
(0,910,l),
(0,890,l),
(1000,890,l),
(1000,910,l)
);
},
{
closed = 1;
nodes = (
(0,710,l),
(0,690,l),
(1000,690,l),
(1000,710,l)
);
},
{
closed = 1;
nodes = (
(0,510,l),
(0,490,l),
(1000,490,l),
(1000,510,l)
);
},
{
closed = 1;
nodes = (
(0,310,l),
(0,290,l),
(1000,290,l),
(1000,310,l)
);
},
{
closed = 1;
nodes = (
(0,110,l),
(0,90,l),
(1000,90,l),
(1000,110,l)
);
}
);
width = 1000;
},
{
layerId = m003;
shapes = (
{
closed = 1;
nodes = (
(4.8,2,l),
(1000,997.2,l),
(1000,1002,l),
(0,1002,l),
(0,998,l),
(995.2,998,l),
(0,2.8,l),
(0,-2,l),
(1000,-2,l),
(1000,2,l)
);
},
{
closed = 1;
nodes = (
(801.414,998.586,l),
(798.586,1001.414,l),
(298.586,501.414,l),
(301.414,498.586,l)
);
},
{
closed = 1;
nodes = (
(601.414,998.586,l),
(598.586,1001.414,l),
(98.586,501.414,l),
(101.414,498.586,l)
);
},
{
closed = 1;
nodes = (
(4.8,602,l),
(401.4,998.6,l),
(398.6,1001.4,l),
(0,602.8,l),
(0,598,l),
(1000,598,l),
(1000,602,l)
);
},
{
closed = 1;
nodes = (
(4.8,802,l),
(201.4,998.6,l),
(198.6,1001.4,l),
(0,802.8,l),
(0,798,l),
(1000,798,l),
(1000,802,l)
);
},
{
closed = 1;
nodes = (
(198.586,1.414,l),
(201.414,-1.414,l),
(701.414,498.586,l),
(698.586,501.414,l)
);
},
{
closed = 1;
nodes = (
(398.586,1.414,l),
(401.414,-1.414,l),
(901.414,498.586,l),
(898.586,501.414,l)
);
},
{
closed = 1;
nodes = (
(0,402,l),
(0,398,l),
(995.2,398,l),
(598.6,1.4,l),
(601.4,-1.4,l),
(1000,397.2,l),
(1000,402,l)
);
},
{
closed = 1;
nodes = (
(0,202,l),
(0,198,l),
(995.2,198,l),
(798.6,1.4,l),
(801.4,-1.4,l),
(1000,197.2,l),
(1000,202,l)
);
},
{
closed = 1;
nodes = (
(0,902,l),
(0,898,l),
(1000,898,l),
(1000,902,l)
);
},
{
closed = 1;
nodes = (
(0,702,l),
(0,698,l),
(1000,698,l),
(1000,702,l)
);
},
{
closed = 1;
nodes = (
(0,502,l),
(0,498,l),
(1000,498,l),
(1000,502,l)
);
},
{
closed = 1;
nodes = (
(0,302,l),
(0,298,l),
(1000,298,l),
(1000,302,l)
);
},
{
closed = 1;
nodes = (
(0,102,l),
(0,98,l),
(1000,98,l),
(1000,102,l)
);
}
);
width = 1000;
}
);
unicode = 90;
},
{
glyphname = A.cv01;
lastChange = "2023-12-13 21:22:00 +0000";
layers = (
{
anchors = (
{
name = top;
pos = (500,1000);
}
);
layerId = m01;
shapes = (
{
closed = 0;
nodes = (
(400,0,l),
(500,200,l),
(600,0,l)
);
},
{
closed = 0;
nodes = (
(300,0,l),
(500,400,l),
(700,0,l)
);
},
{
closed = 0;
nodes = (
(200,0,l),
(500,600,l),
(800,0,l)
);
},
{
closed = 0;
nodes = (
(100,0,l),
(500,800,l),
(900,0,l)
);
},
{
closed = 0;
nodes = (
(0,0,l),
(500,1000,l),
(1000,0,l)
);
},
{
closed = 0;
nodes = (
(0,200,l),
(400,1000,l)
);
},
{
closed = 0;
nodes = (
(0,400,l),
(300,1000,l)
);
},
{
closed = 0;
nodes = (
(0,600,l),
(200,1000,l)
);
},
{
closed = 0;
nodes = (
(0,800,l),
(100,1000,l)
);
},
{
closed = 0;
nodes = (
(1000,200,l),
(600,1000,l)
);
},
{
closed = 0;
nodes = (
(1000,400,l),
(700,1000,l)
);
},
{
closed = 0;
nodes = (
(1000,600,l),
(800,1000,l)
);
},
{
closed = 0;
nodes = (
(1000,800,l),
(900,1000,l)
);
}
);
width = 1000;
},
{
anchors = (
{
name = top;
pos = (500,1000);
}
);
layerId = m002;
shapes = (
{
closed = 1;
nodes = (
(500,222.361,l),
(388.82,0,l),
(411.18,0,l),
(500,177.639,l),
(588.82,0,l),
(611.18,0,l)
);
},
{
closed = 1;
nodes = (
(500,422.361,l),
(288.82,0,l),
(311.18,0,l),
(500,377.639,l),
(688.82,0,l),
(711.18,0,l)
);
},
{
closed = 1;
nodes = (
(500,622.361,l),
(188.82,0,l),
(211.18,0,l),
(500,577.639,l),
(788.82,0,l),
(811.18,0,l)
);
},
{
closed = 1;
nodes = (
(500,822.361,l),
(88.82,0,l),
(111.18,0,l),
(500,777.639,l),
(888.82,0,l),
(911.18,0,l)
);
},
{
closed = 1;
nodes = (
(500,1022.361,l),
(-11.18,0,l),
(11.18,0,l),
(500,977.639,l),
(988.82,0,l),
(1011.18,0,l)
);
},
{
closed = 1;
nodes = (
(0,222.3,l),
(0,177.6,l),
(411.18,1000,l),
(388.82,1000,l)
);
},
{
closed = 1;
nodes = (
(0,422.3,l),
(0,376.8,l),
(311.18,1000,l),
(288.82,1000,l)
);
},
{
closed = 1;
nodes = (
(0,622.3,l),
(0,577.6,l),
(211.18,1000,l),
(188.82,1000,l)
);
},
{
closed = 1;
nodes = (
(0,822.4,l),
(-0.1,777.4,l),
(111.18,1000,l),
(88.82,1000,l)
);
},
{
closed = 1;
nodes = (
(999.9,177.8,l),
(999.9,222.6,l),
(611.18,1000,l),
(588.82,1000,l)
);
},
{
closed = 1;
nodes = (
(1000.1,377.4,l),
(1000.2,422.6,l),
(711.18,1000,l),
(688.82,1000,l)
);
},
{
closed = 1;
nodes = (
(1000,577.6,l),
(999.9,622.6,l),
(811.18,1000,l),
(788.82,1000,l)
);
},
{
closed = 1;
nodes = (
(1000.1,777.4,l),
(1000,822.3,l),
(911.18,1000,l),
(888.82,1000,l)
);
}
);
width = 1000;
},
{
anchors = (
{
name = top;
pos = (500,1000);
}
);
layerId = m003;
shapes = (
{
closed = 1;
nodes = (
(500,204.472,l),
(397.764,0,l),
(402.236,0,l),
(500,195.528,l),
(597.764,0,l),
(602.236,0,l)
);
},
{
closed = 1;
nodes = (
(500,404.472,l),
(297.764,0,l),
(302.236,0,l),
(500,395.528,l),
(697.764,0,l),
(702.236,0,l)
);
},
{
closed = 1;
nodes = (
(500,604.472,l),
(197.764,0,l),
(202.236,0,l),
(500,595.528,l),
(797.764,0,l),
(802.236,0,l)
);
},
{
closed = 1;
nodes = (
(500,804.472,l),
(97.764,0,l),
(102.236,0,l),
(500,795.528,l),
(897.764,0,l),
(902.236,0,l)
);
},
{
closed = 1;
nodes = (
(500,1004.472,l),
(-2.236,0,l),
(2.236,0,l),
(500,995.528,l),
(997.764,0,l),
(1002.236,0,l)
);
},
{
closed = 1;
nodes = (
(0,204.4,l),
(0,195.6,l),
(402.236,1000,l),
(397.764,1000,l)
);
},
{
closed = 1;
nodes = (
(0,404.4,l),
(0,395.5,l),
(302.236,1000,l),
(297.764,1000,l)
);
},
{
closed = 1;
nodes = (
(0,604.3,l),
(0,595.5,l),
(202.236,1000,l),
(197.764,1000,l)
);
},
{
closed = 1;
nodes = (
(0,804.5,l),
(0,795.5,l),
(102.236,1000,l),
(97.764,1000,l)
);
},
{
closed = 1;
nodes = (
(1000,195.5,l),
(1000,204.5,l),
(602.236,1000,l),
(597.764,1000,l)
);
},
{
closed = 1;
nodes = (
(1000,395.5,l),
(1000,404.6,l),
(702.236,1000,l),
(697.764,1000,l)
);
},
{
closed = 1;
nodes = (
(1000,595.5,l),
(1000,604.5,l),
(802.236,1000,l),
(797.764,1000,l)
);
},
{
closed = 1;
nodes = (
(1000,795.5,l),
(1000,804.5,l),
(902.236,1000,l),
(897.764,1000,l)
);
}
);
width = 1000;
}
);
},
{
glyphname = P.cv01;
lastChange = "2023-12-13 21:22:00 +0000";
layers = (
{
layerId = m01;
shapes = (
{
closed = 0;
nodes = (
(0,0,l),
(0,1000,l),
(550,1000,ls),
(798.5,1000,o),
(1000,798.5,o),
(1000,550,cs),
(1000,301.4,o),
(798.5,100,o),
(550,100,cs),
(0,100,l)
);
},
{
closed = 0;
nodes = (
(100,0,l),
(100,1000,l)
);
},
{
closed = 0;
nodes = (
(200,0,l),
(200,1000,l)
);
},
{
closed = 0;
nodes = (
(300,0,l),
(300,1000,l)
);
},
{
closed = 0;
nodes = (
(400,0,l),
(400,1000,l)
);
},
{
closed = 0;
nodes = (
(500,0,l),
(500,1000,l)
);
},
{
closed = 0;
nodes = (
(0,900,l),
(550,900,ls),
(743.3,900,o),
(900,743.3,o),
(900,550,cs),
(900,356.7,o),
(743.3,200,o),
(550,200,cs),
(0,200,l)
);
},
{
closed = 0;
nodes = (
(0,800,l),
(550,800,ls),
(688.1,800,o),
(800,688,o),
(800,550,cs),
(800,411.9,o),
(688.1,300,o),
(550,300,cs),
(0,300,l)
);
},
{
closed = 0;
nodes = (
(0,700,l),
(550,700,ls),
(632.8,700,o),
(700,632.8,o),
(700,550,cs),
(700,467.1,o),
(632.8,400,o),
(550,400,cs),
(0,400,l)
);
},
{
closed = 0;
nodes = (
(0,600,l),
(550,600,ls),
(577.6,600,o),
(600,577.6,o),
(600,550,cs),
(600,521.3,o),
(577.6,500,o),
(550,500,cs),
(0,500,l)
);
}
);
width = 1000;
},
{
layerId = m003;
shapes = (
{
closed = 1;
nodes = (
(550,96.68,ls),
(799.528,96.68,o),
(1002,298.899,o),
(1002,548.34,cs),
(1002,797.681,o),
(799.528,1000,o),
(550,1000,cs),
(-2,1000,l),
(-2,0,l),
(2,0,l),
(2,996,l),
(550,996,ls),
(797.472,996,o),
(998,795.623,o),
(998,548.34,cs),
(998,300.957,o),
(797.472,100.68,o),
(550,100.68,cs),
(0,100.68,l),
(0,96.68,l)
);
},
{
closed = 1;
nodes = (
(98,0,l),
(102,0,l),
(102,1000,l),
(98,1000,l)
);
},
{
closed = 1;
nodes = (
(198,0,l),
(202,0,l),
(202,1000,l),
(198,1000,l)
);
},
{
closed = 1;
nodes = (
(298,0,l),
(302,0,l),
(302,1000,l),
(298,1000,l)
);
},
{
closed = 1;
nodes = (
(398,0,l),
(402,0,l),
(402,1000,l),
(398,1000,l)
);
},
{
closed = 1;
nodes = (
(498,0,l),
(502,0,l),
(502,1000,l),
(498,1000,l)
);
},
{
closed = 1;
nodes = (
(550,198,ls),
(744.328,198,o),
(902,355.672,o),
(902,550,cs),
(902,744.328,o),
(744.328,902,o),
(550,902,cs),
(0,902,l),
(0,898,l),
(550,898,ls),
(742.272,898,o),
(898,742.272,o),
(898,550,cs),
(898,357.728,o),
(742.272,202,o),
(550,202,cs),
(0,202,l),
(0,198,l)
);
},
{
closed = 1;
nodes = (
(550,298,ls),
(689.128,298,o),
(802,410.872,o),
(802,550,cs),
(802,689.028,o),
(689.129,802,o),
(550,802,cs),
(0,802,l),
(0,798,l),
(550,798,ls),
(687.071,798,o),
(798,686.972,o),
(798,550,cs),
(798,412.928,o),
(687.072,302,o),
(550,302,cs),
(0,302,l),
(0,298,l)
);
},
{
closed = 1;
nodes = (
(550,398,ls),
(633.828,398,o),
(702,466.071,o),
(702,550,cs),
(702,633.828,o),
(633.828,702,o),
(550,702,cs),
(0,702,l),
(0,698,l),
(550,698,ls),
(631.772,698,o),
(698,631.772,o),
(698,550,cs),
(698,468.129,o),
(631.772,402,o),
(550,402,cs),
(0,402,l),
(0,398,l)
);
},
{
closed = 1;
nodes = (
(550,498,ls),
(578.599,498,o),
(602,520.242,o),
(602,550,cs),
(602,578.628,o),
(578.628,602,o),
(550,602,cs),
(0,602,l),
(0,598,l),
(550,598,ls),
(576.572,598,o),
(598,576.572,o),
(598,550,cs),
(598,522.358,o),
(576.601,502,o),
(550,502,cs),
(0,502,l),
(0,498,l)
);
}
);
width = 1000;
},
{
layerId = m002;
shapes = (
{
closed = 1;
nodes = (
(550,83.4,ls),
(804.03,83.4,o),
(1010,288.484,o),
(1010,541.7,cs),
(1010,794.814,o),
(804.031,1000,o),
(550,1000,cs),
(-10,1000,l),
(-10,0,l),
(10,0,l),
(10,980,l),
(550,980,ls),
(792.969,980,o),
(990,783.708,o),
(990,541.7,cs),
(990,299.594,o),
(792.97,103.4,o),
(550,103.4,cs),
(0,103.4,l),
(0,83.4,l)
);
},
{
closed = 1;
nodes = (
(90,0,l),
(110,0,l),
(110,1000,l),
(90,1000,l)
);
},
{
closed = 1;
nodes = (
(190,0,l),
(210,0,l),
(210,1000,l),
(190,1000,l)
);
},
{
closed = 1;
nodes = (
(290,0,l),
(310,0,l),
(310,1000,l),
(290,1000,l)
);
},
{
closed = 1;
nodes = (
(390,0,l),
(410,0,l),
(410,1000,l),
(390,1000,l)
);
},
{
closed = 1;
nodes = (
(490,0,l),
(510,0,l),
(510,1000,l),
(490,1000,l)
);
},
{
closed = 1;
nodes = (
(550,190,ls),
(748.842,190,o),
(910,351.158,o),
(910,550,cs),
(910,748.842,o),
(748.842,910,o),
(550,910,cs),
(0,910,l),
(0,890,l),
(550,890,ls),
(737.758,890,o),
(890,737.758,o),
(890,550,cs),
(890,362.242,o),
(737.758,210,o),
(550,210,cs),
(0,210,l),
(0,190,l)
);
},
{
closed = 1;
nodes = (
(550,290,ls),
(693.642,290,o),
(810,406.358,o),
(810,550,cs),
(810,693.54,o),
(693.645,810,o),
(550,810,cs),
(0,810,l),
(0,790,l),
(550,790,ls),
(682.555,790,o),
(790,682.46,o),
(790,550,cs),
(790,417.442,o),
(682.558,310,o),
(550,310,cs),
(0,310,l),
(0,290,l)
);
},
{
closed = 1;
nodes = (
(550,390,ls),
(638.338,390,o),
(710,461.554,o),
(710,550,cs),
(710,638.342,o),
(638.342,710,o),
(550,710,cs),
(0,710,l),
(0,690,l),
(550,690,ls),
(627.258,690,o),
(690,627.258,o),
(690,550,cs),
(690,472.646,o),
(627.262,410,o),
(550,410,cs),
(0,410,l),
(0,390,l)
);
},
{
closed = 1;
nodes = (
(550,490,ls),
(582.995,490,o),
(610,515.61,o),
(610,550,cs),
(610,583.142,o),
(583.142,610,o),
(550,610,cs),
(0,610,l),
(0,590,l),
(550,590,ls),
(572.058,590,o),
(590,572.058,o),
(590,550,cs),
(590,526.99,o),
(572.205,510,o),
(550,510,cs),
(0,510,l),
(0,490,l)
);
}
);
width = 1000;
}
);
},
{
glyphname = a;
lastChange = "2023-12-13 21:22:00 +0000";
layers = (
{
anchors = (
{
name = top;
pos = (500,1000);
}
);
layerId = m01;
shapes = (
{
closed = 0;
nodes = (
(1000,0,l),
(1000,500,ls),
(1000,776.1,o),
(776.1,1000,o),
(500,1000,cs),
(222.9,1000,o),
(0,776.1,o),
(0,500,cs),
(0,0,l)
);
},
{
closed = 0;
nodes = (
(900,0,l),
(900,500,ls),
(900,720.9,o),
(719.9,900,o),
(500,900,cs),
(279.1,900,o),
(100,720.9,o),
(100,500,cs),
(100,0,l)
);
},
{
closed = 0;
nodes = (
(800,0,l),
(800,500,ls),
(800,665.7,o),
(665.7,800,o),
(500,800,cs),
(334.3,800,o),
(200,665.7,o),
(200,500,cs),
(200,0,l)
);
},
{
closed = 0;
nodes = (
(700,0,l),
(700,500,ls),
(700,610.5,o),
(610.5,700,o),
(500,700,cs),
(389.5,700,o),
(300,610.5,o),
(300,500,cs),
(300,0,l)
);
},
{
closed = 0;
nodes = (
(600,0,l),
(600,500,ls),
(600,555.2,o),
(555.2,600,o),
(500,600,cs),
(444.8,600,o),
(400,555.2,o),
(400,500,cs),
(400,0,l)
);
},
{
closed = 0;
nodes = (
(500,0,l),
(500,500,l)
);
}
);
width = 1000;
},
{
anchors = (
{
name = top;
pos = (500,1000);
}
);
layerId = m002;
shapes = (
{
closed = 1;
nodes = (
(10,500,ls),
(10,770.571,o),
(228.455,990,o),
(500,990,cs),
(770.558,990,o),
(990,770.558,o),
(990,500,cs),
(990,0,l),
(1010,0,l),
(1010,500,ls),
(1010,781.642,o),
(781.642,1010,o),
(500,1010,cs),
(217.345,1010,o),
(-10,781.629,o),
(-10,500,cs),
(-10,0,l),
(10,0,l)
);
},
{
closed = 1;
nodes = (
(110,500,ls),
(110,715.358,o),
(284.642,890,o),
(500,890,cs),
(714.374,890,o),
(890,715.342,o),
(890,500,cs),
(890,0,l),
(910,0,l),
(910,500,ls),
(910,726.458,o),
(725.426,910,o),
(500,910,cs),
(273.558,910,o),
(90,726.442,o),
(90,500,cs),
(90,0,l),
(110,0,l)
);
},
{
closed = 1;
nodes = (
(210,500,ls),
(210,660.158,o),
(339.842,790,o),
(500,790,cs),
(660.158,790,o),
(790,660.158,o),
(790,500,cs),
(790,0,l),
(810,0,l),
(810,500,ls),
(810,671.242,o),
(671.242,810,o),
(500,810,cs),
(328.758,810,o),
(190,671.242,o),
(190,500,cs),
(190,0,l),
(210,0,l)
);
},
{
closed = 1;
nodes = (
(310,500,ls),
(310,604.958,o),
(395.042,690,o),
(500,690,cs),
(604.958,690,o),
(690,604.958,o),
(690,500,cs),
(690,0,l),
(710,0,l),
(710,500,ls),
(710,616.042,o),
(616.042,710,o),
(500,710,cs),
(383.958,710,o),
(290,616.042,o),
(290,500,cs),
(290,0,l),
(310,0,l)
);
},
{
closed = 1;
nodes = (
(410,500,ls),
(410,549.658,o),
(450.342,590,o),
(500,590,cs),
(549.658,590,o),
(590,549.658,o),
(590,500,cs),
(590,0,l),
(610,0,l),
(610,500,ls),
(610,560.742,o),
(560.742,610,o),
(500,610,cs),
(439.258,610,o),
(390,560.742,o),
(390,500,cs),
(390,0,l),
(410,0,l)
);
},
{
closed = 1;
nodes = (
(490,0,l),
(510,0,l),
(510,500,l),
(490,500,l)
);
}
);
width = 1000;
},
{
anchors = (
{
name = top;
pos = (500,1000);
}
);
layerId = m003;
shapes = (
{
closed = 1;
nodes = (
(2,500,ls),
(2,775.074,o),
(223.931,998,o),
(500,998,cs),
(775.072,998,o),
(998,775.072,o),
(998,500,cs),
(998,0,l),
(1002,0,l),
(1002,500,ls),
(1002,777.128,o),
(777.128,1002,o),
(500,1002,cs),
(221.869,1002,o),
(-2,777.126,o),
(-2,500,cs),
(-2,0,l),
(2,0,l)
);
},
{
closed = 1;
nodes = (
(102,500,ls),
(102,719.872,o),
(280.128,898,o),
(500,898,cs),
(718.875,898,o),
(898,719.868,o),
(898,500,cs),
(898,0,l),
(902,0,l),
(902,500,ls),
(902,721.932,o),
(720.925,902,o),
(500,902,cs),
(278.072,902,o),
(98,721.928,o),
(98,500,cs),
(98,0,l),
(102,0,l)
);
},
{
closed = 1;
nodes = (
(202,500,ls),
(202,664.672,o),
(335.328,798,o),
(500,798,cs),
(664.672,798,o),
(798,664.672,o),
(798,500,cs),
(798,0,l),
(802,0,l),
(802,500,ls),
(802,666.728,o),
(666.728,802,o),
(500,802,cs),
(333.272,802,o),
(198,666.728,o),
(198,500,cs),
(198,0,l),
(202,0,l)
);
},
{
closed = 1;
nodes = (
(302,500,ls),
(302,609.472,o),
(390.528,698,o),
(500,698,cs),
(609.472,698,o),
(698,609.472,o),
(698,500,cs),
(698,0,l),
(702,0,l),
(702,500,ls),
(702,611.528,o),
(611.528,702,o),
(500,702,cs),
(388.472,702,o),
(298,611.528,o),
(298,500,cs),
(298,0,l),
(302,0,l)
);
},
{
closed = 1;
nodes = (
(402,500,ls),
(402,554.172,o),
(445.828,598,o),
(500,598,cs),
(554.172,598,o),
(598,554.172,o),
(598,500,cs),
(598,0,l),
(602,0,l),
(602,500,ls),
(602,556.228,o),
(556.228,602,o),
(500,602,cs),
(443.772,602,o),
(398,556.228,o),
(398,500,cs),
(398,0,l),
(402,0,l)
);
},
{
closed = 1;
nodes = (
(498,0,l),
(502,0,l),
(502,500,l),
(498,500,l)
);
}
);
width = 1000;
}
);
unicode = 97;
},
{
glyphname = b;
lastChange = "2023-12-13 21:22:00 +0000";
layers = (
{
layerId = m01;
shapes = (
{
closed = 0;
nodes = (
(0,400,l),
(700,400,ls),
(865.7,400,o),
(1000,534.3,o),
(1000,700,cs),
(1000,865.7,o),
(865.7,1000,o),
(700,1000,cs),
(0,1000,l)
);
},
{
closed = 0;
nodes = (
(0,500,l),
(700,500,ls),
(810.5,500,o),
(900,589.5,o),
(900,700,cs),
(900,810.5,o),
(810.5,900,o),
(700,900,cs),
(0,900,l)
);
},
{
closed = 0;
nodes = (
(0,600,l),
(700,600,ls),
(755.2,600,o),
(800,644.8,o),
(800,700,cs),
(800,755.2,o),
(755.2,800,o),
(700,800,cs),
(0,800,l)
);
},
{
closed = 0;
nodes = (
(700,600,l),
(865.7,600,o),
(1000,465.7,o),
(1000,300,cs),
(1000,134.3,o),
(865.7,0,o),
(700,0,cs),
(0,0,l)
);
},
{
closed = 0;
nodes = (
(700,500,l),
(810.5,500,o),
(900,410.5,o),
(900,300,cs),
(900,189.5,o),
(810.5,100,o),
(700,100,cs),
(0,100,l)
);
},
{
closed = 0;
nodes = (
(700,400,l),
(755.2,400,o),
(800,355.2,o),
(800,300,cs),
(800,244.8,o),
(755.2,200,o),
(700,200,cs),
(0,200,l)
);
},
{
closed = 0;
nodes = (
(700,700,l),
(0,700,l)
);
},
{
closed = 0;
nodes = (
(700,300,l),
(0,300,l)
);
}
);
width = 1000;
},
{
layerId = m002;
shapes = (
{
closed = 1;
nodes = (
(700,990,ls),
(860.158,990,o),
(990,860.158,o),
(990,700,cs),
(990,539.842,o),
(860.158,410,o),
(700,410,cs),
(0,410,l),
(0,390,l),
(700,390,ls),
(871.242,390,o),
(1010,528.758,o),
(1010,700,cs),
(1010,871.242,o),
(871.242,1010,o),
(700,1010,cs),
(0,1010,l),
(0,990,l)
);
},
{
closed = 1;
nodes = (
(700,890,ls),
(804.958,890,o),
(890,804.958,o),
(890,700,cs),
(890,595.042,o),
(804.958,510,o),
(700,510,cs),
(0,510,l),
(0,490,l),
(700,490,ls),
(816.042,490,o),
(910,583.958,o),
(910,700,cs),
(910,816.042,o),
(816.042,910,o),
(700,910,cs),
(0,910,l),
(0,890,l)
);
},
{
closed = 1;
nodes = (
(700,790,ls),
(749.658,790,o),
(790,749.658,o),
(790,700,cs),
(790,650.342,o),
(749.658,610,o),
(700,610,cs),
(0,610,l),
(0,590,l),
(700,590,ls),
(760.742,590,o),
(810,639.258,o),
(810,700,cs),
(810,760.742,o),
(760.742,810,o),
(700,810,cs),
(0,810,l),
(0,790,l)
);
},
{
closed = 1;
nodes = (
(700,-10,ls),
(871.242,-10,o),
(1010,128.758,o),
(1010,300,cs),
(1010,471.242,o),
(871.242,610,o),
(700,610,c),
(700,590,l),
(860.158,590,o),
(990,460.158,o),
(990,300,cs),
(990,139.842,o),
(860.158,10,o),
(700,10,cs),
(0,10,l),
(0,-10,l)
);
},
{
closed = 1;
nodes = (
(700,90,ls),
(816.042,90,o),
(910,183.958,o),
(910,300,cs),
(910,416.042,o),
(816.042,510,o),
(700,510,c),
(700,490,l),
(804.958,490,o),
(890,404.958,o),
(890,300,cs),
(890,195.042,o),
(804.958,110,o),
(700,110,cs),
(0,110,l),
(0,90,l)
);
},
{
closed = 1;
nodes = (
(700,190,ls),
(760.742,190,o),
(810,239.258,o),
(810,300,cs),
(810,360.742,o),
(760.742,410,o),
(700,410,c),
(700,390,l),
(749.658,390,o),
(790,349.658,o),
(790,300,cs),
(790,250.342,o),
(749.658,210,o),
(700,210,cs),
(0,210,l),
(0,190,l)
);
},
{
closed = 1;
nodes = (
(700,690,l),
(700,710,l),
(0,710,l),
(0,690,l)
);
},
{
closed = 1;
nodes = (
(700,290,l),
(700,310,l),
(0,310,l),
(0,290,l)
);
}
);
width = 1000;
},
{
layerId = m003;
shapes = (
{
closed = 1;
nodes = (
(700,998,ls),
(864.672,998,o),
(998,864.672,o),
(998,700,cs),
(998,535.328,o),
(864.672,402,o),
(700,402,cs),
(0,402,l),
(0,398,l),
(700,398,ls),
(866.728,398,o),
(1002,533.272,o),
(1002,700,cs),
(1002,866.728,o),
(866.728,1002,o),
(700,1002,cs),
(0,1002,l),
(0,998,l)
);
},
{
closed = 1;
nodes = (
(700,898,ls),
(809.472,898,o),
(898,809.472,o),
(898,700,cs),
(898,590.528,o),
(809.472,502,o),
(700,502,cs),
(0,502,l),
(0,498,l),
(700,498,ls),
(811.528,498,o),
(902,588.472,o),
(902,700,cs),
(902,811.528,o),
(811.528,902,o),
(700,902,cs),
(0,902,l),
(0,898,l)
);
},
{
closed = 1;
nodes = (
(700,798,ls),
(754.172,798,o),
(798,754.172,o),
(798,700,cs),
(798,645.828,o),
(754.172,602,o),
(700,602,cs),
(0,602,l),
(0,598,l),
(700,598,ls),
(756.228,598,o),
(802,643.772,o),
(802,700,cs),
(802,756.228,o),
(756.228,802,o),
(700,802,cs),
(0,802,l),
(0,798,l)
);
},
{
closed = 1;
nodes = (
(700,-2,ls),
(866.728,-2,o),
(1002,133.272,o),
(1002,300,cs),
(1002,466.728,o),
(866.728,602,o),
(700,602,c),
(700,598,l),
(864.672,598,o),
(998,464.672,o),
(998,300,cs),
(998,135.328,o),
(864.672,2,o),
(700,2,cs),
(0,2,l),
(0,-2,l)
);
},
{
closed = 1;
nodes = (
(700,98,ls),
(811.528,98,o),
(902,188.472,o),
(902,300,cs),
(902,411.528,o),
(811.528,502,o),
(700,502,c),
(700,498,l),
(809.472,498,o),
(898,409.472,o),
(898,300,cs),
(898,190.528,o),
(809.472,102,o),
(700,102,cs),
(0,102,l),
(0,98,l)
);
},
{
closed = 1;
nodes = (
(700,198,ls),
(756.228,198,o),
(802,243.772,o),
(802,300,cs),
(802,356.228,o),
(756.228,402,o),
(700,402,c),
(700,398,l),
(754.172,398,o),
(798,354.172,o),
(798,300,cs),
(798,245.828,o),
(754.172,202,o),
(700,202,cs),
(0,202,l),
(0,198,l)
);
},
{
closed = 1;
nodes = (
(700,698,l),
(700,702,l),
(0,702,l),
(0,698,l)
);
},
{
closed = 1;
nodes = (
(700,298,l),
(700,302,l),
(0,302,l),
(0,298,l)
);
}
);
width = 1000;
}
);
unicode = 98;
},
{
glyphname = c;
lastChange = "2023-12-13 21:22:00 +0000";
layers = (
{
layerId = m01;
shapes = (
{
closed = 0;
nodes = (
(1000,1000,l),
(500,1000,ls),
(223.9,1000,o),
(0,776.1,o),
(0,500,cs),
(0,223.9,o),
(223.9,0,o),
(500,0,cs),
(1000,0,l)
);
},
{
closed = 0;
nodes = (
(1000,900,l),
(500,900,ls),
(279.1,900,o),
(100,720.9,o),
(100,500,cs),
(100,279.1,o),
(279.1,100,o),
(500,100,cs),
(1000,100,l)
);
},
{
closed = 0;
nodes = (
(1000,800,l),
(500,800,ls),
(334.3,800,o),
(200,665.7,o),
(200,500,cs),
(200,334.3,o),
(334.3,200,o),
(500,200,cs),
(1000,200,l)
);
},
{
closed = 0;
nodes = (
(1000,700,l),
(500,700,ls),
(389.5,700,o),
(300,610.5,o),
(300,500,cs),
(300,389.5,o),
(389.5,300,o),
(500,300,cs),
(1000,300,l)
);
},
{
closed = 0;
nodes = (
(1000,600,l),
(500,600,ls),
(444.8,600,o),
(400,555.2,o),
(400,500,cs),
(400,444.8,o),
(444.8,400,o),
(500,400,cs),
(1000,400,l)
);
},
{
closed = 0;
nodes = (
(1000,500,l),
(500,500,l)
);
}
);
width = 1000;
},
{
layerId = m002;
shapes = (
{
closed = 1;
nodes = (
(500,10,ls),
(229.442,10,o),
(10,229.442,o),
(10,500,cs),
(10,770.558,o),
(229.442,990,o),
(500,990,cs),
(1000,990,l),
(1000,1010,l),
(500,1010,ls),
(218.358,1010,o),
(-10,781.642,o),
(-10,500,cs),
(-10,218.358,o),
(218.358,-10,o),
(500,-10,cs),
(1000,-10,l),
(1000,10,l)
);
},
{
closed = 1;
nodes = (
(500,110,ls),
(284.642,110,o),
(110,284.642,o),
(110,500,cs),
(110,715.358,o),
(284.642,890,o),
(500,890,cs),
(1000,890,l),
(1000,910,l),
(500,910,ls),
(273.558,910,o),
(90,726.442,o),
(90,500,cs),
(90,273.558,o),
(273.558,90,o),
(500,90,cs),
(1000,90,l),
(1000,110,l)
);
},
{
closed = 1;
nodes = (
(500,210,ls),
(339.842,210,o),
(210,339.842,o),
(210,500,cs),
(210,660.158,o),
(339.842,790,o),
(500,790,cs),
(1000,790,l),
(1000,810,l),
(500,810,ls),
(328.758,810,o),
(190,671.242,o),
(190,500,cs),
(190,328.758,o),
(328.758,190,o),
(500,190,cs),
(1000,190,l),
(1000,210,l)
);
},
{
closed = 1;
nodes = (
(500,310,ls),
(395.042,310,o),
(310,395.042,o),
(310,500,cs),
(310,604.958,o),
(395.042,690,o),
(500,690,cs),
(1000,690,l),
(1000,710,l),
(500,710,ls),
(383.958,710,o),
(290,616.042,o),
(290,500,cs),
(290,383.958,o),
(383.958,290,o),
(500,290,cs),
(1000,290,l),
(1000,310,l)
);
},
{
closed = 1;
nodes = (
(500,410,ls),
(450.342,410,o),
(410,450.342,o),
(410,500,cs),
(410,549.658,o),
(450.342,590,o),
(500,590,cs),
(1000,590,l),
(1000,610,l),
(500,610,ls),
(439.258,610,o),
(390,560.742,o),
(390,500,cs),
(390,439.258,o),
(439.258,390,o),
(500,390,cs),
(1000,390,l),
(1000,410,l)
);
},
{
closed = 1;
nodes = (
(1000,490,l),
(1000,510,l),
(500,510,l),
(500,490,l)
);
}
);
width = 1000;
},
{
layerId = m003;
shapes = (
{
closed = 1;
nodes = (
(500,2,ls),
(224.928,2,o),
(2,224.928,o),
(2,500,cs),
(2,775.072,o),
(224.928,998,o),
(500,998,cs),
(1000,998,l),
(1000,1002,l),
(500,1002,ls),
(222.872,1002,o),
(-2,777.128,o),
(-2,500,cs),
(-2,222.872,o),
(222.872,-2,o),
(500,-2,cs),
(1000,-2,l),
(1000,2,l)
);
},
{
closed = 1;
nodes = (
(500,102,ls),
(280.128,102,o),
(102,280.128,o),
(102,500,cs),
(102,719.872,o),
(280.128,898,o),
(500,898,cs),
(1000,898,l),
(1000,902,l),
(500,902,ls),
(278.072,902,o),
(98,721.928,o),
(98,500,cs),
(98,278.072,o),
(278.072,98,o),
(500,98,cs),
(1000,98,l),
(1000,102,l)
);
},
{
closed = 1;
nodes = (
(500,202,ls),
(335.328,202,o),
(202,335.328,o),
(202,500,cs),
(202,664.672,o),
(335.328,798,o),
(500,798,cs),
(1000,798,l),
(1000,802,l),
(500,802,ls),
(333.272,802,o),
(198,666.728,o),
(198,500,cs),
(198,333.272,o),
(333.272,198,o),
(500,198,cs),
(1000,198,l),
(1000,202,l)
);
},
{
closed = 1;
nodes = (
(500,302,ls),
(390.528,302,o),
(302,390.528,o),
(302,500,cs),
(302,609.472,o),
(390.528,698,o),
(500,698,cs),
(1000,698,l),
(1000,702,l),
(500,702,ls),
(388.472,702,o),
(298,611.528,o),
(298,500,cs),
(298,388.472,o),
(388.472,298,o),
(500,298,cs),
(1000,298,l),
(1000,302,l)
);
},
{
closed = 1;
nodes = (
(500,402,ls),
(445.828,402,o),
(402,445.828,o),
(402,500,cs),
(402,554.172,o),
(445.828,598,o),
(500,598,cs),
(1000,598,l),
(1000,602,l),
(500,602,ls),
(443.772,602,o),
(398,556.228,o),
(398,500,cs),
(398,443.772,o),
(443.772,398,o),
(500,398,cs),
(1000,398,l),
(1000,402,l)
);
},
{
closed = 1;
nodes = (
(1000,498,l),
(1000,502,l),
(500,502,l),
(500,498,l)
);
}
);
width = 1000;
}
);
unicode = 99;
},
{
glyphname = d;
lastChange = "2023-12-13 21:22:00 +0000";
layers = (
{
layerId = m01;
shapes = (
{
closed = 0;
nodes = (
(0,1000,l),
(500,1000,ls),
(776.1,1000,o),
(1000,776.1,o),
(1000,500,cs),
(1000,223.9,o),
(776.1,0,o),
(500,0,cs),
(0,0,l)
);
},
{
closed = 0;
nodes = (
(0,900,l),
(500,900,ls),
(720.9,900,o),
(900,720.9,o),
(900,500,cs),
(900,279.1,o),
(720.9,100,o),
(500,100,cs),
(0,100,l)
);
},
{
closed = 0;
nodes = (
(0,800,l),
(500,800,ls),
(665.7,800,o),
(800,665.7,o),
(800,500,cs),
(800,334.3,o),
(665.7,200,o),
(500,200,cs),
(0,200,l)
);
},
{
closed = 0;
nodes = (
(0,700,l),
(500,700,ls),
(610.5,700,o),
(700,610.5,o),
(700,500,cs),
(700,389.5,o),
(610.5,300,o),
(500,300,cs),
(0,300,l)
);
},
{
closed = 0;
nodes = (
(0,600,l),
(500,600,ls),
(555.2,600,o),
(600,555.2,o),
(600,500,cs),
(600,444.8,o),
(555.2,400,o),
(500,400,cs),
(0,400,l)
);
},
{
closed = 0;
nodes = (
(0,500,l),
(500,500,l)
);
}
);
width = 1000;
},
{
layerId = m002;
shapes = (
{
closed = 1;
nodes = (
(0,-10,l),
(500,-10,ls),
(781.6,-10,o),
(1010,218.4,o),
(1010,500,cs),
(1010,781.6,o),
(781.6,1010,o),
(500,1010,cs),
(0,1010,l),
(0,990,l),
(500,990,ls),
(770.6,990,o),
(990,770.6,o),
(990,500,cs),
(990,229.4,o),
(770.6,10,o),
(500,10,cs),
(0,10,l)
);
},
{
closed = 1;
nodes = (
(0,90,l),
(500,90,ls),
(726.4,90,o),
(910,273.6,o),
(910,500,cs),
(910,726.4,o),
(726.4,910,o),
(500,910,cs),
(0,910,l),
(0,890,l),
(500,890,ls),
(715.4,890,o),
(890,715.4,o),
(890,500,cs),
(890,284.6,o),
(715.4,110,o),
(500,110,cs),
(0,110,l)
);
},
{
closed = 1;
nodes = (
(0,190,l),
(500,190,ls),
(671.2,190,o),
(810,328.8,o),
(810,500,cs),
(810,671.2,o),
(671.2,810,o),
(500,810,cs),
(0,810,l),
(0,790,l),
(500,790,ls),
(660.2,790,o),
(790,660.2,o),
(790,500,cs),
(790,339.8,o),
(660.2,210,o),
(500,210,cs),
(0,210,l)
);
},
{
closed = 1;
nodes = (
(0,290,l),
(500,290,ls),
(616,290,o),
(710,384,o),
(710,500,cs),
(710,616,o),
(616,710,o),
(500,710,cs),
(0,710,l),
(0,690,l),
(500,690,ls),
(605,690,o),
(690,605,o),
(690,500,cs),
(690,395,o),
(605,310,o),
(500,310,cs),
(0,310,l)
);
},
{
closed = 1;
nodes = (
(0,390,l),
(500,390,ls),
(560.7,390,o),
(610,439.3,o),
(610,500,cs),
(610,560.7,o),
(560.7,610,o),
(500,610,cs),
(0,610,l),
(0,590,l),
(500,590,ls),
(549.7,590,o),
(590,549.7,o),
(590,500,cs),
(590,450.3,o),
(549.7,410,o),
(500,410,cs),
(0,410,l)
);
},
{
closed = 1;
nodes = (
(500,510,l),
(0,510,l),
(0,490,l),
(500,490,l)
);
}
);
width = 1000;
},
{
layerId = m003;
shapes = (
{
closed = 1;
nodes = (
(0,-2,l),
(500,-2,ls),
(777.1,-2,o),
(1002,222.9,o),
(1002,500,cs),
(1002,777.1,o),
(777.1,1002,o),
(500,1002,cs),
(0,1002,l),
(0,998,l),
(500,998,ls),
(775.1,998,o),
(998,775.1,o),
(998,500,cs),
(998,224.9,o),
(775.1,2,o),
(500,2,cs),
(0,2,l)
);
},
{
closed = 1;
nodes = (
(0,98,l),
(500,98,ls),
(721.9,98,o),
(902,278.1,o),
(902,500,cs),
(902,721.9,o),
(721.9,902,o),
(500,902,cs),
(0,902,l),
(0,898,l),
(500,898,ls),
(719.9,898,o),
(898,719.9,o),
(898,500,cs),
(898,280.1,o),
(719.9,102,o),
(500,102,cs),
(0,102,l)
);
},
{
closed = 1;
nodes = (
(0,198,l),
(500,198,ls),
(666.7,198,o),
(802,333.3,o),
(802,500,cs),
(802,666.7,o),
(666.7,802,o),
(500,802,cs),
(0,802,l),
(0,798,l),
(500,798,ls),
(664.7,798,o),
(798,664.7,o),
(798,500,cs),
(798,335.3,o),
(664.7,202,o),
(500,202,cs),
(0,202,l)
);
},
{
closed = 1;
nodes = (
(0,298,l),
(500,298,ls),
(611.5,298,o),
(702,388.5,o),
(702,500,cs),
(702,611.5,o),
(611.5,702,o),
(500,702,cs),
(0,702,l),
(0,698,l),
(500,698,ls),
(609.5,698,o),
(698,609.5,o),
(698,500,cs),
(698,390.5,o),
(609.5,302,o),
(500,302,cs),
(0,302,l)
);
},
{
closed = 1;
nodes = (
(0,398,l),
(500,398,ls),
(556.2,398,o),
(602,443.8,o),
(602,500,cs),
(602,556.2,o),
(556.2,602,o),
(500,602,cs),
(0,602,l),
(0,598,l),
(500,598,ls),
(554.2,598,o),
(598,554.2,o),
(598,500,cs),
(598,445.8,o),
(554.2,402,o),
(500,402,cs),
(0,402,l)
);
},
{
closed = 1;
nodes = (
(500,502,l),
(0,502,l),
(0,498,l),
(500,498,l)
);
}
);
width = 1000;
}
);
unicode = 100;
},
{
glyphname = e;
lastChange = "2023-12-13 21:22:00 +0000";
layers = (
{
anchors = (
{
name = top;
pos = (500,1000);
}
);
layerId = m01;
shapes = (
{
closed = 0;
nodes = (
(1000,1000,l),
(500,1000,ls),
(223.9,1000,o),
(0,776.1,o),
(0,500,cs),
(0,223.9,o),
(223.9,0,o),
(500,0,cs),
(1000,0,l)
);
},
{
closed = 0;
nodes = (
(1000,900,l),
(500,900,ls),
(279.1,900,o),
(100,720.9,o),
(100,500,cs),
(100,279.1,o),
(279.1,100,o),
(500,100,cs),
(1000,100,l)
);
},
{
closed = 0;
nodes = (
(1000,800,l),
(500,800,ls),
(334.3,800,o),
(200,665.7,o),
(200,500,cs),
(200,334.3,o),
(334.3,200,o),
(500,200,cs),
(1000,200,l)
);
},
{
closed = 0;
nodes = (
(1000,700,l),
(500,700,ls),
(389.5,700,o),
(300,610.5,o),
(300,500,cs),
(300,389.5,o),
(389.5,300,o),
(500,300,cs),
(1000,300,l)
);
},
{
closed = 0;
nodes = (
(0,400,l),
(800,400,l)
);
},
{
closed = 0;
nodes = (
(800,600,l),
(0,600,l)
);
},
{
closed = 0;
nodes = (
(800,500,l),
(0,500,l)
);
}
);
width = 1000;
},
{
anchors = (
{
name = top;
pos = (500,1000);
}
);
layerId = m002;
shapes = (
{
closed = 1;
nodes = (
(500,10,ls),
(229.442,10,o),
(10,229.442,o),
(10,500,cs),
(10,770.558,o),
(229.442,990,o),
(500,990,cs),
(1000,990,l),
(1000,1010,l),
(500,1010,ls),
(218.358,1010,o),
(-10,781.642,o),
(-10,500,cs),
(-10,218.358,o),
(218.358,-10,o),
(500,-10,cs),
(1000,-10,l),
(1000,10,l)
);
},
{
closed = 1;
nodes = (
(500,110,ls),
(284.642,110,o),
(110,284.642,o),
(110,500,cs),
(110,715.358,o),
(284.642,890,o),
(500,890,cs),
(1000,890,l),
(1000,910,l),
(500,910,ls),
(273.558,910,o),
(90,726.442,o),
(90,500,cs),
(90,273.558,o),
(273.558,90,o),
(500,90,cs),
(1000,90,l),
(1000,110,l)
);
},
{
closed = 1;
nodes = (
(500,210,ls),
(339.842,210,o),
(210,339.842,o),
(210,500,cs),
(210,660.158,o),
(339.842,790,o),
(500,790,cs),
(1000,790,l),
(1000,810,l),
(500,810,ls),
(328.758,810,o),
(190,671.242,o),
(190,500,cs),
(190,328.758,o),
(328.758,190,o),
(500,190,cs),
(1000,190,l),
(1000,210,l)
);
},
{
closed = 1;
nodes = (
(500,310,ls),
(395.042,310,o),
(310,395.042,o),
(310,500,cs),
(310,604.958,o),
(395.042,690,o),
(500,690,cs),
(1000,690,l),
(1000,710,l),
(500,710,ls),
(383.958,710,o),
(290,616.042,o),
(290,500,cs),
(290,383.958,o),
(383.958,290,o),
(500,290,cs),
(1000,290,l),
(1000,310,l)
);
},
{
closed = 1;
nodes = (
(2,410,l),
(2,390,l),
(800,390,l),
(800,410,l)
);
},
{
closed = 1;
nodes = (
(800,590,l),
(800,610,l),
(2,610,l),
(2,590,l)
);
},
{
closed = 1;
nodes = (
(800,490,l),
(800,510,l),
(0,510,l),
(0,490,l)
);
}
);
width = 1000;
},
{
anchors = (
{
name = top;
pos = (500,1000);
}
);
layerId = m003;
shapes = (
{
closed = 1;
nodes = (
(500,2,ls),
(224.928,2,o),
(2,224.928,o),
(2,500,cs),
(2,775.072,o),
(224.928,998,o),
(500,998,cs),
(1000,998,l),
(1000,1002,l),
(500,1002,ls),
(222.872,1002,o),
(-2,777.128,o),
(-2,500,cs),
(-2,222.872,o),
(222.872,-2,o),
(500,-2,cs),
(1000,-2,l),
(1000,2,l)
);
},
{
closed = 1;
nodes = (
(500,102,ls),
(280.128,102,o),
(102,280.128,o),
(102,500,cs),
(102,719.872,o),
(280.128,898,o),
(500,898,cs),
(1000,898,l),
(1000,902,l),
(500,902,ls),
(278.072,902,o),
(98,721.928,o),
(98,500,cs),
(98,278.072,o),
(278.072,98,o),
(500,98,cs),
(1000,98,l),
(1000,102,l)
);
},
{
closed = 1;
nodes = (
(500,202,ls),
(335.328,202,o),
(202,335.328,o),
(202,500,cs),
(202,664.672,o),
(335.328,798,o),
(500,798,cs),
(1000,798,l),
(1000,802,l),
(500,802,ls),
(333.272,802,o),
(198,666.728,o),
(198,500,cs),
(198,333.272,o),
(333.272,198,o),
(500,198,cs),
(1000,198,l),
(1000,202,l)
);
},
{
closed = 1;
nodes = (
(500,302,ls),
(390.528,302,o),
(302,390.528,o),
(302,500,cs),
(302,609.472,o),
(390.528,698,o),
(500,698,cs),
(1000,698,l),
(1000,702,l),
(500,702,ls),
(388.472,702,o),
(298,611.528,o),
(298,500,cs),
(298,388.472,o),
(388.472,298,o),
(500,298,cs),
(1000,298,l),
(1000,302,l)
);
},
{
closed = 1;
nodes = (
(0,402,l),
(0,398,l),
(800,398,l),
(800,402,l)
);
},
{
closed = 1;
nodes = (
(800,598,l),
(800,602,l),
(0,602,l),
(0,598,l)
);
},
{
closed = 1;
nodes = (
(800,498,l),
(800,502,l),
(0,502,l),
(0,498,l)
);
}
);
width = 1000;
}
);
unicode = 101;
},
{
glyphname = f;
lastChange = "2023-12-13 21:22:00 +0000";
layers = (
{
layerId = m01;
shapes = (
{
closed = 0;
nodes = (
(1000,900,l),
(500,900,ls),
(279.1,900,o),
(100,720.9,o),
(100,500,c)
);
},
{
closed = 0;
nodes = (
(1000,800,l),
(500,800,ls),
(334.3,800,o),
(200,665.7,o),
(200,500,c)
);
},
{
closed = 0;
nodes = (
(1000,700,l),
(500,700,ls),
(389.5,700,o),
(300,610.5,o),
(300,500,c)
);
},
{
closed = 0;
nodes = (
(1000,600,l),
(500,600,ls),
(444.8,600,o),
(400,555.2,o),
(400,500,c)
);
},
{
closed = 0;
nodes = (
(800,500,l),
(500,500,l)
);
},
{
closed = 0;
nodes = (
(800,300,l),
(500,300,l)
);
},
{
closed = 0;
nodes = (
(800,400,l),
(500,400,l)
);
},
{
closed = 0;
nodes = (
(0,1000,l),
(0,0,l)
);
},
{
closed = 0;
nodes = (
(100,1000,l),
(100,0,l)
);
},
{
closed = 0;
nodes = (
(200,1000,l),
(200,0,l)
);
},
{
closed = 0;
nodes = (
(300,1000,l),
(300,0,l)
);
},
{
closed = 0;
nodes = (
(400,1000,l),
(400,0,l)
);
},
{
closed = 0;
nodes = (
(500,1000,l),
(500,0,l)
);
},
{
closed = 0;
nodes = (
(0,500,l),
(0,776.1,o),
(223.9,1000,o),
(500,1000,cs),
(1000,1000,l)
);
}
);
width = 1000;
},
{
layerId = m002;
shapes = (
{
closed = 1;
nodes = (
(110,716.758,o),
(283.242,890,o),
(500,890,cs),
(1000,890,l),
(1000,910,l),
(500,910,ls),
(273.758,910,o),
(90,726.242,o),
(90,500,c),
(110,500,l)
);
},
{
closed = 1;
nodes = (
(210,661.558,o),
(338.442,790,o),
(500,790,cs),
(1000,790,l),
(1000,810,l),
(500,810,ls),
(328.958,810,o),
(190,671.042,o),
(190,500,c),
(210,500,l)
);
},
{
closed = 1;
nodes = (
(310,606.358,o),
(393.642,690,o),
(500,690,cs),
(1000,690,l),
(1000,710,l),
(500,710,ls),
(384.158,710,o),
(290,615.842,o),
(290,500,c),
(310,500,l)
);
},
{
closed = 1;
nodes = (
(410,551.058,o),
(448.942,590,o),
(500,590,cs),
(1000,590,l),
(1000,610,l),
(500,610,ls),
(439.458,610,o),
(390,560.542,o),
(390,500,c),
(410,500,l)
);
},
{
closed = 1;
nodes = (
(800,490,l),
(800,510,l),
(500,510,l),
(500,490,l)
);
},
{
closed = 1;
nodes = (
(800,290,l),
(800,310,l),
(500,310,l),
(500,290,l)
);
},
{
closed = 1;
nodes = (
(800,390,l),
(800,410,l),
(500,410,l),
(500,390,l)
);
},
{
closed = 1;
nodes = (
(10,1000,l),
(-10,1000,l),
(-10,0,l),
(10,0,l)
);
},
{
closed = 1;
nodes = (
(110,1000,l),
(90,1000,l),
(90,0,l),
(110,0,l)
);
},
{
closed = 1;
nodes = (
(210,1000,l),
(190,1000,l),
(190,0,l),
(210,0,l)
);
},
{
closed = 1;
nodes = (
(310,1000,l),
(290,1000,l),
(290,0,l),
(310,0,l)
);
},
{
closed = 1;
nodes = (
(410,1000,l),
(390,1000,l),
(390,0,l),
(410,0,l)
);
},
{
closed = 1;
nodes = (
(510,1000,l),
(490,1000,l),
(490,0,l),
(510,0,l)
);
},
{
closed = 1;
nodes = (
(500,1010,ls),
(218.558,1010,o),
(-10,781.442,o),
(-10,500,c),
(10,500,l),
(10,771.958,o),
(228.042,990,o),
(500,990,cs),
(1000,990,l),
(1000,1010,l)
);
}
);
width = 1000;
},
{
layerId = m003;
shapes = (
{
closed = 1;
nodes = (
(102,720.072,o),
(279.928,898,o),
(500,898,cs),
(1000,898,l),
(1000,902,l),
(500,902,ls),
(278.072,902,o),
(98,721.928,o),
(98,500,c),
(102,500,l)
);
},
{
closed = 1;
nodes = (
(202,664.872,o),
(335.128,798,o),
(500,798,cs),
(1000,798,l),
(1000,802,l),
(500,802,ls),
(333.272,802,o),
(198,666.728,o),
(198,500,c),
(202,500,l)
);
},
{
closed = 1;
nodes = (
(302,609.672,o),
(390.328,698,o),
(500,698,cs),
(1000,698,l),
(1000,702,l),
(500,702,ls),
(388.472,702,o),
(298,611.528,o),
(298,500,c),
(302,500,l)
);
},
{
closed = 1;
nodes = (
(402,554.372,o),
(445.628,598,o),
(500,598,cs),
(1000,598,l),
(1000,602,l),
(500,602,ls),
(443.772,602,o),
(398,556.228,o),
(398,500,c),
(402,500,l)
);
},
{
closed = 1;
nodes = (
(800,498,l),
(800,502,l),
(500,502,l),
(500,498,l)
);
},
{
closed = 1;
nodes = (
(800,298,l),
(800,302,l),
(500,302,l),
(500,298,l)
);
},
{
closed = 1;
nodes = (
(800,398,l),
(800,402,l),
(500,402,l),
(500,398,l)
);
},
{
closed = 1;
nodes = (
(2,1000,l),
(-2,1000,l),
(-2,0,l),
(2,0,l)
);
},
{
closed = 1;
nodes = (
(102,1000,l),
(98,1000,l),
(98,0,l),
(102,0,l)
);
},
{
closed = 1;
nodes = (
(202,1000,l),
(198,1000,l),
(198,0,l),
(202,0,l)
);
},
{
closed = 1;
nodes = (
(302,1000,l),
(298,1000,l),
(298,0,l),
(302,0,l)
);
},
{
closed = 1;
nodes = (
(402,1000,l),
(398,1000,l),
(398,0,l),
(402,0,l)
);
},
{
closed = 1;
nodes = (
(502,1000,l),
(498,1000,l),
(498,0,l),
(502,0,l)
);
},
{
closed = 1;
nodes = (
(500,1002,ls),
(222.872,1002,o),
(-2,777.128,o),
(-2,500,c),
(2,500,l),
(2,775.272,o),
(224.728,998,o),
(500,998,cs),
(1000,998,l),
(1000,1002,l)
);
}
);
width = 1000;
}
);
unicode = 102;
},
{
glyphname = g;
lastChange = "2023-12-13 21:22:00 +0000";
layers = (
{
layerId = m01;
shapes = (
{
closed = 0;
nodes = (
(1000,600.1,l),
(400,600,l),
(400,400,l),
(600,400,l),
(600,500,l),
(500,500,l),
(1000,500,l),
(1000,0,l),
(0,0,l),
(0,1000,l),
(1000,1000,l)
);
},
{
closed = 0;
nodes = (
(700,500,l),
(700,300,l),
(300,300,l),
(300,700,l),
(1000,700,l)
);
},
{
closed = 0;
nodes = (
(800,500,l),
(800,200,l),
(200,200,l),
(200,800,l),
(1000,800.4,l)
);
},
{
closed = 0;
nodes = (
(900,500,l),
(900,100,l),
(100,100,l),
(100,900,l),
(1000,899.2,l)
);
}
);
width = 1000;
},
{
layerId = m002;
shapes = (
{
closed = 1;
nodes = (
(-10,1010,l),
(-10,-10,l),
(1010,-10,l),
(1010,510,l),
(500,510,l),
(500,490,l),
(590,490,l),
(590,410,l),
(410,410,l),
(410,590.002,l),
(1000.002,590.1,l),
(999.998,610.1,l),
(390,609.998,l),
(390,390,l),
(610,390,l),
(610,510,l),
(500,510,l),
(500,490,l),
(990,490,l),
(990,10,l),
(10,10,l),
(10,990,l),
(1000,990,l),
(1000,1010,l)
);
},
{
closed = 1;
nodes = (
(290,710,l),
(290,290,l),
(710,290,l),
(710,500,l),
(690,500,l),
(690,310,l),
(310,310,l),
(310,690,l),
(1000,690,l),
(1000,710,l)
);
},
{
closed = 1;
nodes = (
(190,809.995,l),
(190,190,l),
(810,190,l),
(810,500,l),
(790,500,l),
(790,210,l),
(210,210,l),
(210,790.005,l),
(1000.005,790.4,l),
(999.995,810.4,l)
);
},
{
closed = 1;
nodes = (
(90,910.009,l),
(90,90,l),
(910,90,l),
(910,500,l),
(890,500,l),
(890,110,l),
(110,110,l),
(110,889.991,l),
(999.991,889.2,l),
(1000.009,909.2,l)
);
}
);
width = 1000;
},
{
layerId = m003;
shapes = (
{
closed = 1;
nodes = (
(-2,1002,l),
(-2,-2,l),
(1002,-2,l),
(1002,502,l),
(500,502,l),
(500,498,l),
(598,498,l),
(598,402,l),
(402,402,l),
(402,598,l),
(1000,598.1,l),
(1000,602.1,l),
(398,602,l),
(398,398,l),
(602,398,l),
(602,502,l),
(500,502,l),
(500,498,l),
(998,498,l),
(998,2,l),
(2,2,l),
(2,998,l),
(1000,998,l),
(1000,1002,l)
);
},
{
closed = 1;
nodes = (
(298,702,l),
(298,298,l),
(702,298,l),
(702,500,l),
(698,500,l),
(698,302,l),
(302,302,l),
(302,698,l),
(1000,698,l),
(1000,702,l)
);
},
{
closed = 1;
nodes = (
(198,802,l),
(198,198,l),
(802,198,l),
(802,500,l),
(798,500,l),
(798,202,l),
(202,202,l),
(202,798,l),
(1000.001,798.4,l),
(999.999,802.4,l)
);
},
{
closed = 1;
nodes = (
(98,902.002,l),
(98,98,l),
(902,98,l),
(902,500,l),
(898,500,l),
(898,102,l),
(102,102,l),
(102,897.998,l),
(999.998,897.2,l),
(1000.002,901.2,l)
);
}
);
width = 1000;
}
);
unicode = 103;
},
{
glyphname = h;
lastChange = "2023-12-13 21:22:00 +0000";
layers = (
{
layerId = m01;
shapes = (
{
closed = 0;
nodes = (
(99.5,1000,l),
(99.5,0,l)
);
},
{
closed = 0;
nodes = (
(0,1000,l),
(0,0,l)
);
},
{
closed = 0;
nodes = (
(199.5,1000,l),
(199.5,0,l)
);
},
{
closed = 0;
nodes = (
(299.5,1000,l),
(299.5,0,l)
);
},
{
closed = 0;
nodes = (
(399.5,1000,l),
(399.5,0,l)
);
},
{
closed = 0;
nodes = (
(599.5,1000,l),
(599.5,0,l)
);
},
{
closed = 0;
nodes = (
(1000,1000,l),
(1000,0,l)
);
},
{
closed = 0;
nodes = (
(699.5,1000,l),
(699.5,0,l)
);
},
{
closed = 0;
nodes = (
(799.5,1000,l),
(799.5,0,l)
);
},
{
closed = 0;
nodes = (
(899.5,1000,l),
(899.5,0,l)
);
},
{
closed = 0;
nodes = (
(999.5,399.5,l),
(400.1,400.6,l)
);
},
{
closed = 0;
nodes = (
(999.5,299.5,l),
(400.1,300.6,l)
);
},
{
closed = 0;
nodes = (
(999.5,499.5,l),
(399.5,500.2,l)
);
},
{
closed = 0;
nodes = (
(999.2,601.5,l),
(400.4,598,l)
);
},
{
closed = 0;
nodes = (
(999.2,601.5,l),
(400.4,598,l)
);
}
);
width = 1000;
},
{
layerId = m002;
shapes = (
{
closed = 1;
nodes = (
(109.5,1000,l),
(89.5,1000,l),
(89.5,0,l),
(109.5,0,l)
);
},
{
closed = 1;
nodes = (
(10,1000,l),
(-10,1000,l),
(-10,0,l),
(10,0,l)
);
},
{
closed = 1;
nodes = (
(209.5,1000,l),
(189.5,1000,l),
(189.5,0,l),
(209.5,0,l)
);
},
{
closed = 1;
nodes = (
(309.5,1000,l),
(289.5,1000,l),
(289.5,0,l),
(309.5,0,l)
);
},
{
closed = 1;
nodes = (
(409.5,1000,l),
(389.5,1000,l),
(389.5,0,l),
(409.5,0,l)
);
},
{
closed = 1;
nodes = (
(609.5,1000,l),
(589.5,1000,l),
(589.5,0,l),
(609.5,0,l)
);
},
{
closed = 1;
nodes = (
(1010,1000,l),
(990,1000,l),
(990,0,l),
(1010,0,l)
);
},
{
closed = 1;
nodes = (
(709.5,1000,l),
(689.5,1000,l),
(689.5,0,l),
(709.5,0,l)
);
},
{
closed = 1;
nodes = (
(809.5,1000,l),
(789.5,1000,l),
(789.5,0,l),
(809.5,0,l)
);
},
{
closed = 1;
nodes = (
(909.5,1000,l),
(889.5,1000,l),
(889.5,0,l),
(909.5,0,l)
);
},
{
closed = 1;
nodes = (
(999.5,389.5,l),
(999.5,409.5,l),
(400.1,410.6,l),
(400.1,390.6,l)
);
},
{
closed = 1;
nodes = (
(999.5,289.5,l),
(999.5,309.5,l),
(400.1,310.6,l),
(400.1,290.6,l)
);
},
{
closed = 1;
nodes = (
(999.5,489.5,l),
(999.5,509.5,l),
(399.5,510.2,l),
(399.5,490.2,l)
);
},
{
closed = 1;
nodes = (
(999.2,591.5,l),
(999.2,611.5,l),
(400.4,608,l),
(400.4,588,l)
);
},
{
closed = 1;
nodes = (
(999.2,591.5,l),
(999.2,611.5,l),
(400.4,608,l),
(400.4,588,l)
);
}
);
width = 1000;
},
{
layerId = m003;
shapes = (
{
closed = 1;
nodes = (
(101.5,1000,l),
(97.5,1000,l),
(97.5,0,l),
(101.5,0,l)
);
},
{
closed = 1;
nodes = (
(2,1000,l),
(-2,1000,l),
(-2,0,l),
(2,0,l)
);
},
{
closed = 1;
nodes = (
(201.5,1000,l),
(197.5,1000,l),
(197.5,0,l),
(201.5,0,l)
);
},
{
closed = 1;
nodes = (
(301.5,1000,l),
(297.5,1000,l),
(297.5,0,l),
(301.5,0,l)
);
},
{
closed = 1;
nodes = (
(401.5,1000,l),
(397.5,1000,l),
(397.5,0,l),
(401.5,0,l)
);
},
{
closed = 1;
nodes = (
(601.5,1000,l),
(597.5,1000,l),
(597.5,0,l),
(601.5,0,l)
);
},
{
closed = 1;
nodes = (
(1002,1000,l),
(998,1000,l),
(998,0,l),
(1002,0,l)
);
},
{
closed = 1;
nodes = (
(701.5,1000,l),
(697.5,1000,l),
(697.5,0,l),
(701.5,0,l)
);
},
{
closed = 1;
nodes = (
(801.5,1000,l),
(797.5,1000,l),
(797.5,0,l),
(801.5,0,l)
);
},
{
closed = 1;
nodes = (
(901.5,1000,l),
(897.5,1000,l),
(897.5,0,l),
(901.5,0,l)
);
},
{
closed = 1;
nodes = (
(999.5,397.5,l),
(999.5,401.5,l),
(400.1,402.6,l),
(400.1,398.6,l)
);
},
{
closed = 1;
nodes = (
(999.5,297.5,l),
(999.5,301.5,l),
(400.1,302.6,l),
(400.1,298.6,l)
);
},
{
closed = 1;
nodes = (
(999.5,497.5,l),
(999.5,501.5,l),
(399.5,502.2,l),
(399.5,498.2,l)
);
},
{
closed = 1;
nodes = (
(999.2,599.5,l),
(999.2,603.5,l),
(400.4,600,l),
(400.4,596,l)
);
},
{
closed = 1;
nodes = (
(999.2,599.5,l),
(999.2,603.5,l),
(400.4,600,l),
(400.4,596,l)
);
}
);
width = 1000;
}
);
unicode = 104;
},
{
glyphname = i;
lastChange = "2023-12-13 21:22:00 +0000";
layers = (
{
layerId = m01;
shapes = (
{
closed = 0;
nodes = (
(0,0,l),
(1000,0,l)
);
},
{
closed = 0;
nodes = (
(0,100,l),
(1000,100,l)
);
},
{
closed = 0;
nodes = (
(0,200,l),
(1000,200,l)
);
},
{
closed = 0;
nodes = (
(0,300,l),
(1000,300,l)
);
},
{
closed = 0;
nodes = (
(0,700,l),
(1000,700,l)
);
},
{
closed = 0;
nodes = (
(0,800,l),
(1000,800,l)
);
},
{
closed = 0;
nodes = (
(0,900,l),
(1000,900,l)
);
},
{
closed = 0;
nodes = (
(0,1000,l),
(1000,1000,l)
);
},
{
closed = 0;
nodes = (
(300,700,l),
(300,0,l)
);
},
{
closed = 0;
nodes = (
(400,700,l),
(400,0,l)
);
},
{
closed = 0;
nodes = (
(500,700,l),
(500,0,l)
);
},
{
closed = 0;
nodes = (
(600,700,l),
(600,0,l)
);
},
{
closed = 0;
nodes = (
(700,700,l),
(700,0,l)
);
}
);
width = 1000;
},
{
layerId = m002;
shapes = (
{
closed = 1;
nodes = (
(0,10,l),
(0,-10,l),
(1000,-10,l),
(1000,10,l)
);
},
{
closed = 1;
nodes = (
(0,110,l),
(0,90,l),
(1000,90,l),
(1000,110,l)
);
},
{
closed = 1;
nodes = (
(0,210,l),
(0,190,l),
(1000,190,l),
(1000,210,l)
);
},
{
closed = 1;
nodes = (
(0,310,l),
(0,290,l),
(1000,290,l),
(1000,310,l)
);
},
{
closed = 1;
nodes = (
(0,710,l),
(0,690,l),
(1000,690,l),
(1000,710,l)
);
},
{
closed = 1;
nodes = (
(0,810,l),
(0,790,l),
(1000,790,l),
(1000,810,l)
);
},
{
closed = 1;
nodes = (
(0,910,l),
(0,890,l),
(1000,890,l),
(1000,910,l)
);
},
{
closed = 1;
nodes = (
(0,1010,l),
(0,990,l),
(1000,990,l),
(1000,1010,l)
);
},
{
closed = 1;
nodes = (
(310,700,l),
(290,700,l),
(290,0,l),
(310,0,l)
);
},
{
closed = 1;
nodes = (
(410,700,l),
(390,700,l),
(390,0,l),
(410,0,l)
);
},
{
closed = 1;
nodes = (
(510,700,l),
(490,700,l),
(490,0,l),
(510,0,l)
);
},
{
closed = 1;
nodes = (
(610,700,l),
(590,700,l),
(590,0,l),
(610,0,l)
);
},
{
closed = 1;
nodes = (
(710,700,l),
(690,700,l),
(690,0,l),
(710,0,l)
);
}
);
width = 1000;
},
{
layerId = m003;
shapes = (
{
closed = 1;
nodes = (
(0,2,l),
(0,-2,l),
(1000,-2,l),
(1000,2,l)
);
},
{
closed = 1;
nodes = (
(0,102,l),
(0,98,l),
(1000,98,l),
(1000,102,l)
);
},
{
closed = 1;
nodes = (
(0,202,l),
(0,198,l),
(1000,198,l),
(1000,202,l)
);
},
{
closed = 1;
nodes = (
(0,302,l),
(0,298,l),
(1000,298,l),
(1000,302,l)
);
},
{
closed = 1;
nodes = (
(0,702,l),
(0,698,l),
(1000,698,l),
(1000,702,l)
);
},
{
closed = 1;
nodes = (
(0,802,l),
(0,798,l),
(1000,798,l),
(1000,802,l)
);
},
{
closed = 1;
nodes = (
(0,902,l),
(0,898,l),
(1000,898,l),
(1000,902,l)
);
},
{
closed = 1;
nodes = (
(0,1002,l),
(0,998,l),
(1000,998,l),
(1000,1002,l)
);
},
{
closed = 1;
nodes = (
(302,700,l),
(298,700,l),
(298,0,l),
(302,0,l)
);
},
{
closed = 1;
nodes = (
(402,700,l),
(398,700,l),
(398,0,l),
(402,0,l)
);
},
{
closed = 1;
nodes = (
(502,700,l),
(498,700,l),
(498,0,l),
(502,0,l)
);
},
{
closed = 1;
nodes = (
(602,700,l),
(598,700,l),
(598,0,l),
(602,0,l)
);
},
{
closed = 1;
nodes = (
(702,700,l),
(698,700,l),
(698,0,l),
(702,0,l)
);
}
);
width = 1000;
}
);
unicode = 105;
},
{
glyphname = j;
lastChange = "2023-12-13 21:22:00 +0000";
layers = (
{
layerId = m01;
shapes = (
{
closed = 0;
nodes = (
(0,500,l),
(0,223.9,o),
(223.9,0,o),
(500,0,cs),
(776.1,0,o),
(1000,223.9,o),
(1000,500,cs),
(1000,1000,l),
(0,1000,l)
);
},
{
closed = 0;
nodes = (
(100,500,l),
(100,279.1,o),
(279.1,100,o),
(500,100,cs),
(720.9,100,o),
(900,279.1,o),
(900,500,cs),
(900,1000,l)
);
},
{
closed = 0;
nodes = (
(200,500,l),
(200,334.3,o),
(334.3,200,o),
(500,200,cs),
(665.7,200,o),
(800,334.3,o),
(800,500,cs),
(800,900,l)
);
},
{
closed = 0;
nodes = (
(300,500,l),
(300,389.5,o),
(389.5,300,o),
(500,300,cs),
(610.5,300,o),
(700,389.5,o),
(700,500,cs),
(700,800,l)
);
},
{
closed = 0;
nodes = (
(400,500,l),
(400,444.8,o),
(444.8,400,o),
(500,400,cs),
(555.2,400,o),
(600,444.8,o),
(600,500,cs),
(600,700,l)
);
},
{
closed = 0;
nodes = (
(0,600,l),
(1000,600,l)
);
},
{
closed = 0;
nodes = (
(0,700,l),
(1000,700,l)
);
},
{
closed = 0;
nodes = (
(0,800,l),
(1000,800,l)
);
},
{
closed = 0;
nodes = (
(0,900,l),
(1000,900,l)
);
}
);
width = 1000;
},
{
layerId = m002;
shapes = (
{
closed = 1;
nodes = (
(990,990,l),
(990,500,ls),
(990,228.042,o),
(771.958,10,o),
(500,10,cs),
(228.042,10,o),
(10,228.042,o),
(10,500,c),
(-10,500,l),
(-10,218.558,o),
(218.558,-10,o),
(500,-10,cs),
(781.442,-10,o),
(1010,218.558,o),
(1010,500,cs),
(1010,1010,l),
(0,1010,l),
(0,990,l)
);
},
{
closed = 1;
nodes = (
(890,500,ls),
(890,283.242,o),
(716.758,110,o),
(500,110,cs),
(283.242,110,o),
(110,283.242,o),
(110,500,c),
(90,500,l),
(90,273.758,o),
(273.758,90,o),
(500,90,cs),
(726.242,90,o),
(910,273.758,o),
(910,500,cs),
(910,1000,l),
(890,1000,l)
);
},
{
closed = 1;
nodes = (
(790,500,ls),
(790,338.442,o),
(661.558,210,o),
(500,210,cs),
(338.442,210,o),
(210,338.442,o),
(210,500,c),
(190,500,l),
(190,328.958,o),
(328.958,190,o),
(500,190,cs),
(671.042,190,o),
(810,328.958,o),
(810,500,cs),
(810,900,l),
(790,900,l)
);
},
{
closed = 1;
nodes = (
(690,500,ls),
(690,393.642,o),
(606.358,310,o),
(500,310,cs),
(393.642,310,o),
(310,393.642,o),
(310,500,c),
(290,500,l),
(290,384.158,o),
(384.158,290,o),
(500,290,cs),
(615.842,290,o),
(710,384.158,o),
(710,500,cs),
(710,800,l),
(690,800,l)
);
},
{
closed = 1;
nodes = (
(590,500,ls),
(590,448.942,o),
(551.058,410,o),
(500,410,cs),
(448.942,410,o),
(410,448.942,o),
(410,500,c),
(390,500,l),
(390,439.458,o),
(439.458,390,o),
(500,390,cs),
(560.542,390,o),
(610,439.458,o),
(610,500,cs),
(610,700,l),
(590,700,l)
);
},
{
closed = 1;
nodes = (
(0,610,l),
(0,590,l),
(1000,590,l),
(1000,610,l)
);
},
{
closed = 1;
nodes = (
(0,710,l),
(0,690,l),
(1000,690,l),
(1000,710,l)
);
},
{
closed = 1;
nodes = (
(0,810,l),
(0,790,l),
(1000,790,l),
(1000,810,l)
);
},
{
closed = 1;
nodes = (
(0,910,l),
(0,890,l),
(1000,890,l),
(1000,910,l)
);
}
);
width = 1000;
},
{
layerId = m003;
shapes = (
{
closed = 1;
nodes = (
(998,998,l),
(998,500,ls),
(998,224.728,o),
(775.272,2,o),
(500,2,cs),
(224.728,2,o),
(2,224.728,o),
(2,500,c),
(-2,500,l),
(-2,222.872,o),
(222.872,-2,o),
(500,-2,cs),
(777.128,-2,o),
(1002,222.872,o),
(1002,500,cs),
(1002,1002,l),
(0,1002,l),
(0,998,l)
);
},
{
closed = 1;
nodes = (
(898,500,ls),
(898,279.928,o),
(720.072,102,o),
(500,102,cs),
(279.928,102,o),
(102,279.928,o),
(102,500,c),
(98,500,l),
(98,278.072,o),
(278.072,98,o),
(500,98,cs),
(721.928,98,o),
(902,278.072,o),
(902,500,cs),
(902,1000,l),
(898,1000,l)
);
},
{
closed = 1;
nodes = (
(798,500,ls),
(798,335.128,o),
(664.872,202,o),
(500,202,cs),
(335.128,202,o),
(202,335.128,o),
(202,500,c),
(198,500,l),
(198,333.272,o),
(333.272,198,o),
(500,198,cs),
(666.728,198,o),
(802,333.272,o),
(802,500,cs),
(802,900,l),
(798,900,l)
);
},
{
closed = 1;
nodes = (
(698,500,ls),
(698,390.328,o),
(609.672,302,o),
(500,302,cs),
(390.328,302,o),
(302,390.328,o),
(302,500,c),
(298,500,l),
(298,388.472,o),
(388.472,298,o),
(500,298,cs),
(611.528,298,o),
(702,388.472,o),
(702,500,cs),
(702,800,l),
(698,800,l)
);
},
{
closed = 1;
nodes = (
(598,500,ls),
(598,445.628,o),
(554.372,402,o),
(500,402,cs),
(445.628,402,o),
(402,445.628,o),
(402,500,c),
(398,500,l),
(398,443.772,o),
(443.772,398,o),
(500,398,cs),
(556.228,398,o),
(602,443.772,o),
(602,500,cs),
(602,700,l),
(598,700,l)
);
},
{
closed = 1;
nodes = (
(0,602,l),
(0,598,l),
(1000,598,l),
(1000,602,l)
);
},
{
closed = 1;
nodes = (
(0,702,l),
(0,698,l),
(1000,698,l),
(1000,702,l)
);
},
{
closed = 1;
nodes = (
(0,802,l),
(0,798,l),
(1000,798,l),
(1000,802,l)
);
},
{
closed = 1;
nodes = (
(0,902,l),
(0,898,l),
(1000,898,l),
(1000,902,l)
);
}
);
width = 1000;
}
);
unicode = 106;
},
{
glyphname = k;
lastChange = "2023-12-13 21:22:00 +0000";
layers = (
{
layerId = m01;
shapes = (
{
closed = 0;
nodes = (
(900,500.2,l),
(1000,600.3,l)
);
},
{
closed = 0;
nodes = (
(799.9,500.2,l),
(1000,700.3,l)
);
},
{
closed = 0;
nodes = (
(699.9,500.2,l),
(1000,800.4,l)
);
},
{
closed = 0;
nodes = (
(599.8,500.2,l),
(1000,900.4,l)
);
},
{
closed = 0;
nodes = (
(1000,1000.5,l),
(499.8,500.2,l),
(1000,0,l)
);
},
{
closed = 0;
nodes = (
(900,500.2,l),
(1000,400.2,l)
);
},
{
closed = 0;
nodes = (
(799.9,500.2,l),
(1000,300.1,l)
);
},
{
closed = 0;
nodes = (
(699.9,500.2,l),
(1000,200.1,l)
);
},
{
closed = 0;
nodes = (
(599.8,500.2,l),
(1000,100,l)
);
},
{
closed = 0;
nodes = (
(0,1000,l),
(500,1000,l)
);
},
{
closed = 0;
nodes = (
(-0.2,900.4,l),
(499.8,900.4,l),
(599.8,1000.5,l)
);
},
{
closed = 0;
nodes = (
(-0.2,800.4,l),
(499.8,800.4,l),
(699.9,1000.5,l)
);
},
{
closed = 0;
nodes = (
(-0.2,700.3,l),
(499.8,700.3,l),
(799.9,1000.5,l)
);
},
{
closed = 0;
nodes = (
(-0.2,600.3,l),
(499.8,600.3,l),
(900,1000.5,l)
);
},
{
closed = 0;
nodes = (
(-0.2,500.2,l),
(499.8,500.2,l)
);
},
{
closed = 0;
nodes = (
(-0.2,400.2,l),
(499.8,400.2,l),
(900,0,l)
);
},
{
closed = 0;
nodes = (
(-0.2,300.1,l),
(499.8,300.1,l),
(799.9,0,l)
);
},
{
closed = 0;
nodes = (
(-0.2,200.1,l),
(499.8,200.1,l),
(699.9,0,l)
);
},
{
closed = 0;
nodes = (
(-0.2,100,l),
(499.8,100,l),
(599.8,0,l)
);
},
{
closed = 0;
nodes = (
(0,0,l),
(500,0,l)
);
}
);
width = 1000;
},
{
layerId = m002;
shapes = (
{
closed = 1;
nodes = (
(885.865,500.2,l),
(914.135,500.2,l),
(1000,586.2,l),
(1000,614.8,l)
);
},
{
closed = 1;
nodes = (
(785.758,500.2,l),
(814.042,500.2,l),
(1000,686.1,l),
(1000,714.4,l)
);
},
{
closed = 1;
nodes = (
(685.76,500.2,l),
(714.04,500.2,l),
(1000,786.2,l),
(1000,814.7,l)
);
},
{
closed = 1;
nodes = (
(585.658,500.2,l),
(613.942,500.2,l),
(1000,886.3,l),
(1000,914.6,l)
);
},
{
closed = 1;
nodes = (
(513.941,500.201,l),
(1000,986.2,l),
(1000,1014.6,l),
(485.659,500.199,l),
(1000,-14.1,l),
(1000,14.1,l)
);
},
{
closed = 1;
nodes = (
(914.142,500.2,l),
(885.858,500.2,l),
(1000,386.1,l),
(1000,414.3,l)
);
},
{
closed = 1;
nodes = (
(814.042,500.2,l),
(785.758,500.2,l),
(1000,286.1,l),
(1000,314.2,l)
);
},
{
closed = 1;
nodes = (
(714.042,500.2,l),
(685.758,500.2,l),
(1000,186,l),
(1000,214.2,l)
);
},
{
closed = 1;
nodes = (
(613.942,500.2,l),
(585.658,500.2,l),
(1000,85.9,l),
(1000,114.3,l)
);
},
{
closed = 1;
nodes = (
(0,1010,l),
(0,990,l),
(500,990,l),
(500,1010,l)
);
},
{
closed = 1;
nodes = (
(495.655,910.4,l),
(-0.2,910.4,l),
(-0.2,890.4,l),
(503.945,890.4,l),
(613.935,1000.5,l),
(585.665,1000.5,l)
);
},
{
closed = 1;
nodes = (
(495.658,810.4,l),
(-0.2,810.4,l),
(-0.2,790.4,l),
(503.942,790.4,l),
(714.042,1000.5,l),
(685.758,1000.5,l)
);
},
{
closed = 1;
nodes = (
(495.657,710.3,l),
(-0.2,710.3,l),
(-0.2,690.3,l),
(503.943,690.3,l),
(814.04,1000.5,l),
(785.76,1000.5,l)
);
},
{
closed = 1;
nodes = (
(495.658,610.3,l),
(-0.2,610.3,l),
(-0.2,590.3,l),
(503.942,590.3,l),
(914.142,1000.5,l),
(885.858,1000.5,l)
);
},
{
closed = 1;
nodes = (
(-0.2,510.2,l),
(-0.2,490.2,l),
(499.8,490.2,l),
(499.8,510.2,l)
);
},
{
closed = 1;
nodes = (
(503.942,410.2,l),
(-0.2,410.2,l),
(-0.2,390.2,l),
(495.658,390.2,l),
(885.858,0,l),
(914.142,0,l)
);
},
{
closed = 1;
nodes = (
(503.941,310.1,l),
(-0.2,310.1,l),
(-0.2,290.1,l),
(495.659,290.1,l),
(785.8,0,l),
(814.3,-0.1,l)
);
},
{
closed = 1;
nodes = (
(503.942,210.1,l),
(-0.2,210.1,l),
(-0.2,190.1,l),
(495.658,190.1,l),
(685.758,0,l),
(714.042,0,l)
);
},
{
closed = 1;
nodes = (
(503.942,110,l),
(-0.2,110,l),
(-0.2,90,l),
(495.658,90,l),
(585.658,0,l),
(613.942,0,l)
);
},
{
closed = 1;
nodes = (
(0,10,l),
(0,-10,l),
(500,-10,l),
(500,10,l)
);
}
);
width = 1000;
},
{
layerId = m003;
shapes = (
{
closed = 1;
nodes = (
(897.173,500.2,l),
(902.827,500.2,l),
(1002.827,600.3,l),
(997.173,600.3,l)
);
},
{
closed = 1;
nodes = (
(797.072,500.2,l),
(802.728,500.2,l),
(1002.828,700.3,l),
(997.172,700.3,l)
);
},
{
closed = 1;
nodes = (
(697.072,500.2,l),
(702.728,500.2,l),
(1002.828,800.4,l),
(997.172,800.4,l)
);
},
{
closed = 1;
nodes = (
(596.972,500.2,l),
(602.628,500.2,l),
(1002.828,900.4,l),
(997.172,900.4,l)
);
},
{
closed = 1;
nodes = (
(502.628,500.2,l),
(1002.828,1000.5,l),
(997.172,1000.5,l),
(496.972,500.2,l),
(1000,-2.828,l),
(1000,2.828,l)
);
},
{
closed = 1;
nodes = (
(902.828,500.2,l),
(897.172,500.2,l),
(997.172,400.2,l),
(1002.828,400.2,l)
);
},
{
closed = 1;
nodes = (
(802.728,500.2,l),
(797.072,500.2,l),
(997.172,300.1,l),
(1002.828,300.1,l)
);
},
{
closed = 1;
nodes = (
(702.728,500.2,l),
(697.072,500.2,l),
(997.172,200.1,l),
(1002.828,200.1,l)
);
},
{
closed = 1;
nodes = (
(602.628,500.2,l),
(596.972,500.2,l),
(997.172,100,l),
(1002.828,100,l)
);
},
{
closed = 1;
nodes = (
(0,1002,l),
(0,998,l),
(500,998,l),
(500,1002,l)
);
},
{
closed = 1;
nodes = (
(498.971,902.4,l),
(-0.2,902.4,l),
(-0.2,898.4,l),
(500.629,898.4,l),
(602.627,1000.5,l),
(596.973,1000.5,l)
);
},
{
closed = 1;
nodes = (
(498.972,802.4,l),
(-0.2,802.4,l),
(-0.2,798.4,l),
(500.628,798.4,l),
(702.728,1000.5,l),
(697.072,1000.5,l)
);
},
{
closed = 1;
nodes = (
(498.971,702.3,l),
(-0.2,702.3,l),
(-0.2,698.3,l),
(500.629,698.3,l),
(802.728,1000.5,l),
(797.072,1000.5,l)
);
},
{
closed = 1;
nodes = (
(498.972,602.3,l),
(-0.2,602.3,l),
(-0.2,598.3,l),
(500.628,598.3,l),
(902.828,1000.5,l),
(897.172,1000.5,l)
);
},
{
closed = 1;
nodes = (
(-0.2,502.2,l),
(-0.2,498.2,l),
(499.8,498.2,l),
(499.8,502.2,l)
);
},
{
closed = 1;
nodes = (
(500.628,402.2,l),
(-0.2,402.2,l),
(-0.2,398.2,l),
(498.972,398.2,l),
(897.172,0,l),
(902.828,0,l)
);
},
{
closed = 1;
nodes = (
(500.628,302.1,l),
(-0.2,302.1,l),
(-0.2,298.1,l),
(498.972,298.1,l),
(797.072,0,l),
(802.728,0,l)
);
},
{
closed = 1;
nodes = (
(500.628,202.1,l),
(-0.2,202.1,l),
(-0.2,198.1,l),
(498.972,198.1,l),
(697.072,0,l),
(702.728,0,l)
);
},
{
closed = 1;
nodes = (
(500.628,102,l),
(-0.2,102,l),
(-0.2,98,l),
(498.972,98,l),
(596.972,0,l),
(602.628,0,l)
);
},
{
closed = 1;
nodes = (
(0,2,l),
(0,-2,l),
(500,-2,l),
(500,2,l)
);
}
);
width = 1000;
}
);
unicode = 107;
},
{
glyphname = l;
lastChange = "2023-12-13 21:22:00 +0000";
layers = (
{
layerId = m01;
shapes = (
{
closed = 0;
nodes = (
(500,1000,l),
(500,500,l),
(1000,500,l)
);
},
{
closed = 0;
nodes = (
(400,1000,l),
(400,400,l),
(1000,400,l)
);
},
{
closed = 0;
nodes = (
(300,1000,l),
(300,300,l),
(1000,300,l)
);
},
{
closed = 0;
nodes = (
(200,1000,l),
(200,200,l),
(1000,200,l)
);
},
{
closed = 0;
nodes = (
(100,1000,l),
(100,100,l),
(1000,100,l)
);
},
{
closed = 0;
nodes = (
(0,1000,l),
(0,0,l),
(1000,0,l)
);
},
{
closed = 0;
nodes = (
(600,1000,l),
(600,600,l)
);
},
{
closed = 0;
nodes = (
(700,1000,l),
(700,600,l)
);
},
{
closed = 0;
nodes = (
(800,1000,l),
(800,600,l)
);
},
{
closed = 0;
nodes = (
(900,1000,l),
(900,600,l)
);
},
{
closed = 0;
nodes = (
(1000,1000,l),
(1000,600,l)
);
}
);
width = 1000;
},
{
layerId = m002;
shapes = (
{
closed = 1;
nodes = (
(510,510,l),
(510,1000,l),
(490,1000,l),
(490,490,l),
(1000,490,l),
(1000,510,l)
);
},
{
closed = 1;
nodes = (
(410,410,l),
(410,1000,l),
(390,1000,l),
(390,390,l),
(1000,390,l),
(1000,410,l)
);
},
{
closed = 1;
nodes = (
(310,310,l),
(310,1000,l),
(290,1000,l),
(290,290,l),
(1000,290,l),
(1000,310,l)
);
},
{
closed = 1;
nodes = (
(210,210,l),
(210,1000,l),
(190,1000,l),
(190,190,l),
(1000,190,l),
(1000,210,l)
);
},
{
closed = 1;
nodes = (
(110,110,l),
(110,1000,l),
(90,1000,l),
(90,90,l),
(1000,90,l),
(1000,110,l)
);
},
{
closed = 1;
nodes = (
(10,10,l),
(10,1000,l),
(-10,1000,l),
(-10,-10,l),
(1000,-10,l),
(1000,10,l)
);
},
{
closed = 1;
nodes = (
(610,1000,l),
(590,1000,l),
(590,600,l),
(610,600,l)
);
},
{
closed = 1;
nodes = (
(710,1000,l),
(690,1000,l),
(690,600,l),
(710,600,l)
);
},
{
closed = 1;
nodes = (
(810,1000,l),
(790,1000,l),
(790,600,l),
(810,600,l)
);
},
{
closed = 1;
nodes = (
(910,1000,l),
(890,1000,l),
(890,600,l),
(910,600,l)
);
},
{
closed = 1;
nodes = (
(1010,1000,l),
(990,1000,l),
(990,600,l),
(1010,600,l)
);
}
);
width = 1000;
},
{
layerId = m003;
shapes = (
{
closed = 1;
nodes = (
(502,502,l),
(502,1000,l),
(498,1000,l),
(498,498,l),
(1000,498,l),
(1000,502,l)
);
},
{
closed = 1;
nodes = (
(402,402,l),
(402,1000,l),
(398,1000,l),
(398,398,l),
(1000,398,l),
(1000,402,l)
);
},
{
closed = 1;
nodes = (
(302,302,l),
(302,1000,l),
(298,1000,l),
(298,298,l),
(1000,298,l),
(1000,302,l)
);
},
{
closed = 1;
nodes = (
(202,202,l),
(202,1000,l),
(198,1000,l),
(198,198,l),
(1000,198,l),
(1000,202,l)
);
},
{
closed = 1;
nodes = (
(102,102,l),
(102,1000,l),
(98,1000,l),
(98,98,l),
(1000,98,l),
(1000,102,l)
);
},
{
closed = 1;
nodes = (
(2,2,l),
(2,1000,l),
(-2,1000,l),
(-2,-2,l),
(1000,-2,l),
(1000,2,l)
);
},
{
closed = 1;
nodes = (
(602,1000,l),
(598,1000,l),
(598,600,l),
(602,600,l)
);
},
{
closed = 1;
nodes = (
(702,1000,l),
(698,1000,l),
(698,600,l),
(702,600,l)
);
},
{
closed = 1;
nodes = (
(802,1000,l),
(798,1000,l),
(798,600,l),
(802,600,l)
);
},
{
closed = 1;
nodes = (
(902,1000,l),
(898,1000,l),
(898,600,l),
(902,600,l)
);
},
{
closed = 1;
nodes = (
(1002,1000,l),
(998,1000,l),
(998,600,l),
(1002,600,l)
);
}
);
width = 1000;
}
);
unicode = 108;
},
